<svg width="501" height="99" viewBox="0 0 501 99" fill="none" xmlns="http://www.w3.org/2000/svg">
<path d="M381.034 60.9915L363.743 78.1197H348.174L372.721 20.2896H373.257L397.805 78.071H387.593L381.034 60.9915ZM381.034 60.9915L372.575 39.8856L360.366 67.9727L381.034 60.9915Z" fill="white"/>
<path d="M215.006 60.9915L197.699 78.1197H182.129L206.677 20.2896H207.213L231.761 78.071H221.549L215.006 60.9915ZM215.006 60.9915L206.531 39.8856L194.322 67.9727L215.006 60.9915Z" fill="white"/>
<path d="M409.786 51.1372C409.786 50.8775 409.786 50.6015 409.786 50.3417C409.746 46.862 410.613 43.4318 412.303 40.3895C413.891 37.4781 416.207 35.0281 419.024 33.2784C421.748 31.5541 424.908 30.6417 428.132 30.6483C432.667 30.7178 437.067 32.2052 440.714 34.9019L444.221 26.5895C441.914 25.2066 439.443 24.1159 436.867 23.3424C433.937 22.4479 430.887 22.0098 427.824 22.0436C422.867 21.9618 417.983 23.2362 413.699 25.729C409.555 28.1691 406.179 31.7244 403.958 35.9897C401.175 41.6093 400.048 47.9049 400.711 54.1408L409.786 51.1372Z" fill="white"/>
<path d="M441.397 65.846C439.787 67.2125 437.945 68.2793 435.958 68.9956C433.621 69.8358 431.152 70.2483 428.668 70.2133C425.18 70.288 421.739 69.4065 418.716 67.6643C415.874 65.9825 413.575 63.52 412.092 60.5695C410.739 57.881 409.965 54.9386 409.819 51.9323L401.994 59.774L401.815 59.5954C402.366 61.4132 403.1 63.1703 404.007 64.8394C406.31 69.0709 409.745 72.5785 413.927 74.9702C418.512 77.5588 423.712 78.8602 428.977 78.7368C432.188 78.7657 435.378 78.2158 438.393 77.1133C440.772 76.3318 443.038 75.2401 445.131 73.8662L441.397 65.846Z" fill="white"/>
<path d="M469.825 52.5172L465.944 56.3325V78.1202H456.95V22.628H465.944V43.8962L465.717 46.7212L466.935 44.9678L485.443 25.2094L492.976 22.628H499.259L476.319 46.8673V46.8835L469.825 52.5172Z" fill="white"/>
<path d="M478.185 49.3178L471.789 55.1463L488.803 78.1192H500.087L478.185 49.3178Z" fill="white"/>
<path d="M326.775 46.0393H302.519V22.628H293.606V78.1202H302.519V54.4979H326.775V46.0393Z" fill="white"/>
<path d="M329.81 22.628V41.396H329.827V59.2873H329.81V78.1202H338.724V22.628H329.81Z" fill="white"/>
<path d="M158.232 35.8924V78.1204H167.08V31.3628L158.232 35.8924Z" fill="white"/>
<path d="M144.286 22.628V31.1677H167.47H167.453H181.4V22.628H144.286Z" fill="white"/>
<path d="M246.941 35.8924V78.1204H255.789V31.3628L246.941 35.8924Z" fill="white"/>
<path d="M232.995 22.628V31.1677H256.179H270.125V22.628H232.995Z" fill="white"/>
<path d="M109.15 49.1479C110.337 49.8073 111.705 50.4503 113.238 51.1097L117.755 43.2954C116.363 42.6414 115.024 41.8807 113.749 41.0204C112.847 40.4584 112.104 39.6763 111.587 38.7477C111.071 37.8191 110.8 36.7744 110.798 35.712C110.759 34.7301 110.96 33.7535 111.382 32.8661C111.804 31.9788 112.435 31.2072 113.222 30.6179C115.153 29.2851 117.472 28.63 119.816 28.755C124.364 28.977 128.794 30.2766 132.741 32.5467L136.153 25.6556C133.712 24.0986 131.065 22.889 128.29 22.0617C125.106 21.1549 121.807 20.7217 118.497 20.7759C113.972 20.7665 109.593 22.3743 106.149 25.3094C104.605 26.7072 103.385 28.4263 102.576 30.346C101.767 32.2656 101.389 34.3392 101.467 36.4209C101.358 39.2161 102.163 41.9707 103.759 44.2681C105.166 46.279 107.009 47.9469 109.15 49.1479V49.1479Z" fill="white"/>
<path d="M134.405 53.7478C133.189 51.6643 131.494 49.901 129.46 48.6042C127.424 47.3513 125.264 46.3127 123.014 45.5049L118.53 53.2697C120.616 54.0876 122.575 55.1977 124.349 56.5669C125.171 57.2101 125.833 58.034 126.285 58.9746C126.736 59.9152 126.965 60.9473 126.954 61.9907C127.029 63.187 126.781 64.3816 126.236 65.4491C125.691 66.5166 124.868 67.4176 123.854 68.0575C121.694 69.3975 119.192 70.0845 116.65 70.0358C114.172 69.9867 111.722 69.5012 109.413 68.6015C107.008 67.7848 104.736 66.6183 102.67 65.1395L98.6476 72.1789C101.354 74.065 104.342 75.5116 107.501 76.4652C110.75 77.542 114.15 78.0983 117.573 78.1138C121.051 78.1995 124.499 77.4534 127.63 75.9377C130.292 74.6349 132.533 72.6061 134.092 70.0852C135.601 67.6452 136.384 64.8263 136.351 61.9577C136.452 59.096 135.78 56.2598 134.405 53.7478Z" fill="white"/>
<path d="M24.6374 24.7879L98.6477 0.223145L49.3669 49.5173L24.6374 24.7879Z" fill="white"/>
<path d="M74.097 74.2466L0.0867767 98.8113L49.3676 49.5172L74.097 74.2466Z" fill="white"/>
</svg>
