<svg width="298" height="258" viewBox="0 0 298 258" fill="none" xmlns="http://www.w3.org/2000/svg">
<g clip-path="url(#clip0_1021_23892)">
<path d="M272.59 193.125L119.784 107.921C118.016 106.935 114.926 107.107 112.92 108.307L24.9798 160.75C22.9732 161.95 22.7785 163.737 24.5464 164.723L160.427 240.488L161.071 255.25L181.576 250.458C182.524 250.304 183.45 250 184.22 249.541L272.156 197.098C274.163 195.898 274.358 194.111 272.59 193.125Z" fill="#D6DAE6"/>
<path d="M256.814 192.428L253.109 194.856L251.46 189.571L257.172 189.486L256.814 192.428Z" fill="#212945"/>
<path d="M122.17 3.19665L125.863 0.772461L132.392 6.71048L124.4 8.07958L122.17 3.19665Z" fill="#212945"/>
<path d="M251.749 192.557L101.496 108.778C98.1769 106.928 96.4687 101.716 97.6965 97.197L122.636 5.51093C123.863 0.992255 127.584 -1.19015 130.904 0.6594L281.571 85.1922C284.89 87.0417 285.914 90.499 284.686 95.0177L260.014 187.702C258.786 192.221 255.065 194.403 251.746 192.554L251.749 192.557Z" fill="#212945"/>
<path d="M247.94 195.047L97.687 111.268C94.3678 109.419 92.6596 104.206 93.8874 99.6872L118.83 8.00433C120.057 3.48566 123.778 1.30326 127.098 3.15281L278.776 87.8897C282.095 89.7392 282.799 92.2702 281.568 96.7889L256.208 190.199C254.98 194.717 251.259 196.9 247.94 195.05V195.047Z" fill="#333E69"/>
<path d="M245.516 191.794L101.348 111.406C98.1641 109.632 96.525 104.63 97.7025 100.296L121.634 12.3252C122.814 7.98867 126.382 5.8942 129.566 7.67152L275.099 88.9762C278.283 90.7504 278.958 93.1777 277.777 97.5143L253.444 187.14C252.264 191.477 248.697 193.571 245.512 191.794H245.516Z" fill="#57628C"/>
<path d="M250.552 199.72L250.502 196.303L228.804 207.925L227.513 205.071L80.6704 123.191C78.9025 122.205 75.4201 122.384 73.4135 123.584L10.8806 160.716L10.8649 159.708L1.3534 164.506L0 163.982L0.248072 168.4C0.408219 169.361 0.785037 169.753 1.3848 170.089L154.2 255.526C155.968 256.512 159.061 256.453 161.071 255.253L248.263 203.632C250.612 202.392 250.552 199.72 250.552 199.72Z" fill="#9FB7DB"/>
<path d="M250.552 199.72L250.502 196.303L228.804 207.925L227.513 205.07L155.484 164.908L154.203 255.526C155.089 256.019 156.304 256.252 157.547 256.211C158.791 256.17 160.069 255.856 161.071 255.256L248.263 203.635C250.612 202.395 250.552 199.723 250.552 199.723V199.72Z" fill="#8BA4CC"/>
<path d="M249.293 194.608L96.4871 109.403C94.7192 108.417 91.6293 108.589 89.6227 109.789L1.68289 162.233C-0.323661 163.432 -0.51835 165.219 1.24955 166.205L154.055 251.41C155.823 252.396 158.913 252.223 160.92 251.023L248.856 198.58C250.863 197.38 251.058 195.594 249.29 194.608H249.293Z" fill="#DFE8F5"/>
<path d="M89.8617 134.141C89.645 134.273 89.1928 134.226 88.86 134.04L79.584 128.869C79.248 128.683 79.1538 128.423 79.3736 128.294L85.4152 124.683C85.635 124.551 86.0841 124.598 86.4169 124.783L95.6929 129.955C96.0258 130.14 96.1231 130.398 95.9033 130.53L89.8617 134.141Z" fill="#C9D8ED"/>
<path d="M100.768 149.829C100.548 149.961 100.102 149.917 99.7627 149.728L90.4867 144.56C90.1539 144.375 90.0597 144.117 90.2795 143.985L96.3211 140.374C96.5347 140.245 96.9837 140.289 97.3166 140.474L106.593 145.643C106.932 145.832 107.023 146.089 106.806 146.218L100.764 149.829H100.768Z" fill="#C9D8ED"/>
<path d="M95.4732 156.489C95.2534 156.621 94.8075 156.571 94.4746 156.386L85.1955 151.214C84.8658 151.032 84.7653 150.771 84.982 150.642L91.0268 147.028C91.2403 146.899 91.6956 146.95 92.0253 147.132L101.304 152.304C101.637 152.489 101.732 152.749 101.518 152.875L95.4732 156.489Z" fill="#C9D8ED"/>
<path d="M80.8964 157.978C80.6797 158.106 80.2307 158.062 79.8978 157.877L70.6187 152.705C70.289 152.52 70.1948 152.263 70.4083 152.134L76.4499 148.523C76.6666 148.394 77.1188 148.438 77.4516 148.623L86.7308 153.795C87.0636 153.98 87.1547 154.238 86.938 154.37L80.8964 157.981V157.978Z" fill="#C9D8ED"/>
<path d="M55.5305 154.662C55.3138 154.794 54.8647 154.746 54.5287 154.561L45.2528 149.389C44.9168 149.204 44.8225 148.947 45.0392 148.815L52.1328 144.575C52.3463 144.447 52.7985 144.491 53.1345 144.679L62.4105 149.851C62.7434 150.036 62.8344 150.297 62.6209 150.426L55.5273 154.665L55.5305 154.662Z" fill="#C9D8ED"/>
<path d="M71.5264 163.577C71.3097 163.708 70.7759 163.614 70.3363 163.369L58.1808 156.596C57.7443 156.354 57.5653 156.047 57.782 155.918L64.8756 151.679C65.0891 151.55 65.6292 151.644 66.0626 151.886L78.2181 158.659C78.6577 158.904 78.8335 159.212 78.62 159.337L71.5264 163.577Z" fill="#C9D8ED"/>
<path d="M151.374 208.145C151.192 208.255 150.774 208.189 150.438 208.003L141.168 202.838C140.829 202.65 140.704 202.408 140.883 202.301L143.505 200.734C143.684 200.627 144.108 200.69 144.447 200.878L153.716 206.044C154.049 206.229 154.175 206.471 153.993 206.578L151.371 208.145H151.374Z" fill="#C9D8ED"/>
<path d="M163.771 215.238C163.589 215.348 163.172 215.282 162.836 215.097L153.566 209.931C153.227 209.743 153.101 209.501 153.28 209.394L155.902 207.828C156.081 207.721 156.505 207.784 156.844 207.972L166.114 213.137C166.447 213.323 166.572 213.565 166.39 213.671L163.768 215.238H163.771Z" fill="#C9D8ED"/>
<path d="M176.91 222.391C176.734 222.495 176.319 222.429 175.987 222.241L166.714 217.072C166.381 216.887 166.246 216.648 166.419 216.541L168.946 215.031C169.119 214.927 169.54 214.996 169.873 215.182L179.146 220.35C179.478 220.536 179.61 220.774 179.438 220.878L176.91 222.388V222.391Z" fill="#C9D8ED"/>
<path d="M168.745 212.356C168.569 212.459 168.155 212.393 167.822 212.205L158.549 207.036C158.216 206.851 158.081 206.612 158.254 206.505L160.782 204.995C160.955 204.891 161.375 204.961 161.708 205.146L170.981 210.314C171.314 210.5 171.446 210.738 171.273 210.842L168.745 212.352V212.356Z" fill="#C9D8ED"/>
<path d="M135.34 199.139C135.124 199.271 134.668 199.22 134.335 199.035L73.966 165.388C73.6363 165.206 73.5358 164.946 73.7525 164.814L80.8461 160.575C81.0596 160.446 81.5181 160.493 81.8478 160.678L142.217 194.325C142.553 194.513 142.647 194.774 142.434 194.903L135.34 199.142V199.139Z" fill="#C9D8ED"/>
<path d="M69.8493 161.319C69.8493 161.319 69.7928 161.316 69.7519 161.294L62.6615 157.34C62.6238 157.318 62.6018 157.293 62.6144 157.287L63.054 157.023C63.054 157.023 63.1105 157.026 63.1514 157.048L70.2418 161.002C70.2826 161.024 70.3015 161.049 70.2889 161.055L69.8493 161.319Z" fill="#C9D8ED"/>
<path d="M51.6557 150.41C51.6557 150.41 51.618 150.416 51.5992 150.41L48.5878 148.733C48.5721 148.724 48.5689 148.711 48.5815 148.702L49.0211 148.438C49.0211 148.438 49.0588 148.432 49.0745 148.438L52.0859 150.115C52.1016 150.124 52.1047 150.14 52.0922 150.146L51.6525 150.41H51.6557Z" fill="#C9D8ED"/>
<path d="M93.6143 165.059C93.3977 165.188 92.9486 165.144 92.6126 164.955L83.3366 159.786C83.0069 159.604 82.9064 159.341 83.1231 159.212L89.1647 155.601C89.3814 155.472 89.8399 155.519 90.1696 155.701L99.4456 160.87C99.7816 161.058 99.8726 161.316 99.656 161.444L93.6143 165.056V165.059Z" fill="#C9D8ED"/>
<path d="M106.385 172.178C106.168 172.306 105.716 172.259 105.386 172.077L96.1104 166.908C95.7775 166.723 95.6802 166.462 95.8968 166.334L101.938 162.723C102.155 162.594 102.61 162.641 102.943 162.826L112.219 167.995C112.549 168.177 112.643 168.438 112.427 168.57L106.385 172.181V172.178Z" fill="#C9D8ED"/>
<path d="M119.159 179.296C118.942 179.425 118.493 179.381 118.161 179.196L108.881 174.024C108.552 173.839 108.457 173.581 108.671 173.452L114.713 169.841C114.929 169.713 115.381 169.756 115.711 169.942L124.99 175.114C125.32 175.299 125.414 175.556 125.198 175.688L119.156 179.299L119.159 179.296Z" fill="#C9D8ED"/>
<path d="M131.933 186.415C131.717 186.544 131.268 186.5 130.935 186.314L121.656 181.143C121.32 180.954 121.225 180.697 121.442 180.568L127.484 176.957C127.7 176.828 128.153 176.872 128.489 177.057L137.768 182.229C138.101 182.414 138.192 182.672 137.975 182.804L131.933 186.415Z" fill="#C9D8ED"/>
<path d="M144.711 193.537C144.494 193.665 144.042 193.618 143.706 193.433L134.433 188.264C134.103 188.079 134.009 187.822 134.223 187.693L140.264 184.082C140.481 183.953 140.933 183.997 141.263 184.182L150.536 189.351C150.872 189.539 150.966 189.8 150.749 189.929L144.708 193.54L144.711 193.537Z" fill="#C9D8ED"/>
<path d="M157.485 200.649C157.268 200.778 156.816 200.734 156.483 200.546L147.207 195.377C146.874 195.192 146.777 194.931 146.994 194.802L153.035 191.191C153.252 191.062 153.704 191.106 154.04 191.292L163.316 196.46C163.649 196.646 163.743 196.906 163.526 197.035L157.485 200.646V200.649Z" fill="#C9D8ED"/>
<path d="M186.258 216.686C186.041 216.815 185.592 216.771 185.256 216.582L159.981 202.496C159.648 202.31 159.554 202.05 159.771 201.921L165.812 198.31C166.029 198.181 166.481 198.225 166.814 198.41L192.089 212.497C192.422 212.682 192.516 212.943 192.3 213.072L186.258 216.683V216.686Z" fill="#C9D8ED"/>
<path d="M108.184 163.567C107.965 163.699 107.525 163.655 107.189 163.467L97.9098 158.295C97.577 158.11 97.4796 157.855 97.6994 157.723L103.744 154.112C103.958 153.983 104.407 154.027 104.74 154.216L114.019 159.388C114.355 159.576 114.443 159.83 114.229 159.956L108.184 163.567Z" fill="#C9D8ED"/>
<path d="M120.962 170.689C120.742 170.821 120.296 170.771 119.963 170.588L110.681 165.417C110.351 165.231 110.254 164.977 110.474 164.845L116.518 161.234C116.732 161.105 117.181 161.152 117.511 161.334L126.793 166.506C127.123 166.692 127.22 166.949 127.006 167.078L120.962 170.692V170.689Z" fill="#C9D8ED"/>
<path d="M133.733 177.808C133.513 177.94 133.064 177.889 132.734 177.704L123.458 172.535C123.128 172.353 123.025 172.093 123.245 171.961L129.289 168.346C129.503 168.218 129.961 168.268 130.291 168.45L139.567 173.619C139.9 173.804 139.994 174.065 139.781 174.19L133.736 177.805L133.733 177.808Z" fill="#C9D8ED"/>
<path d="M146.507 184.926C146.287 185.058 145.841 185.011 145.508 184.826L136.232 179.657C135.9 179.472 135.802 179.214 136.019 179.086L142.064 175.475C142.277 175.346 142.726 175.393 143.062 175.578L152.338 180.747C152.671 180.932 152.765 181.19 152.552 181.318L146.507 184.933V184.926Z" fill="#C9D8ED"/>
<path d="M159.284 192.042C159.064 192.174 158.619 192.124 158.286 191.942L149.007 186.77C148.674 186.585 148.576 186.33 148.796 186.198L154.841 182.584C155.054 182.455 155.503 182.499 155.836 182.684L165.115 187.856C165.448 188.042 165.543 188.299 165.329 188.428L159.284 192.042Z" fill="#C9D8ED"/>
<path d="M172.055 199.157C171.835 199.289 171.392 199.242 171.06 199.057L161.787 193.888C161.451 193.7 161.353 193.446 161.57 193.314L167.615 189.699C167.828 189.571 168.281 189.618 168.616 189.803L177.889 194.972C178.222 195.157 178.313 195.414 178.1 195.543L172.055 199.157Z" fill="#C9D8ED"/>
<path d="M184.829 206.279C184.609 206.411 184.163 206.364 183.834 206.179L174.555 201.007C174.222 200.822 174.128 200.567 174.347 200.439L180.392 196.824C180.606 196.696 181.055 196.74 181.384 196.925L190.664 202.097C190.993 202.282 191.087 202.539 190.874 202.668L184.829 206.279Z" fill="#C9D8ED"/>
<path d="M113.482 156.907C113.262 157.039 112.813 156.995 112.477 156.806L103.201 151.635C102.871 151.449 102.777 151.195 102.997 151.063L109.039 147.452C109.252 147.323 109.701 147.367 110.034 147.552L119.31 152.724C119.646 152.909 119.737 153.17 119.524 153.296L113.482 156.907Z" fill="#C9D8ED"/>
<path d="M126.253 164.026C126.033 164.158 125.584 164.11 125.251 163.928L115.975 158.757C115.642 158.571 115.545 158.314 115.768 158.182L121.809 154.571C122.023 154.442 122.475 154.489 122.808 154.674L132.084 159.846C132.414 160.031 132.508 160.289 132.294 160.418L126.253 164.029V164.026Z" fill="#C9D8ED"/>
<path d="M139.03 171.148C138.81 171.279 138.361 171.236 138.025 171.047L128.749 165.878C128.42 165.693 128.325 165.436 128.545 165.304L134.587 161.693C134.8 161.564 135.249 161.608 135.582 161.793L144.858 166.962C145.194 167.15 145.289 167.408 145.072 167.536L139.03 171.148Z" fill="#C9D8ED"/>
<path d="M151.801 178.263C151.581 178.395 151.135 178.351 150.8 178.166L141.52 172.994C141.188 172.809 141.09 172.551 141.313 172.419L147.355 168.808C147.568 168.679 148.02 168.726 148.353 168.912L157.632 174.083C157.968 174.269 158.056 174.526 157.843 174.655L151.801 178.266V178.263Z" fill="#C9D8ED"/>
<path d="M164.575 185.379C164.355 185.51 163.906 185.463 163.577 185.281L154.298 180.109C153.962 179.921 153.871 179.667 154.09 179.535L160.132 175.924C160.346 175.795 160.795 175.839 161.131 176.027L170.41 181.199C170.739 181.381 170.834 181.639 170.617 181.767L164.575 185.379Z" fill="#C9D8ED"/>
<path d="M177.352 192.5C177.133 192.632 176.684 192.585 176.344 192.4L167.068 187.231C166.739 187.049 166.641 186.789 166.861 186.657L172.903 183.045C173.116 182.917 173.572 182.964 173.898 183.146L183.174 188.315C183.51 188.503 183.604 188.761 183.391 188.889L177.349 192.5H177.352Z" fill="#C9D8ED"/>
<path d="M190.124 199.619C189.904 199.751 189.455 199.704 189.122 199.522L179.843 194.35C179.51 194.165 179.416 193.907 179.635 193.776L185.677 190.164C185.891 190.036 186.34 190.08 186.676 190.268L195.955 195.44C196.285 195.625 196.379 195.883 196.165 196.011L190.124 199.622V199.619Z" fill="#C9D8ED"/>
<path d="M87.9931 142.71C87.7733 142.842 87.3243 142.795 86.9883 142.61L71.2593 133.842C70.9233 133.657 70.8291 133.4 71.0489 133.268L77.0905 129.657C77.3041 129.528 77.7562 129.575 78.0891 129.76L93.8181 138.528C94.1541 138.713 94.2483 138.973 94.0316 139.099L87.99 142.71H87.9931Z" fill="#C9D8ED"/>
<path d="M211.219 201.764C211.002 201.896 210.55 201.849 210.217 201.664L194.488 192.896C194.159 192.714 194.061 192.453 194.278 192.322L200.319 188.71C200.539 188.579 200.991 188.629 201.321 188.811L217.05 197.578C217.383 197.763 217.48 198.021 217.261 198.153L211.219 201.764Z" fill="#C9D8ED"/>
<path d="M82.6961 149.367C82.4763 149.499 82.0335 149.452 81.6975 149.264L62.9446 138.813C62.6086 138.628 62.5112 138.371 62.731 138.239L68.7758 134.628C68.9894 134.499 69.4415 134.546 69.7744 134.731L88.5273 145.182C88.8665 145.37 88.9544 145.628 88.7409 145.753L82.6961 149.364V149.367Z" fill="#C9D8ED"/>
<path d="M68.1258 150.859C67.9091 150.988 67.4601 150.944 67.1241 150.755L54.62 143.787C54.284 143.602 54.193 143.341 54.4065 143.213L60.4481 139.602C60.6648 139.473 61.117 139.517 61.4498 139.702L73.9539 146.67C74.2868 146.855 74.381 147.116 74.1643 147.245L68.1227 150.856L68.1258 150.859Z" fill="#C9D8ED"/>
<path d="M102.633 141.256C102.416 141.388 101.967 141.341 101.628 141.153L92.3581 135.987C92.0252 135.802 91.9279 135.541 92.1477 135.413L98.1893 131.801C98.4091 131.67 98.8582 131.717 99.191 131.902L108.461 137.067C108.8 137.256 108.891 137.513 108.674 137.642L102.633 141.253V141.256Z" fill="#C9D8ED"/>
<path d="M115.35 148.341C115.134 148.472 114.682 148.425 114.346 148.237L105.07 143.065C104.737 142.88 104.643 142.622 104.859 142.49L110.901 138.879C111.121 138.747 111.57 138.794 111.903 138.98L121.179 144.152C121.511 144.337 121.609 144.594 121.389 144.726L115.347 148.337L115.35 148.341Z" fill="#C9D8ED"/>
<path d="M128.118 155.456C127.902 155.588 127.456 155.544 127.12 155.356L117.844 150.184C117.511 149.999 117.417 149.741 117.636 149.609L123.678 145.998C123.898 145.866 124.347 145.913 124.677 146.099L133.953 151.27C134.289 151.459 134.38 151.713 134.16 151.842L128.118 155.453V155.456Z" fill="#C9D8ED"/>
<path d="M140.895 162.578C140.679 162.71 140.227 162.663 139.894 162.478L130.624 157.309C130.288 157.121 130.194 156.863 130.414 156.734L136.455 153.123C136.675 152.991 137.121 153.038 137.46 153.224L146.73 158.392C147.063 158.578 147.16 158.835 146.94 158.967L140.899 162.578H140.895Z" fill="#C9D8ED"/>
<path d="M153.663 169.694C153.447 169.826 153.001 169.782 152.665 169.593L143.389 164.425C143.053 164.236 142.958 163.979 143.178 163.85L149.22 160.239C149.44 160.107 149.886 160.154 150.225 160.342L159.501 165.511C159.837 165.699 159.925 165.951 159.708 166.083L153.666 169.694H153.663Z" fill="#C9D8ED"/>
<path d="M166.444 176.809C166.227 176.941 165.775 176.894 165.445 176.709L156.166 171.537C155.833 171.352 155.742 171.094 155.959 170.965L162 167.354C162.22 167.222 162.666 167.269 162.999 167.455L172.278 172.626C172.608 172.812 172.705 173.069 172.485 173.198L166.444 176.809Z" fill="#C9D8ED"/>
<path d="M179.218 183.931C179.001 184.063 178.549 184.016 178.216 183.831L168.94 178.662C168.604 178.473 168.51 178.216 168.727 178.087L174.768 174.476C174.988 174.344 175.437 174.391 175.773 174.58L185.049 179.748C185.382 179.934 185.479 180.191 185.26 180.323L179.218 183.934V183.931Z" fill="#C9D8ED"/>
<path d="M191.989 191.047C191.772 191.178 191.323 191.135 190.993 190.949L181.711 185.774C181.381 185.589 181.287 185.335 181.507 185.203L187.548 181.592C187.768 181.46 188.214 181.507 188.544 181.689L197.826 186.864C198.156 187.049 198.25 187.304 198.03 187.435L191.989 191.047Z" fill="#C9D8ED"/>
<path d="M199.449 197.38C199.296 197.296 199.107 197.233 198.909 197.211C198.715 197.189 198.558 197.217 198.457 197.28L192.416 200.891C192.315 200.951 192.268 201.045 192.309 201.158C192.353 201.271 192.466 201.378 192.62 201.466L195.041 202.816L187.118 207.551C187.014 207.611 186.977 207.708 187.018 207.818C187.058 207.931 187.175 208.038 187.332 208.126L193.581 211.608C193.738 211.696 193.929 211.759 194.124 211.781C194.318 211.803 194.479 211.775 194.582 211.715L208.945 203.13C209.046 203.07 209.087 202.976 209.043 202.866C209.002 202.753 208.886 202.646 208.729 202.558L199.449 197.387V197.38Z" fill="#C9D8ED"/>
<path d="M66.4362 147.914C66.4362 147.914 66.3797 147.911 66.3389 147.889L59.2484 143.935C59.2107 143.913 59.1887 143.888 59.2013 143.882L59.6409 143.618C59.6409 143.618 59.6974 143.621 59.7383 143.643L66.8287 147.596C66.8695 147.618 66.8884 147.644 66.8758 147.65L66.4362 147.914Z" fill="#C9D8ED"/>
<path d="M103.26 207.539L67.3812 187.533C65.4468 186.456 65.5473 184.707 67.601 183.648L79.4017 177.563C81.4553 176.505 84.7179 176.52 86.6523 177.597L122.532 197.603C124.466 198.68 124.365 200.429 122.312 201.488L110.511 207.573C108.457 208.632 105.195 208.616 103.26 207.539Z" fill="#C9D8ED"/>
<path d="M140.65 25.9346C135.538 22.8635 129.556 24.8355 127.286 30.3402C125.015 35.8449 127.32 42.7972 132.429 45.8682C137.542 48.9393 143.523 46.9673 145.794 41.4626C148.064 35.9579 145.759 29.0056 140.65 25.9346ZM133.786 42.5836C130.36 40.5237 128.815 35.8637 130.335 32.1709C131.858 28.4812 135.868 27.1561 139.297 29.216C142.723 31.276 144.268 35.9359 142.748 39.6287C141.225 43.3184 137.215 44.6436 133.786 42.5836Z" fill="#8AA3FF"/>
<path d="M145.794 41.4625C147.182 38.0931 146.855 34.1836 145.225 30.9524L142.399 32.6512C143.464 34.8054 143.668 37.396 142.748 39.6286C141.489 42.684 138.521 44.1128 135.595 43.3497L135.014 46.9797C139.419 48.1887 143.903 46.0596 145.797 41.4625H145.794Z" fill="#FFAB66"/>
<path d="M133.488 24.7538L134.43 28.4403C135.972 28.0321 137.696 28.2551 139.297 29.2159C140.745 30.0858 141.853 31.4203 142.541 32.9496L145.533 31.6025C144.513 29.2787 142.839 27.2471 140.65 25.9314C138.298 24.5183 135.764 24.176 133.488 24.7507V24.7538Z" fill="white"/>
<g style="mix-blend-mode:multiply">
<path d="M159.931 233.206L218.564 197.324C229.4 190.692 237.244 180.122 240.457 167.828L254.792 112.932L191.659 140.33L156.445 234.736L159.934 233.203L159.931 233.206Z" fill="#D6DAE6"/>
</g>
<path d="M259.527 117.074L205.604 86.5676C203.874 85.5879 202.929 83.484 203.491 81.87C204.053 80.2528 205.912 79.7378 207.642 80.7144L261.565 111.221C263.295 112.201 264.24 114.305 263.678 115.919C263.116 117.536 261.257 118.051 259.527 117.074Z" fill="#333E69"/>
<path d="M203.133 201.679L164.22 180.634L196.636 156.244L210.245 180.508L203.133 201.679Z" fill="#EBEDFA"/>
<path d="M171.327 157.246C171.327 157.246 183.09 119.005 184.669 115.793C186.949 111.158 192.206 91.5259 211.313 89.2305L254.594 113.771C254.594 113.771 239.217 115.375 229.897 139.865C216.077 176.187 216.435 199.538 207.843 203.02C206.091 203.73 203.833 202.728 203.152 201.739C199.469 196.404 211.976 178.743 202.477 174.231C196.04 171.173 171.327 157.249 171.327 157.249V157.246Z" fill="white"/>
<path d="M114.147 212.676C114.147 212.676 122.993 214.843 142.896 165.345C146.199 157.13 152.542 147.559 161.796 148.51C165.646 148.906 171.242 150.19 177.519 154.546C194.677 166.444 202.059 174.043 202.059 174.043C202.059 174.043 192.912 171.056 185.492 188.541C180.031 201.409 167.1 233.812 154.624 235.203L114.147 212.676Z" fill="white"/>
<path d="M153.132 217.986L158.634 220.941" stroke="#C8CFE6" stroke-width="3.25" stroke-linecap="round" stroke-linejoin="round"/>
<path d="M131.459 205.394L142.362 211.586" stroke="#C8CFE6" stroke-width="3.25" stroke-linecap="round" stroke-linejoin="round"/>
<path d="M161.234 204.646L166.732 207.601" stroke="#C8CFE6" stroke-width="3.25" stroke-linecap="round" stroke-linejoin="round"/>
<path d="M139.558 192.055L150.46 198.244" stroke="#C8CFE6" stroke-width="3.25" stroke-linecap="round" stroke-linejoin="round"/>
<path d="M168.023 190.708L173.524 193.662" stroke="#C8CFE6" stroke-width="3.25" stroke-linecap="round" stroke-linejoin="round"/>
<path d="M146.347 178.115L157.252 184.308" stroke="#C8CFE6" stroke-width="3.25" stroke-linecap="round" stroke-linejoin="round"/>
<path d="M176.599 172.959L182.1 175.914" stroke="#C8CFE6" stroke-width="3.25" stroke-linecap="round" stroke-linejoin="round"/>
<path d="M154.925 160.367L165.828 166.56" stroke="#C8CFE6" stroke-width="3.25" stroke-linecap="round" stroke-linejoin="round"/>
<path d="M205.667 157.949L211.165 160.904" stroke="#C8CFE6" stroke-width="3.25" stroke-linecap="round" stroke-linejoin="round"/>
<path d="M183.991 145.357L194.893 151.55" stroke="#C8CFE6" stroke-width="3.25" stroke-linecap="round" stroke-linejoin="round"/>
<path d="M210.748 140.161L216.246 143.116" stroke="#C8CFE6" stroke-width="3.25" stroke-linecap="round" stroke-linejoin="round"/>
<path d="M189.071 127.569L199.974 133.761" stroke="#C8CFE6" stroke-width="3.25" stroke-linecap="round" stroke-linejoin="round"/>
<path d="M218.212 124.598L223.713 127.553" stroke="#C8CFE6" stroke-width="3.25" stroke-linecap="round" stroke-linejoin="round"/>
<path d="M196.539 112.006L207.441 118.195" stroke="#C8CFE6" stroke-width="3.25" stroke-linecap="round" stroke-linejoin="round"/>
<path d="M228.854 111.095L234.356 114.05" stroke="#C8CFE6" stroke-width="3.25" stroke-linecap="round" stroke-linejoin="round"/>
<path d="M207.178 98.5034L218.083 104.696" stroke="#C8CFE6" stroke-width="3.25" stroke-linecap="round" stroke-linejoin="round"/>
<path d="M208.512 186.669C208.512 186.669 212.265 174.341 203.632 169.216L173.076 151.688" stroke="#C8CFE6" stroke-width="3.25" stroke-linecap="round" stroke-linejoin="round"/>
<path d="M165.053 60.3626C170.285 58.5925 172.841 52.1742 170.762 46.0269C168.682 39.8795 162.755 36.331 157.522 38.101C152.29 39.871 149.734 46.2893 151.814 52.4367C153.893 58.5841 159.821 62.1326 165.053 60.3626Z" fill="#FFAB66"/>
<path d="M165.332 47.1777L159.334 52.4626L156.674 47.1777" stroke="white" stroke-width="3.08" stroke-linecap="round" stroke-linejoin="round"/>
<path d="M188.993 51.6052C183.752 48.7948 177.908 51.084 175.946 56.7205L185.438 61.8107L188.993 51.6052Z" fill="white"/>
<path d="M190.233 53.4924C190.082 53.4108 189.929 53.3354 189.775 53.2632L186.076 63.6005L177.186 58.8338C175.402 64.3824 178.037 71.0207 183.165 73.7715C188.374 76.5662 194.177 74.2896 196.127 68.6907C198.077 63.0918 195.44 56.2871 190.23 53.4956L190.233 53.4924Z" fill="#8AA3FF"/>
<g style="mix-blend-mode:multiply">
<path d="M187.674 82.5231L130.621 51.1813C128.319 49.9158 125.851 50.9206 125.138 53.417L113.139 95.4668C112.427 97.96 113.73 101.037 116.031 102.303L173.085 133.645C175.387 134.91 177.855 133.905 178.568 131.409L190.566 89.3592C191.279 86.8659 189.976 83.7885 187.674 82.5231Z" fill="#D6DAE6"/>
</g>
<path d="M165.941 137.137L108.888 105.795C106.586 104.529 105.283 101.455 105.996 98.9587L117.994 56.909C118.707 54.4157 121.172 53.4109 123.477 54.6732L180.53 86.015C182.832 87.2805 184.135 90.3547 183.422 92.8511L171.424 134.901C170.711 137.394 168.246 138.399 165.941 137.137Z" fill="white"/>
<path d="M116.942 100.997L120.679 103.05" stroke="#C8CFE6" stroke-width="2.88" stroke-linecap="round" stroke-linejoin="round"/>
<path d="M127.233 106.652L130.97 108.703" stroke="#C8CFE6" stroke-width="2.88" stroke-linecap="round" stroke-linejoin="round"/>
<path d="M137.526 112.304L141.263 114.358" stroke="#C8CFE6" stroke-width="2.88" stroke-linecap="round" stroke-linejoin="round"/>
<path d="M147.819 117.96L151.556 120.013" stroke="#C8CFE6" stroke-width="2.88" stroke-linecap="round" stroke-linejoin="round"/>
<path d="M158.113 123.615L161.85 125.669" stroke="#C8CFE6" stroke-width="2.88" stroke-linecap="round" stroke-linejoin="round"/>
<path d="M119.32 98.4249L117.253 97.2913L122.768 77.97L124.834 79.1067L119.32 98.4249Z" fill="#5B78E3"/>
<path d="M123.056 100.478L120.99 99.3417L124.755 86.1562L126.821 87.2898L123.056 100.478Z" fill="#DBCBBC"/>
<path d="M128.558 103.503L126.492 102.366L127.402 99.1724L129.472 100.309L128.558 103.503Z" fill="#5B78E3"/>
<path d="M132.219 105.823L130.153 104.69L134.452 89.6262L136.518 90.7598L132.219 105.823Z" fill="#5B78E3"/>
<path d="M139.517 109.522L137.451 108.385L142.962 89.0671L145.031 90.2039L139.517 109.522Z" fill="#5B78E3"/>
<path d="M143.254 111.573L141.188 110.439L145.088 96.77L147.154 97.9068L143.254 111.573Z" fill="#5B78E3"/>
<path d="M149.647 115.087L147.581 113.95L149.402 107.566L151.472 108.7L149.647 115.087Z" fill="#DBCBBC"/>
<path d="M153.384 117.14L151.318 116.004L157.812 93.2532L159.878 94.3868L153.384 117.14Z" fill="#5B78E3"/>
<path d="M159.931 120.736L157.865 119.599L159.686 113.215L161.752 114.349L159.931 120.736Z" fill="#DBCBBC"/>
<path d="M163.668 122.789L161.602 121.652L167.332 101.565L169.399 102.702L163.668 122.789Z" fill="#5B78E3"/>
<path d="M113.991 95.7307L167.185 124.953" stroke="#2D4973" stroke-width="2.39" stroke-linecap="round" stroke-linejoin="round"/>
<path d="M122.632 63.3054L151.836 79.3516" stroke="#C8CFE6" stroke-width="2.88" stroke-linecap="round" stroke-linejoin="round"/>
<path d="M121.515 67.2212L131.4 72.6505" stroke="#C8CFE6" stroke-width="2.88" stroke-linecap="round" stroke-linejoin="round"/>
<path d="M246.919 257.128L266.084 252.374L296.741 233.891C298.477 232.845 298.399 230.302 296.603 229.363L281.985 221.729L245.71 247.569L246.919 257.125V257.128Z" fill="#D6DAE6"/>
<path d="M279.809 182.829L289.641 177.095L279.872 171.951L269.974 177.67L279.809 182.829Z" fill="#FFAB66"/>
<path d="M279.809 182.829L279.815 235.941L289.641 230.207V177.095L279.809 182.829Z" fill="#E0853A"/>
<path d="M279.809 182.829L269.974 177.67V198.812V230.782L279.815 235.941L279.809 182.829Z" fill="#F29950"/>
<path d="M263.691 207.721L273.454 201.971L263.716 196.84L253.916 202.574L263.691 207.721Z" fill="#6B83DE"/>
<path d="M263.691 207.721V245.918L273.403 240.187V201.99L263.691 207.721Z" fill="#455AAB"/>
<path d="M253.979 202.555V240.755L263.691 245.917V227.761V225.877V207.721L253.979 202.555Z" fill="#526CCC"/>
<path d="M246.935 235.213L256.735 229.482L246.995 224.351L237.1 230.076L246.935 235.213Z" fill="#D6E5FC"/>
<path d="M237.1 230.075V251.661L247.108 257.144V235.232L237.1 230.075Z" fill="#B8CFF2"/>
<path d="M246.919 235.213V257.128L256.72 251.394V229.482L246.919 235.213Z" fill="#9FB7DB"/>
<path d="M154.627 235.203L114.151 212.676C114.151 212.676 118.88 212.246 124.096 203.428" stroke="#BAC1D6" stroke-width="3.25" stroke-linecap="round" stroke-linejoin="round"/>
</g>
<defs>
<clipPath id="clip0_1021_23892">
<rect width="298" height="257.144" fill="white"/>
</clipPath>
</defs>
</svg>
