<svg width="331" height="293" viewBox="0 0 331 293" fill="none" xmlns="http://www.w3.org/2000/svg">
<g style="mix-blend-mode:multiply">
<path d="M92.1411 110.893C86.9674 107.908 78.5812 107.908 73.4076 110.893C68.2339 113.88 68.2339 118.721 73.4076 121.708C78.5812 124.696 86.9674 124.696 92.1411 121.708C97.3148 118.723 97.3148 113.88 92.1411 110.893ZM76.3249 120.024C72.7629 117.968 72.7629 114.633 76.3249 112.575C79.8868 110.519 85.6618 110.519 89.2265 112.575C92.7885 114.631 92.7885 117.968 89.2265 120.024C85.6645 122.08 79.8868 122.08 76.3249 120.024Z" fill="#F1F1F6"/>
</g>
<path d="M329 203.498C327.662 202.726 325.498 202.726 324.16 203.498C322.824 204.27 322.824 205.522 324.16 206.294C325.498 207.066 327.665 207.066 329 206.294C330.336 205.522 330.336 204.27 329 203.498Z" fill="#F1F1F6"/>
<path d="M317.156 210.335C315.821 209.563 313.654 209.563 312.316 210.335C310.981 211.107 310.981 212.359 312.316 213.13C313.651 213.902 315.818 213.902 317.156 213.13C318.495 212.359 318.495 211.107 317.156 210.335Z" fill="#F1F1F6"/>
<path d="M305.315 217.172C303.979 216.4 301.812 216.4 300.474 217.172C299.136 217.944 299.136 219.195 300.474 219.967C301.81 220.739 303.977 220.739 305.315 219.967C306.65 219.195 306.65 217.944 305.315 217.172Z" fill="#F1F1F6"/>
<path d="M293.475 224.009C292.137 223.237 289.97 223.237 288.634 224.009C287.299 224.781 287.299 226.032 288.634 226.804C289.972 227.576 292.137 227.576 293.475 226.804C294.81 226.032 294.81 224.781 293.475 224.009Z" fill="#F1F1F6"/>
<path d="M281.632 230.846C280.294 230.074 278.13 230.074 276.792 230.846C275.456 231.618 275.456 232.869 276.792 233.641C278.13 234.413 280.294 234.413 281.632 233.641C282.967 232.869 282.967 231.618 281.632 230.846Z" fill="#F1F1F6"/>
<path d="M21.7464 241.063C23.0845 241.835 25.2488 241.835 26.5869 241.063C27.9223 240.291 27.9223 239.04 26.5869 238.268C25.2488 237.496 23.0818 237.496 21.7464 238.268C20.411 239.04 20.411 240.291 21.7464 241.063ZM57.2713 220.553C58.6094 221.325 60.7764 221.325 62.1118 220.553C63.4472 219.781 63.4472 218.529 62.1118 217.757C60.7737 216.985 58.6094 216.985 57.2713 217.757C55.9359 218.529 55.9359 219.781 57.2713 220.553ZM14.7444 245.107C13.4063 244.335 11.242 244.335 9.90389 245.107C8.56849 245.879 8.56849 247.131 9.90389 247.903C11.242 248.675 13.4063 248.675 14.7444 247.903C16.0798 247.131 16.0798 245.879 14.7444 245.107ZM50.2692 224.597C48.9338 223.825 46.7669 223.825 45.4288 224.597C44.0934 225.369 44.0934 226.62 45.4288 227.392C46.7642 228.164 48.9311 228.164 50.2692 227.392C51.6073 226.62 51.6073 225.369 50.2692 224.597ZM38.4267 231.434C37.0913 230.662 34.9243 230.662 33.5862 231.434C32.2481 232.206 32.2481 233.457 33.5862 234.229C34.9216 235.001 37.0886 235.001 38.4267 234.229C39.7621 233.457 39.7621 232.206 38.4267 231.434ZM60.0992 230.272C58.7638 229.5 56.5968 229.5 55.2587 230.272C53.9233 231.043 53.9233 232.295 55.2587 233.067C56.5941 233.839 58.7611 233.839 60.0992 233.067C61.4373 232.295 61.4373 231.043 60.0992 230.272ZM48.2567 237.108C46.9213 236.336 44.7543 236.336 43.4162 237.108C42.0781 237.88 42.0781 239.132 43.4162 239.904C44.7516 240.676 46.9186 240.676 48.2567 239.904C49.5921 239.132 49.5921 237.88 48.2567 237.108ZM24.5743 250.782C23.2362 250.01 21.0719 250.01 19.7338 250.782C18.3984 251.554 18.3984 252.805 19.7338 253.577C21.0719 254.349 23.2362 254.349 24.5743 253.577C25.9097 252.805 25.9097 251.554 24.5743 250.782ZM31.5764 246.738C32.9145 247.51 35.0787 247.51 36.4168 246.738C37.7522 245.966 37.7522 244.714 36.4168 243.942C35.0787 243.17 32.9118 243.17 31.5764 243.942C30.241 244.714 30.241 245.966 31.5764 246.738ZM67.1012 226.227C68.4393 226.999 70.6063 226.999 71.9417 226.227C73.2771 225.455 73.2771 224.204 71.9417 223.432C70.6036 222.66 68.4393 222.66 67.1012 223.432C65.7658 224.204 65.7658 225.455 67.1012 226.227ZM76.9312 231.902C78.2693 232.674 80.4363 232.674 81.7717 231.902C83.1071 231.13 83.1071 229.879 81.7717 229.107C80.4336 228.335 78.2693 228.335 76.9312 229.107C75.5958 229.879 75.5958 231.13 76.9312 231.902ZM69.9291 235.946C68.5937 235.174 66.4268 235.174 65.0886 235.946C63.7533 236.718 63.7533 237.97 65.0886 238.742C66.424 239.514 68.591 239.514 69.9291 238.742C71.2672 237.97 71.2672 236.718 69.9291 235.946ZM58.0866 242.783C56.7512 242.011 54.5842 242.011 53.2461 242.783C51.908 243.555 51.908 244.806 53.2461 245.578C54.5815 246.35 56.7485 246.35 58.0866 245.578C59.422 244.806 59.422 243.555 58.0866 242.783ZM41.4036 252.415C42.7417 253.187 44.906 253.187 46.2441 252.415C47.5795 251.643 47.5795 250.392 46.2441 249.62C44.906 248.848 42.739 248.848 41.4036 249.62C40.0682 250.392 40.0682 251.643 41.4036 252.415ZM34.4016 256.459C33.0634 255.687 30.8992 255.687 29.5611 256.459C28.2257 257.231 28.2257 258.483 29.5611 259.255C30.8992 260.027 33.0634 260.027 34.4016 259.255C35.737 258.483 35.737 257.231 34.4016 256.459Z" fill="#F1F1F6"/>
<g style="mix-blend-mode:multiply">
<path d="M214.088 131.162L222.837 136.214C224.172 136.983 224.004 138.329 222.463 139.22L214.461 143.841C212.92 144.73 210.591 144.827 209.258 144.058L200.509 139.006C199.173 138.234 199.341 136.891 200.883 136.002L208.884 131.381C210.425 130.493 212.755 130.395 214.088 131.167V131.162Z" fill="#F1F1F6"/>
</g>
<g style="mix-blend-mode:multiply">
<path d="M302.546 283.698L308.451 287.106C309.35 287.626 309.239 288.533 308.199 289.135L302.801 292.252C301.76 292.851 300.189 292.916 299.29 292.399L293.385 288.991C292.486 288.471 292.597 287.564 293.637 286.962L299.035 283.844C300.076 283.246 301.647 283.181 302.546 283.698Z" fill="#F1F1F6"/>
</g>
<g style="mix-blend-mode:multiply">
<path d="M30.2676 283.698L36.1726 287.106C37.0719 287.626 36.9609 288.533 35.9207 289.135L30.5222 292.252C29.4821 292.851 27.911 292.916 27.0117 292.399L21.1067 288.991C20.2074 288.471 20.3185 287.564 21.3586 286.962L26.7571 283.844C27.7973 283.246 29.3683 283.181 30.2676 283.698Z" fill="#F1F1F6"/>
</g>
<path d="M89.748 60.451C89.488 60.451 89.2307 60.3264 89.0736 60.0934C88.8217 59.7223 88.9192 59.2158 89.2903 58.9639C94.2364 55.6105 95.133 44.4181 95.9239 34.5448C96.6147 25.8985 97.1618 19.0699 100.217 17.5421C100.618 17.3417 101.106 17.5042 101.309 17.9051C101.509 18.306 101.347 18.7936 100.946 18.994C98.7085 20.1127 98.118 27.5157 97.5437 34.6721C96.7257 44.9111 95.7966 56.5152 90.2031 60.3074C90.0623 60.4022 89.9052 60.4483 89.748 60.4483V60.451Z" fill="#2955C7"/>
<path d="M88.5322 63.8153L92.3298 61.6239V57.2385L88.5322 59.4326V63.8153Z" fill="#7FCCF8"/>
<path d="M88.532 63.8153L84.7344 61.6239V57.2385L88.532 59.4326V63.8153Z" fill="#4BADD8"/>
<path d="M88.532 59.4325L84.7344 57.2385L88.532 55.0471L92.3296 57.2385L88.532 59.4325Z" fill="#7FD3F8"/>
<path d="M83.9727 62.29C83.5827 62.29 83.2007 62.2359 82.8269 62.1248C79.7227 61.2174 77.7833 56.7047 75.9061 52.3409C74.2809 48.5595 72.5988 44.6509 70.5185 43.9926C69.8521 43.7814 69.1343 43.9222 68.3217 44.4233C67.9398 44.659 67.4387 44.5398 67.203 44.1579C66.9674 43.7759 67.0865 43.2748 67.4685 43.0392C68.6874 42.2861 69.8792 42.0857 71.0061 42.4433C73.7961 43.3236 75.5459 47.3921 77.3959 51.6989C79.1241 55.7187 80.9091 59.8739 83.2793 60.5646C84.1461 60.8192 85.0941 60.5863 86.1722 59.8549C86.5433 59.603 87.0498 59.7005 87.3017 60.0716C87.5536 60.4427 87.4561 60.9492 87.085 61.2011C86.0151 61.9271 84.9722 62.29 83.97 62.29H83.9727Z" fill="#2955C7"/>
<path d="M68.7432 47.6984L72.5381 45.507V41.1216L68.7432 43.3156V47.6984Z" fill="#7FCCF8"/>
<path d="M68.7429 47.6984L64.9453 45.507V41.1216L68.7429 43.3156V47.6984Z" fill="#4BADD8"/>
<path d="M68.7429 43.3156L64.9453 41.1215L68.7429 38.9302L72.5379 41.1215L68.7429 43.3156Z" fill="#7FD3F8"/>
<path d="M56.883 82.015C56.5904 82.015 56.306 81.8552 56.1624 81.5762C55.9566 81.1781 56.111 80.6878 56.5092 80.4792C58.8332 79.2684 59.3939 72.3395 59.9357 65.6381C60.6833 56.3662 61.458 46.7773 66.4177 43.7164C66.7996 43.4808 67.3007 43.6 67.5364 43.9819C67.772 44.3638 67.6528 44.8649 67.2709 45.1006C63.0128 47.7281 62.2381 57.3142 61.5555 65.7681C60.9244 73.5638 60.3826 80.295 57.2595 81.9202C57.1403 81.9825 57.0103 82.0123 56.8857 82.0123L56.883 82.015Z" fill="#2955C7"/>
<path d="M56.4824 86.1295L60.28 83.9354V79.5527L56.4824 81.7441V86.1295Z" fill="#7FCCF8"/>
<path d="M56.4824 86.1295L52.6875 83.9354V79.5527L56.4824 81.7441V86.1295Z" fill="#4BADD8"/>
<path d="M56.4824 81.744L52.6875 79.5527L56.4824 77.3613L60.28 79.5527L56.4824 81.744Z" fill="#7FD3F8"/>
<path d="M192.574 30.4599C192.574 33.4693 194.706 37.164 197.314 38.6673L228.866 56.8834C231.471 58.3895 233.603 57.157 233.603 54.1476V29.008C233.603 25.9986 231.471 22.3039 228.866 20.8006L197.314 2.58444C194.709 1.07839 192.574 2.31086 192.574 5.32025V30.4599Z" fill="url(#paint0_linear_1026_38241)"/>
<path d="M233.605 54.1503V29.0107C233.605 26.0013 231.473 22.3066 228.868 20.8033L197.314 2.58442C196.052 1.85577 194.903 1.77451 194.05 2.21874L195.567 1.34111C195.594 1.32486 195.621 1.30861 195.651 1.29236L195.689 1.27069C196.539 0.826458 197.69 0.90772 198.953 1.63907L230.506 19.8552C233.112 21.3613 235.244 25.0533 235.244 28.0626V53.2023C235.244 54.6541 234.746 55.6862 233.941 56.2008L233.919 56.2144C233.873 56.2442 233.825 56.2713 233.776 56.2956L232.302 57.1462C233.107 56.6288 233.605 55.5941 233.605 54.1449V54.1503Z" fill="url(#paint1_linear_1026_38241)"/>
<path style="mix-blend-mode:screen" d="M228.865 56.8861C231.471 58.3921 233.603 57.1596 233.603 54.1503V35.3815C229.659 35.2976 226.39 43.0716 223.036 41.2026C218.025 38.4045 218.998 24.4085 214.154 22.209C210.294 20.4565 208.815 34.1166 205.113 32.6701C201.039 31.0801 200.787 19.8254 197.076 18.4033C195.364 17.7478 193.349 20.3238 192.571 23.2275V30.4625C192.571 33.4719 194.703 37.1666 197.312 38.6699L228.863 56.8861H228.865Z" fill="url(#paint2_linear_1026_38241)"/>
<path d="M309.586 78.0954C313.037 80.0863 315.856 84.9755 315.859 88.9601V150.448C315.856 154.43 313.034 156.06 309.586 154.07L228.43 107.214C224.979 105.221 222.156 100.334 222.156 96.3494V34.8615C222.156 30.877 224.979 29.2463 228.427 31.2372L309.588 78.0954H309.586Z" fill="url(#paint3_linear_1026_38241)"/>
<path d="M307.79 79.4228C311.11 81.3405 313.825 86.0429 313.825 89.8757V149.535C313.822 153.368 311.108 154.936 307.787 153.019L228.188 107.063C224.867 105.145 222.153 100.442 222.153 96.6096V36.95C222.153 33.1172 224.87 31.5461 228.188 33.4639L307.792 79.4228H307.79Z" fill="white"/>
<path d="M315.858 153.439V153.433C317.064 152.807 317.825 151.385 317.825 149.321V87.8333C317.825 83.8488 315.002 78.9595 311.551 76.9686L230.395 30.1132C228.589 29.0703 226.961 29.027 225.815 29.7881L224.157 30.7362C225.279 30.1755 226.777 30.292 228.421 31.2427L309.582 78.1009C313.033 80.0918 315.853 84.981 315.856 88.9656V150.454C315.856 152.42 315.162 153.812 314.052 154.479L315.858 153.441V153.439Z" fill="url(#paint4_linear_1026_38241)"/>
<path d="M299.398 95.5288C300.753 96.3116 301.85 95.6778 301.85 94.1149C301.85 92.5519 300.753 90.6504 299.398 89.8703V87.7087C301.785 89.0875 303.721 92.4382 303.721 95.1956C303.721 97.9531 301.785 99.0691 299.398 97.6904C297.012 96.3116 295.075 92.961 295.075 90.2035L296.947 91.2843C296.947 92.8472 298.044 94.7487 299.398 95.5288Z" fill="url(#paint5_linear_1026_38241)"/>
<path d="M299.398 87.7088V89.8704C298.044 89.0876 296.947 89.7214 296.947 91.2843L295.075 90.2036C295.075 87.4461 297.012 86.3301 299.398 87.7088Z" fill="#F1F1F6"/>
<path d="M290.316 87.4569C290.316 85.894 289.219 83.9925 287.864 83.2123V81.0508C290.251 82.4295 292.187 85.7802 292.187 88.5377C292.187 89.9164 291.703 90.8861 290.92 91.3385L289.598 89.0442C290.042 88.7896 290.318 88.2397 290.318 87.4569H290.316Z" fill="url(#paint6_linear_1026_38241)"/>
<path d="M283.542 83.5456C283.542 80.7881 285.476 79.6721 287.865 81.0509V83.2124C286.511 82.4323 285.414 83.0634 285.414 84.6264C285.414 86.1893 286.511 88.0908 287.865 88.8709C288.542 89.261 289.154 89.2989 289.596 89.0443L290.918 91.3386C290.135 91.7882 289.057 91.7232 287.862 91.0352C285.476 89.6565 283.539 86.3058 283.539 83.5483L283.542 83.5456Z" fill="#F1F1F6"/>
<path d="M276.332 82.2127C277.686 82.9955 278.783 82.3616 278.783 80.7987C278.783 79.2358 277.686 77.3342 276.332 76.5541V74.3926C278.718 75.7713 280.655 79.122 280.655 81.8795C280.655 84.637 278.718 85.7529 276.332 84.3742C275.113 83.6699 274.016 82.451 273.228 81.0614L274.552 80.2976C274.999 81.1021 275.63 81.8063 276.332 82.2127Z" fill="url(#paint7_linear_1026_38241)"/>
<path d="M276.331 74.39V76.5515C274.977 75.7687 273.88 76.4026 273.88 77.9655C273.88 78.7185 274.137 79.5501 274.551 80.295L273.227 81.0588C272.474 79.7261 272.008 78.2336 272.008 76.8847C272.008 74.1272 273.945 73.0112 276.331 74.39Z" fill="#F1F1F6"/>
<path d="M301.105 139.768L271.363 122.597C269.348 121.435 267.709 118.596 267.709 116.27V93.286C267.709 90.9592 269.348 90.0139 271.363 91.1759L301.105 108.347C303.12 109.509 304.759 112.347 304.759 114.674V137.658C304.759 139.984 303.12 140.93 301.105 139.768ZM271.363 92.2594C269.865 91.3953 268.649 92.0969 268.649 93.8278V116.811C268.649 118.539 269.868 120.65 271.363 121.514L301.105 138.684C302.603 139.548 303.819 138.847 303.819 137.116V114.132C303.819 112.404 302.6 110.294 301.105 109.43L271.363 92.2594Z" fill="#F1F1F6"/>
<path d="M274.548 118.9L273.143 118.087V105.657L274.548 106.469V118.9Z" fill="#7FD3F8"/>
<path d="M277.647 120.688L276.238 119.875V101.388L277.647 102.201V120.688Z" fill="#807DFB"/>
<path d="M280.743 122.475L279.335 121.663V114.216L280.743 115.029V122.475Z" fill="#7FD3F8"/>
<path d="M283.839 124.263L282.434 123.45V111.02L283.839 111.833V124.263Z" fill="#807DFB"/>
<path d="M286.938 126.051L285.529 125.238V111.145L286.938 111.957V126.051Z" fill="#7FD3F8"/>
<path d="M290.035 127.838L288.629 127.026V111.548L290.035 112.361V127.838Z" fill="#807DFB"/>
<path d="M293.132 129.629L291.724 128.816V116.925L293.132 117.738V129.629Z" fill="#7FD3F8"/>
<path d="M296.229 131.417L294.82 130.604V122.564L296.229 123.377V131.417Z" fill="#807DFB"/>
<path d="M299.326 133.204L297.92 132.392V113.731L299.326 114.544V133.204Z" fill="#7FD3F8"/>
<path d="M252.501 83.6428L246.542 66.2148L240.583 76.7626L252.501 83.6428Z" fill="#F1F1F6"/>
<path d="M239.592 78.5205L236.165 84.5853L256.919 96.5687L253.493 86.5464L239.592 78.5205Z" fill="#9ADBFF"/>
<path d="M261.34 109.492L257.913 99.4697L235.174 86.3406L231.747 92.4081L261.34 109.492Z" fill="#F1F1F6"/>
<path d="M230.753 94.1633L227.332 100.223L265.753 122.404L262.331 112.396L230.753 94.1633Z" fill="#F1F1F6"/>
<path d="M241.992 53.7739L227.332 45.3092V43.4131L241.992 51.8778V53.7739Z" fill="#DFE4F4"/>
<path d="M241.992 57.4307L227.332 48.9659V47.0698L241.992 55.5346V57.4307Z" fill="#DFE4F4"/>
<path d="M238.004 58.785L227.332 52.6227V50.7266L238.004 56.8889V58.785Z" fill="#DFE4F4"/>
<path style="mix-blend-mode:multiply" d="M271.4 180.734V171.804H228.81L222.87 176.211L231.313 176.251L230.628 180.734H271.4Z" fill="url(#paint8_linear_1026_38241)"/>
<path d="M219.889 174.743C219.889 170.891 222.329 170.78 222.329 170.78C222.329 170.78 223.651 170.78 225.799 169.886C227.917 169.008 230.905 169.347 229.236 172.427C229.22 172.462 229.201 172.5 229.18 172.54C229.077 172.706 228.901 172.863 228.638 173.015L223.304 176.143C222.492 176.609 219.908 175.536 219.891 174.743H219.889Z" fill="url(#paint9_linear_1026_38241)"/>
<path d="M219.901 174.396C219.947 175.187 222.494 176.241 223.301 175.78L228.634 172.654C228.81 172.551 229.117 172.348 229.385 172.107C229.336 172.21 229.293 172.313 229.233 172.43C229.217 172.465 229.198 172.503 229.176 172.543C229.073 172.709 228.897 172.866 228.634 173.017L223.301 176.146C222.54 176.579 220.226 175.666 219.92 174.897C219.907 174.84 219.896 174.783 219.896 174.743C219.888 174.624 219.896 174.515 219.901 174.399V174.396Z" fill="#131147"/>
<path d="M221.489 169.935C222.177 169.935 224.076 170.55 224.076 170.55C224.076 170.55 224.092 170.886 224.29 171.175C224.314 171.203 224.336 171.23 224.357 171.259C224.834 171.59 225.319 172.115 224.189 172.822C223.263 173.402 222.51 173.034 222.152 172.679C222.009 172.408 221.795 172.107 221.497 171.934C221.191 171.758 221.001 171.677 220.866 171.668C220.866 171.649 220.86 171.612 220.86 171.612C220.86 171.612 221.202 169.935 221.489 169.935Z" fill="#FACFA7"/>
<path d="M221.338 129.851C223.973 129.9 228.681 130.404 231.314 130.452C230.333 138.37 229.83 144.123 228.51 151.789C227.096 159.241 225.504 164.479 224.111 170.682C223.602 171.839 221.609 171.522 221.135 170.411C221.663 163.195 220.474 157.618 222.169 151.028C222.02 147.29 222.603 142.745 222.001 141.054C220.615 137.148 220.615 133.486 221.338 129.851Z" fill="url(#paint10_linear_1026_38241)"/>
<path d="M227.646 179.223C227.646 175.371 230.087 175.26 230.087 175.26C230.087 175.26 231.409 175.26 233.557 174.366C235.675 173.489 238.663 173.827 236.994 176.907C236.978 176.942 236.959 176.98 236.937 177.021C236.834 177.186 236.658 177.343 236.396 177.495L231.062 180.623C230.25 181.089 227.665 180.017 227.649 179.223H227.646Z" fill="url(#paint11_linear_1026_38241)"/>
<path d="M227.659 178.876C227.705 179.667 230.251 180.721 231.059 180.26L236.392 177.135C236.568 177.032 236.874 176.828 237.142 176.587C237.094 176.69 237.05 176.791 236.991 176.91C236.975 176.945 236.956 176.983 236.934 177.024C236.831 177.189 236.655 177.346 236.392 177.498L231.059 180.626C230.298 181.06 227.984 180.147 227.678 179.377C227.665 179.321 227.654 179.264 227.654 179.223C227.646 179.104 227.654 178.995 227.659 178.879V178.876Z" fill="#131147"/>
<path d="M229.024 174.412C229.712 174.412 231.833 175.027 231.833 175.027C231.833 175.027 231.85 175.363 232.047 175.653C232.072 175.68 232.093 175.707 232.115 175.737C232.592 176.067 233.077 176.593 231.947 177.3C231.021 177.879 230.268 177.511 229.91 177.156C229.767 176.885 229.553 176.585 229.255 176.411C228.949 176.235 228.759 176.154 228.624 176.146C228.624 176.127 228.618 176.089 228.618 176.089C228.618 176.089 228.737 174.412 229.024 174.412Z" fill="#FACFA7"/>
<path d="M224.883 133.725C227.518 133.773 233.74 134.396 236.373 134.445C238.044 143.766 237.584 148.598 236.268 156.267C234.854 163.718 233.261 168.957 231.869 175.16C231.359 176.317 229.192 175.878 228.721 174.767C229.07 168.337 228.233 162.096 229.926 155.505C229.62 151.624 229.038 145.819 228.553 144.508C227.629 142.019 224.401 139.072 224.883 133.725Z" fill="url(#paint12_linear_1026_38241)"/>
<path d="M222.258 106.621C219.568 109.216 215.637 121.419 220.659 128.239C223.509 124.491 222.258 106.621 222.258 106.621Z" fill="#7FCCF8"/>
<path d="M247.303 93.9009C245.708 97.2733 244.142 102.282 243.243 103.251C241.645 104.977 237.728 106.115 233.846 106.84C233.44 106.916 232.505 106.981 232.383 106.93C231.947 106.748 231.406 106.472 230.753 105.96C228.808 104.427 227.754 103.56 226.82 103.368C219.1 101.794 220.099 115.392 220.744 130.054C221.34 133.955 222.172 134.366 223.594 135.203C227.042 137.045 234.819 138.644 236.834 134.748C235.423 131.262 234.215 126.081 234.12 122.286C234.06 119.878 235.74 117.96 236.303 115.262C236.23 114.617 236.092 114.046 235.918 113.52C241.585 110.367 245.794 107.618 246.382 106.133C247.807 102.536 249.034 98.9093 249.725 94.9654L247.308 93.8982L247.303 93.9009Z" fill="#6481E7"/>
<path d="M247.734 93.2292L247.726 93.2509C247.726 92.2107 247.942 91.604 248.346 91.4252C248.433 91.176 248.525 90.916 248.611 90.6695C249.129 89.2176 250.754 87.9716 251.101 88.3183C251.309 88.5269 250.483 89.1661 250.047 89.8569C249.76 90.3119 249.757 90.5665 249.684 90.9458C249.684 90.9458 251.629 91.1273 251.629 92.7444C251.629 94.0581 250.919 93.538 250.919 93.2807C250.418 94.6107 249.822 93.8251 249.592 94.9086L247.487 93.9768C247.487 93.9768 247.585 93.6762 247.737 93.2265L247.734 93.2292Z" fill="#FCD1A9"/>
<path d="M233.944 97.4331C233.486 95.0656 230.983 91.3357 226.774 92.2404C222.708 93.1154 221.603 95.7537 221.839 99.8492C222.001 102.666 220.836 110.906 214.498 111.345C217.889 115.925 237.165 114.078 233.947 97.4331H233.944Z" fill="#20196F"/>
<path d="M222.532 106.537C225.27 101.13 223.187 97.4168 224.637 94.9166C225.471 93.481 227.941 91.5226 231.487 93.37C230.303 92.3975 228.721 91.8206 226.771 92.2404C222.705 93.1153 221.6 95.7536 221.836 99.8492C221.998 102.666 220.834 110.906 214.495 111.345C217.039 112.049 220.804 109.947 222.532 106.537Z" fill="url(#paint13_linear_1026_38241)"/>
<path d="M236.301 115.262C236.227 114.617 236.089 114.046 235.916 113.52C234.705 114.731 233.651 115.793 233.294 116.855C232.936 117.917 231.696 121.636 232.758 123.702C233.819 125.769 234.965 133.781 234.865 136.534C235.715 136.152 236.403 135.575 236.829 134.749C235.417 131.262 234.209 126.081 234.115 122.286L236.298 115.262H236.301Z" fill="#7FD3F8"/>
<path style="mix-blend-mode:multiply" d="M161.735 247.377C156.64 244.435 149.963 242.965 143.286 242.965C136.609 242.965 129.932 244.435 124.837 247.377C122.575 248.683 120.817 250.17 119.557 251.757C118.972 252.497 118.493 253.258 118.124 254.035H110.421V269.729H126.852L143.283 258.028H169.373C169.373 254.173 166.827 250.319 161.732 247.377H161.735Z" fill="url(#paint14_linear_1026_38241)"/>
<path style="mix-blend-mode:multiply" d="M149.454 260.717L133.022 272.419C137.798 274.659 143.624 275.78 149.454 275.78C156.131 275.78 162.808 274.31 167.903 271.368C172.998 268.426 175.544 264.572 175.544 260.717H149.454Z" fill="url(#paint15_linear_1026_38241)"/>
<path d="M100.765 245.763C100.765 249.617 103.311 253.472 108.406 256.413C109.053 256.787 109.728 257.137 110.424 257.464L126.855 245.763H100.765Z" fill="#807DFB"/>
<path d="M100.765 245.763H126.855L103.129 239.492C101.556 241.477 100.765 243.62 100.765 245.763Z" fill="#423EAF"/>
<path d="M145.304 235.112C140.209 232.17 133.532 230.699 126.855 230.699C120.178 230.699 113.501 232.17 108.406 235.112C106.144 236.418 104.387 237.905 103.127 239.492L126.853 245.763H152.943C152.943 241.908 150.397 238.054 145.302 235.112H145.304Z" fill="#F1F1F6"/>
<path d="M110.424 258.028V257.464C109.728 257.137 109.053 256.787 108.406 256.413C103.311 253.472 100.765 249.617 100.765 245.763V258.028C100.765 261.882 103.311 265.737 108.406 268.678C109.053 269.052 109.728 269.402 110.424 269.729V258.028Z" fill="#5652CC"/>
<path d="M126.855 258.028L110.424 269.729V257.464L126.855 245.763V258.028Z" fill="#423EAF"/>
<path d="M152.945 245.763H126.854V258.028H152.945V245.763Z" fill="#CED3F8"/>
<path d="M135.235 248.45L118.804 260.151C123.579 262.392 129.406 263.513 135.235 263.513C141.912 263.513 148.589 262.042 153.684 259.1C158.779 256.159 161.325 252.304 161.325 248.45H135.235Z" fill="#7FD3F8"/>
<path d="M153.684 259.103C148.589 262.045 141.912 263.516 135.235 263.516C129.406 263.516 123.579 262.394 118.804 260.154V272.419C123.579 274.659 129.406 275.781 135.235 275.781C141.912 275.781 148.589 274.31 153.684 271.368C158.779 268.426 161.325 264.572 161.325 260.717V248.452C161.325 252.307 158.779 256.161 153.684 259.103Z" fill="#75A3E9"/>
<path style="mix-blend-mode:multiply" d="M295.071 185.927C290.599 183.345 283.345 183.345 278.873 185.927L251.466 201.748C246.994 204.33 246.994 208.517 251.466 211.101C255.938 213.683 263.192 213.683 267.665 211.101L295.071 195.28C299.543 192.698 299.543 188.511 295.071 185.927Z" fill="url(#paint16_linear_1026_38241)"/>
<path d="M290.745 182.649C286.273 180.068 279.019 180.068 274.547 182.649L247.14 198.471C242.668 201.052 242.668 205.24 247.14 207.824C251.612 210.405 258.866 210.405 263.338 207.824L290.745 192.002C295.217 189.421 295.217 185.233 290.745 182.649Z" fill="#F6F6FB"/>
<path d="M250.204 200.242C252.985 198.636 257.493 198.636 260.275 200.242C263.056 201.848 263.056 204.451 260.275 206.055C257.493 207.661 252.985 207.661 250.204 206.055C247.422 204.449 247.422 201.846 250.204 200.242Z" fill="#362E94"/>
<path d="M263.908 192.33C266.69 190.724 271.197 190.724 273.979 192.33C276.761 193.936 276.761 196.54 273.979 198.143C271.197 199.749 266.69 199.749 263.908 198.143C261.126 196.537 261.126 193.934 263.908 192.33Z" fill="#362E94"/>
<path d="M277.611 184.418C280.393 182.812 284.9 182.812 287.682 184.418C290.464 186.024 290.464 188.627 287.682 190.231C284.9 191.837 280.393 191.837 277.611 190.231C274.829 188.624 274.829 186.021 277.611 184.418Z" fill="#362E94"/>
<path d="M294.098 187.324C294.098 189.017 292.98 190.71 290.742 192L263.336 207.821C258.863 210.403 251.609 210.403 247.137 207.821C244.9 206.529 243.781 204.836 243.781 203.146V206.502H243.787C243.822 208.168 244.932 209.829 247.135 211.099C251.607 213.68 258.861 213.68 263.333 211.099L290.74 195.277C292.942 194.007 294.052 192.346 294.088 190.681H294.093V187.324H294.098Z" fill="url(#paint17_linear_1026_38241)"/>
<path style="mix-blend-mode:multiply" d="M283.079 191.447H291.595C294.927 189.042 294.927 185.607 291.595 183.202H283.079V191.447Z" fill="url(#paint18_linear_1026_38241)"/>
<path style="mix-blend-mode:multiply" d="M269.379 191.114V199.359H278.003L290.748 192.002C291.227 191.726 291.647 191.425 292.024 191.116H269.382L269.379 191.114Z" fill="url(#paint19_linear_1026_38241)"/>
<path style="mix-blend-mode:multiply" d="M278.578 199.026H255.676V207.271H264.3L278.578 199.026Z" fill="url(#paint20_linear_1026_38241)"/>
<path d="M275.524 168.201V187.327C275.524 188.381 276.221 189.437 277.616 190.242C280.403 191.853 284.924 191.853 287.714 190.242C289.106 189.437 289.805 188.381 289.805 187.327V168.201H275.524Z" fill="#0695FC"/>
<path d="M277.616 165.283C280.403 163.672 284.924 163.672 287.714 165.283C289.106 166.088 289.805 167.144 289.805 168.198C289.805 169.252 289.109 170.308 287.714 171.113C284.924 172.724 280.403 172.724 277.616 171.113C276.221 170.308 275.524 169.252 275.524 168.198C275.524 167.144 276.221 166.088 277.616 165.283Z" fill="#7FD3F8"/>
<path d="M261.821 181.899V195.237C261.821 196.29 262.517 197.347 263.912 198.151C266.7 199.763 271.221 199.763 274.011 198.151C275.403 197.344 276.102 196.29 276.102 195.237V181.899H261.821Z" fill="url(#paint21_linear_1026_38241)"/>
<path d="M263.912 178.981C266.7 177.37 271.221 177.37 274.011 178.981C275.403 179.786 276.102 180.842 276.102 181.896C276.102 182.95 275.406 184.006 274.011 184.811C271.221 186.422 266.7 186.422 263.912 184.811C262.52 184.006 261.821 182.95 261.821 181.896C261.821 180.842 262.517 179.786 263.912 178.981Z" fill="#807DFB"/>
<path d="M248.117 195.236V203.146C248.117 204.199 248.813 205.256 250.208 206.06C252.996 207.672 257.516 207.672 260.306 206.06C261.699 205.253 262.398 204.199 262.398 203.146V195.236H248.117Z" fill="url(#paint22_linear_1026_38241)"/>
<path d="M250.208 192.322C252.996 190.71 257.516 190.71 260.306 192.322C261.699 193.126 262.398 194.183 262.398 195.236C262.398 196.29 261.701 197.346 260.306 198.151C257.516 199.763 252.996 199.763 250.208 198.151C248.816 197.346 248.117 196.29 248.117 195.236C248.117 194.183 248.813 193.126 250.208 192.322Z" fill="#E8ECF7"/>
<path style="mix-blend-mode:multiply" d="M82.7734 206.47L266.33 175.829L174.946 123.504L82.7734 206.47Z" fill="url(#paint23_linear_1026_38241)"/>
<path style="mix-blend-mode:multiply" d="M139.111 218.57L266.329 194.933L195.902 156.031L139.111 218.57Z" fill="url(#paint24_linear_1026_38241)"/>
<path style="mix-blend-mode:multiply" d="M195.451 230.67L272.834 215.552L216.861 188.557L195.451 230.67Z" fill="url(#paint25_linear_1026_38241)"/>
<path d="M188.917 145.188L174.946 123.504L110.08 68.8777L135.845 100.494L188.917 145.188Z" fill="#5652CC"/>
<path d="M82.7734 206.47L135.845 100.494L188.917 145.188L82.7734 206.47Z" fill="#423EAF"/>
<path d="M82.7732 206.47L135.845 100.494L110.08 68.8777L45.2168 198.403L82.7732 206.47Z" fill="#6B67E9"/>
<path d="M148.728 116.302L174.493 147.918L209.874 177.714L195.903 156.031L148.728 116.302Z" fill="#BBC0E6"/>
<path d="M139.111 218.57L174.493 147.918L209.874 177.714L139.111 218.57Z" fill="#ABB2DA"/>
<path d="M139.111 218.569L101.552 210.503L148.727 116.302L174.492 147.918L139.111 218.569Z" fill="#CED3F8"/>
<path d="M230.829 210.24L216.86 188.557L187.376 163.726L213.141 195.342L230.829 210.24Z" fill="#4BADD8"/>
<path d="M195.451 230.669L213.142 195.342L230.83 210.24L195.451 230.669Z" fill="#7FCCF8"/>
<path d="M195.451 230.669L213.141 195.342L187.376 163.726L157.892 222.603L195.451 230.669Z" fill="#7FD3F8"/>
<path d="M237.815 221.083L226.023 211.15L251.786 242.769L237.815 221.083Z" fill="#20196F"/>
<path d="M214.229 234.703L226.023 211.15L251.786 242.769L214.229 234.703Z" fill="#423EAF"/>
<path style="mix-blend-mode:multiply" d="M265.868 275.012L253.284 267.779C252.03 267.053 250.047 267.053 248.793 267.779L236.205 275.009C234.951 275.732 234.951 276.919 236.205 277.642L245.653 284.414V285.416H251C251.826 285.416 252.653 285.234 253.281 284.874L265.866 277.642C267.12 276.919 267.12 275.732 265.866 275.009L265.868 275.012Z" fill="url(#paint26_linear_1026_38241)"/>
<path d="M247.517 281.518C246.262 282.241 244.209 282.241 242.955 281.518L230.37 274.286C229.116 273.562 229.116 272.376 230.37 271.653L242.958 264.42C244.212 263.697 246.265 263.697 247.519 264.42L260.104 271.653C261.358 272.376 261.358 273.562 260.104 274.286L247.519 281.518H247.517Z" fill="#F6F6FB"/>
<path d="M230.37 274.286L242.955 281.518C244.209 282.241 246.262 282.241 247.516 281.518L260.104 274.286C260.675 273.955 260.984 273.527 261.033 273.094V274.703V276.231C261.041 276.309 261.041 276.385 261.033 276.463V276.472C260.984 276.905 260.675 277.333 260.104 277.663L247.516 284.896C246.262 285.619 244.209 285.619 242.955 284.896L230.37 277.663C229.731 277.295 229.422 276.807 229.433 276.323V275.621V272.972C229.433 273.449 229.747 273.925 230.373 274.288L230.37 274.286Z" fill="url(#paint27_linear_1026_38241)"/>
<path d="M238.567 275.35V269.394H240.984V273.958H254.329V275.35H238.567Z" fill="#DFE4F4"/>
<path style="mix-blend-mode:multiply" d="M61.0982 162.819H28.6396L39.6912 169.2L28.6396 175.582H61.0982L72.1498 169.2L61.0982 162.819Z" fill="url(#paint28_linear_1026_38241)"/>
<path style="mix-blend-mode:multiply" d="M44.9134 171.045H14.3184L25.3726 177.427L14.3184 183.809H44.9134L55.9649 177.427L44.9134 171.045Z" fill="url(#paint29_linear_1026_38241)"/>
<path style="mix-blend-mode:multiply" d="M27.2795 179.271H0L11.0543 185.656L0 192.038H27.2795L38.3311 185.656L27.2795 179.271Z" fill="url(#paint30_linear_1026_38241)"/>
<path style="mix-blend-mode:multiply" d="M75.4156 154.592H42.957L54.0113 160.974L42.957 167.356H75.4156L86.4699 160.974L75.4156 154.592Z" fill="url(#paint31_linear_1026_38241)"/>
<path d="M31.9033 130.244L42.9576 136.625V167.353L31.9033 160.971V130.244Z" fill="#CED2F4"/>
<path d="M54.0096 130.244L42.958 136.625V167.353L54.0096 160.971V130.244Z" fill="#BBBFE2"/>
<path d="M42.9576 123.862L31.9033 130.244L42.9576 136.625L54.0092 130.244L42.9576 123.862Z" fill="#F5F5FA"/>
<path d="M31.9033 130.244L42.9549 136.625V149.042L31.9033 142.66V130.244Z" fill="#4BADD8"/>
<path d="M54.0094 130.244L42.9551 136.625V149.042L54.0094 142.66V130.244Z" fill="#7FCCF8"/>
<path d="M42.9549 123.862L31.9033 130.244L42.9549 136.625L54.0092 130.244L42.9549 123.862Z" fill="#7FD3F8"/>
<path d="M17.585 144.061L28.6365 150.443V175.582L17.585 169.201V144.061Z" fill="#CED2F4"/>
<path d="M39.691 144.061L28.6367 150.443V175.582L39.691 169.201V144.061Z" fill="#BBBFE2"/>
<path d="M28.6365 137.682L17.585 144.061L28.6365 150.443L39.6908 144.061L28.6365 137.682Z" fill="#F5F5FA"/>
<path d="M17.585 144.061L28.6365 150.443V157.355L17.585 150.974V144.061Z" fill="#4BADD8"/>
<path d="M39.691 144.061L28.6367 150.443V157.355L39.691 150.974V144.061Z" fill="#7FCCF8"/>
<path d="M28.6365 137.679L17.585 144.061L28.6365 150.443L39.6908 144.061L28.6365 137.679Z" fill="#7FD3F8"/>
<path d="M3.26367 137.606L14.318 143.988V183.809L3.26367 177.427V137.606Z" fill="#5652CA"/>
<path d="M25.3726 137.671L14.3184 144.05V183.809L25.3726 177.427V137.671Z" fill="#423EAD"/>
<path d="M14.318 131.352L3.26367 137.733L14.318 144.115L25.3722 137.733L14.318 131.352Z" fill="#6B67E7"/>
<path style="mix-blend-mode:multiply" d="M314.666 255.915C312.096 254.43 308.677 253.748 305.321 253.848H295.529V254.709C294.529 255.026 293.587 255.427 292.744 255.915C287.958 258.699 287.985 263.207 292.801 265.991C293.63 266.471 294.554 266.861 295.526 267.172V268.071H306.367C309.403 268.02 312.41 267.332 314.72 265.991C319.507 263.207 319.482 258.697 314.663 255.915H314.666Z" fill="url(#paint32_linear_1026_38241)"/>
<path d="M287.384 265.994C284.959 264.593 283.746 262.757 283.754 260.92L283.765 253.731C283.759 255.568 284.97 257.404 287.394 258.805C292.213 261.587 299.998 261.587 304.784 258.805C307.163 257.421 308.355 255.614 308.36 253.802L308.349 260.991C308.344 262.803 307.155 264.61 304.776 265.994C299.99 268.776 292.202 268.776 287.386 265.994H287.384Z" fill="url(#paint33_linear_1026_38241)"/>
<path d="M287.394 258.843C282.578 256.061 282.551 251.551 287.337 248.769C292.123 245.987 299.914 245.987 304.73 248.769C309.549 251.551 309.573 256.061 304.784 258.843C299.998 261.622 292.213 261.622 287.394 258.843Z" fill="#F6F6FB"/>
<g style="mix-blend-mode:multiply">
<path d="M293.429 255.295C294.924 256.159 297.349 256.159 298.844 255.295C300.339 254.43 300.339 253.03 298.844 252.169L300.911 250.974C303.549 252.496 303.549 254.967 300.911 256.489C298.272 258.011 293.995 258.011 291.36 256.489C288.721 254.967 288.721 252.496 291.36 250.974L293.429 252.169C291.934 253.033 291.934 254.433 293.429 255.295Z" fill="url(#paint34_linear_1026_38241)"/>
<path d="M300.912 250.974L298.846 252.169C297.35 251.304 294.926 251.304 293.431 252.169L291.361 250.974C294 249.452 298.277 249.452 300.912 250.974Z" fill="#F1F1F6"/>
</g>
<defs>
<linearGradient id="paint0_linear_1026_38241" x1="237.23" y1="22.8375" x2="192.255" y2="35.6877" gradientUnits="userSpaceOnUse">
<stop stop-color="#362E94"/>
<stop offset="1" stop-color="#807DFB"/>
</linearGradient>
<linearGradient id="paint1_linear_1026_38241" x1="238.029" y1="22.3202" x2="201.539" y2="32.746" gradientUnits="userSpaceOnUse">
<stop stop-color="#20196F"/>
<stop offset="1" stop-color="#5652CC"/>
</linearGradient>
<linearGradient id="paint2_linear_1026_38241" x1="207.9" y1="47.9554" x2="221.032" y2="25.2103" gradientUnits="userSpaceOnUse">
<stop/>
<stop offset="1" stop-color="#DC8B00"/>
</linearGradient>
<linearGradient id="paint3_linear_1026_38241" x1="307.032" y1="158.491" x2="230.966" y2="26.7402" gradientUnits="userSpaceOnUse">
<stop offset="0.33" stop-color="#DFE4F4"/>
<stop offset="0.44" stop-color="#F6F6FB"/>
</linearGradient>
<linearGradient id="paint4_linear_1026_38241" x1="247.534" y1="17.2359" x2="323.595" y2="148.977" gradientUnits="userSpaceOnUse">
<stop offset="0.55" stop-color="#F1F1F6"/>
<stop offset="0.6" stop-color="#DEE1F7"/>
<stop offset="0.64" stop-color="#CED3F8"/>
</linearGradient>
<linearGradient id="paint5_linear_1026_38241" x1="302.433" y1="97.9568" x2="297.215" y2="88.9184" gradientUnits="userSpaceOnUse">
<stop stop-color="#DFE4F4"/>
<stop offset="1" stop-color="#CED3F8"/>
</linearGradient>
<linearGradient id="paint6_linear_1026_38241" x1="292.427" y1="90.4157" x2="287.208" y2="81.3773" gradientUnits="userSpaceOnUse">
<stop stop-color="#DFE4F4"/>
<stop offset="1" stop-color="#CED3F8"/>
</linearGradient>
<linearGradient id="paint7_linear_1026_38241" x1="279.368" y1="84.6378" x2="274.15" y2="75.5993" gradientUnits="userSpaceOnUse">
<stop stop-color="#DFE4F4"/>
<stop offset="1" stop-color="#CED3F8"/>
</linearGradient>
<linearGradient id="paint8_linear_1026_38241" x1="222.87" y1="176.268" x2="271.397" y2="176.268" gradientUnits="userSpaceOnUse">
<stop stop-color="#C4CAE9"/>
<stop offset="0.09" stop-color="#CDD2EC"/>
<stop offset="0.41" stop-color="#E8EAF6"/>
<stop offset="0.69" stop-color="#F9F9FC"/>
<stop offset="0.9" stop-color="white"/>
</linearGradient>
<linearGradient id="paint9_linear_1026_38241" x1="229.721" y1="172.863" x2="219.889" y2="172.863" gradientUnits="userSpaceOnUse">
<stop stop-color="#362E94"/>
<stop offset="0.52" stop-color="#29217E"/>
<stop offset="1" stop-color="#20196F"/>
</linearGradient>
<linearGradient id="paint10_linear_1026_38241" x1="225.72" y1="133.494" x2="226.931" y2="174.174" gradientUnits="userSpaceOnUse">
<stop stop-color="#131147"/>
<stop offset="0.18" stop-color="#1A1656"/>
<stop offset="0.72" stop-color="#2E2782"/>
<stop offset="1" stop-color="#362E94"/>
</linearGradient>
<linearGradient id="paint11_linear_1026_38241" x1="237.479" y1="177.34" x2="227.646" y2="177.34" gradientUnits="userSpaceOnUse">
<stop stop-color="#362E94"/>
<stop offset="0.52" stop-color="#29217E"/>
<stop offset="1" stop-color="#20196F"/>
</linearGradient>
<linearGradient id="paint12_linear_1026_38241" x1="230.953" y1="133.332" x2="232.164" y2="173.971" gradientUnits="userSpaceOnUse">
<stop stop-color="#362E94"/>
<stop offset="0.67" stop-color="#3D38A5"/>
<stop offset="1" stop-color="#423EAF"/>
</linearGradient>
<linearGradient id="paint13_linear_1026_38241" x1="215.021" y1="111.036" x2="229.239" y2="91.8233" gradientUnits="userSpaceOnUse">
<stop stop-color="#423EAF"/>
<stop offset="0.06" stop-color="#403CAC"/>
<stop offset="0.61" stop-color="#38319A"/>
<stop offset="1" stop-color="#362E94"/>
</linearGradient>
<linearGradient id="paint14_linear_1026_38241" x1="110.424" y1="256.348" x2="169.376" y2="256.348" gradientUnits="userSpaceOnUse">
<stop stop-color="#DAE0F5"/>
<stop offset="0.95" stop-color="#FCFDFE"/>
<stop offset="1" stop-color="white"/>
</linearGradient>
<linearGradient id="paint15_linear_1026_38241" x1="133.022" y1="268.248" x2="175.541" y2="268.248" gradientUnits="userSpaceOnUse">
<stop stop-color="#DAE0F5"/>
<stop offset="0.95" stop-color="#FCFDFE"/>
<stop offset="1" stop-color="white"/>
</linearGradient>
<linearGradient id="paint16_linear_1026_38241" x1="248.11" y1="198.514" x2="298.425" y2="198.514" gradientUnits="userSpaceOnUse">
<stop stop-color="#DAE0F5"/>
<stop offset="0.95" stop-color="#FCFDFE"/>
<stop offset="1" stop-color="white"/>
</linearGradient>
<linearGradient id="paint17_linear_1026_38241" x1="252.197" y1="188.576" x2="284.965" y2="207.496" gradientUnits="userSpaceOnUse">
<stop stop-color="#CED3F8"/>
<stop offset="0.42" stop-color="#BBC0E6"/>
</linearGradient>
<linearGradient id="paint18_linear_1026_38241" x1="283.079" y1="187.324" x2="294.095" y2="187.324" gradientUnits="userSpaceOnUse">
<stop stop-color="#C0C5E1"/>
<stop offset="0.26" stop-color="#DCDFEE"/>
<stop offset="0.55" stop-color="#F5F6FA"/>
<stop offset="0.72" stop-color="white"/>
</linearGradient>
<linearGradient id="paint19_linear_1026_38241" x1="269.379" y1="195.236" x2="292.021" y2="195.236" gradientUnits="userSpaceOnUse">
<stop stop-color="#C0C5E1"/>
<stop offset="0.26" stop-color="#DCDFEE"/>
<stop offset="0.55" stop-color="#F5F6FA"/>
<stop offset="0.72" stop-color="white"/>
</linearGradient>
<linearGradient id="paint20_linear_1026_38241" x1="255.676" y1="203.149" x2="278.578" y2="203.149" gradientUnits="userSpaceOnUse">
<stop stop-color="#C0C5E1"/>
<stop offset="0.26" stop-color="#DCDFEE"/>
<stop offset="0.55" stop-color="#F5F6FA"/>
<stop offset="0.72" stop-color="white"/>
</linearGradient>
<linearGradient id="paint21_linear_1026_38241" x1="261.821" y1="190.629" x2="276.102" y2="190.629" gradientUnits="userSpaceOnUse">
<stop stop-color="#807DFB"/>
<stop offset="1" stop-color="#362E94"/>
</linearGradient>
<linearGradient id="paint22_linear_1026_38241" x1="248.117" y1="201.252" x2="262.4" y2="201.252" gradientUnits="userSpaceOnUse">
<stop stop-color="#CACFF4"/>
<stop offset="1" stop-color="#9FA5CC"/>
</linearGradient>
<linearGradient id="paint23_linear_1026_38241" x1="82.7734" y1="164.986" x2="266.33" y2="164.986" gradientUnits="userSpaceOnUse">
<stop stop-color="#DAE0F5"/>
<stop offset="0.14" stop-color="#E2E7F7"/>
<stop offset="0.55" stop-color="#F7F8FC"/>
<stop offset="0.82" stop-color="white"/>
</linearGradient>
<linearGradient id="paint24_linear_1026_38241" x1="139.111" y1="187.3" x2="0.270453" y2="187.3" gradientUnits="userSpaceOnUse">
<stop stop-color="#DAE0F5"/>
<stop offset="0.14" stop-color="#E2E7F7"/>
<stop offset="0.55" stop-color="#F7F8FC"/>
<stop offset="0.82" stop-color="white"/>
</linearGradient>
<linearGradient id="paint25_linear_1026_38241" x1="195.451" y1="209.612" x2="272.834" y2="209.612" gradientUnits="userSpaceOnUse">
<stop stop-color="#DAE0F5"/>
<stop offset="0.14" stop-color="#E2E7F7"/>
<stop offset="0.55" stop-color="#F7F8FC"/>
<stop offset="0.82" stop-color="white"/>
</linearGradient>
<linearGradient id="paint26_linear_1026_38241" x1="235.265" y1="276.328" x2="266.808" y2="276.328" gradientUnits="userSpaceOnUse">
<stop stop-color="#C4CAE8"/>
<stop offset="0.44" stop-color="#DFE2F2"/>
<stop offset="1" stop-color="white"/>
</linearGradient>
<linearGradient id="paint27_linear_1026_38241" x1="229.43" y1="279.202" x2="261.038" y2="279.202" gradientUnits="userSpaceOnUse">
<stop offset="0.43" stop-color="#CED3F8"/>
<stop offset="0.54" stop-color="#B4BADC"/>
<stop offset="0.63" stop-color="#A5ABCC"/>
</linearGradient>
<linearGradient id="paint28_linear_1026_38241" x1="28.6396" y1="169.2" x2="72.1498" y2="169.2" gradientUnits="userSpaceOnUse">
<stop stop-color="#C2C7E3"/>
<stop offset="0.25" stop-color="#DCDFEF"/>
<stop offset="0.54" stop-color="#F5F6FA"/>
<stop offset="0.72" stop-color="white"/>
</linearGradient>
<linearGradient id="paint29_linear_1026_38241" x1="14.3211" y1="177.427" x2="55.9676" y2="177.427" gradientUnits="userSpaceOnUse">
<stop stop-color="#C2C7E3"/>
<stop offset="0.25" stop-color="#DCDFEF"/>
<stop offset="0.54" stop-color="#F5F6FA"/>
<stop offset="0.72" stop-color="white"/>
</linearGradient>
<linearGradient id="paint30_linear_1026_38241" x1="0" y1="185.656" x2="38.3311" y2="185.656" gradientUnits="userSpaceOnUse">
<stop stop-color="#C2C7E3"/>
<stop offset="0.25" stop-color="#DCDFEF"/>
<stop offset="0.54" stop-color="#F5F6FA"/>
<stop offset="0.72" stop-color="white"/>
</linearGradient>
<linearGradient id="paint31_linear_1026_38241" x1="42.957" y1="160.974" x2="86.4699" y2="160.974" gradientUnits="userSpaceOnUse">
<stop stop-color="#C2C7E3"/>
<stop offset="0.25" stop-color="#DCDFEF"/>
<stop offset="0.54" stop-color="#F5F6FA"/>
<stop offset="0.72" stop-color="white"/>
</linearGradient>
<linearGradient id="paint32_linear_1026_38241" x1="289.174" y1="260.956" x2="318.298" y2="260.956" gradientUnits="userSpaceOnUse">
<stop stop-color="#C4C9E4"/>
<stop offset="0.26" stop-color="#D7DAEC"/>
<stop offset="0.73" stop-color="#F4F5FA"/>
<stop offset="1" stop-color="white"/>
</linearGradient>
<linearGradient id="paint33_linear_1026_38241" x1="283.754" y1="260.907" x2="308.36" y2="260.907" gradientUnits="userSpaceOnUse">
<stop stop-color="#DFE4F4"/>
<stop offset="0.04" stop-color="#DDE2F3"/>
<stop offset="0.64" stop-color="#C4C9E9"/>
<stop offset="1" stop-color="#BBC0E6"/>
</linearGradient>
<linearGradient id="paint34_linear_1026_38241" x1="297.855" y1="254.552" x2="297.855" y2="247.864" gradientUnits="userSpaceOnUse">
<stop stop-color="#DFE4F4"/>
<stop offset="1" stop-color="#CED3F8"/>
</linearGradient>
</defs>
</svg>
