<svg width="120" height="126" viewBox="0 0 120 126" fill="none" xmlns="http://www.w3.org/2000/svg">
<path d="M0.856153 39.8845L34.4228 20.6279C34.893 20.3561 35.2762 20.5762 35.2762 21.1225V45.9482C35.2409 46.5489 34.9256 47.0952 34.4228 47.4268L0.856153 66.6834C0.38323 66.9552 0 66.7351 0 66.1915V41.3658C0.0353333 40.7651 0.353333 40.2161 0.856153 39.8845Z" fill="#4586E6"/>
<path opacity="0.9" d="M0.856153 39.8845L34.4228 20.6279C34.893 20.3561 35.2762 20.5762 35.2762 21.1225V45.9482C35.2409 46.5489 34.9256 47.0952 34.4228 47.4268L0.856153 66.6834C0.38323 66.9552 0 66.7351 0 66.1915V41.3658C0.0353333 40.7651 0.353333 40.2161 0.856153 39.8845Z" fill="white"/>
<path opacity="0.3" d="M34.8033 20.7828C34.9772 20.7828 35.0044 20.9948 35.0044 21.1225V45.9482C34.9718 46.4511 34.7082 46.9104 34.2869 47.1903L0.720255 66.4497C0.646871 66.4959 0.559897 66.5231 0.472922 66.5285C0.298974 66.5285 0.271794 66.3165 0.271794 66.1915V41.3658C0.301692 40.8602 0.568051 40.4009 0.989332 40.121L34.5587 20.8643C34.6321 20.8154 34.7163 20.7882 34.8033 20.7828ZM34.8033 20.511C34.6674 20.5164 34.5369 20.5572 34.4228 20.6279L0.856153 39.8845C0.353333 40.2161 0.0353333 40.7651 0 41.3658V66.1915C0 66.5774 0.192974 66.8003 0.472922 66.8003C0.60882 66.7949 0.739281 66.7541 0.856153 66.6834L34.4228 47.4268C34.9256 47.0952 35.2409 46.5489 35.2762 45.9482V21.1225C35.2762 20.7339 35.0832 20.511 34.8033 20.511Z" fill="#4586E6"/>
<g opacity="0.3">
<path d="M4.02783 61.522C4.06045 59.5623 4.19634 57.6054 4.43824 55.6621C4.68829 53.5475 5.20198 49.9843 7.24044 48.8074C9.2789 47.6306 10.0426 49.756 10.3362 50.8024C10.7194 52.1614 12.7117 51.3025 12.9916 49.0629C13.2716 46.8233 13.4482 39.6914 15.8346 38.3135C18.2209 36.9355 18.9956 40.2649 19.2673 41.1809C19.8109 42.9992 21.371 42.4991 21.882 41.2923C22.393 40.0856 23.7846 39.792 24.3146 41.488C24.8446 43.184 25.1707 45.1301 26.8776 44.1299C28.3752 43.2547 27.693 41.6538 29.1498 40.8982C30.3049 40.2976 30.8404 43.1514 30.8404 46.0406L4.02783 61.522Z" fill="#4586E6"/>
<path d="M4.26953 47.3588C4.26953 47.6713 4.54133 47.761 4.89194 47.5626L8.27578 45.6138C8.61553 45.4209 8.84655 45.0811 8.89819 44.6925C8.89819 44.3799 8.6264 44.2902 8.27578 44.4886L4.89194 46.4374C4.5522 46.6304 4.32117 46.9701 4.26953 47.3588Z" fill="#4586E6"/>
<path d="M13.7393 37.3595C13.7393 37.6693 14.0111 37.759 14.3644 37.5606L17.7455 35.6145C18.088 35.4216 18.319 35.0791 18.3706 34.6904C18.3706 34.3806 18.0988 34.2882 17.7455 34.4866L14.3753 36.4354C14.0301 36.6256 13.7936 36.9681 13.7393 37.3595Z" fill="#4586E6"/>
<path d="M20.3955 38.6614C20.3955 38.9739 20.6673 39.0636 21.0206 38.8652L24.4018 36.9165C24.7442 36.7235 24.9752 36.3837 25.0269 35.9951C25.0269 35.6825 24.7551 35.5928 24.4018 35.7912L21.0206 37.74C20.6782 37.933 20.4471 38.2727 20.3955 38.6614Z" fill="#4586E6"/>
<path d="M26.6196 40.091C26.6196 40.4009 26.8914 40.4933 27.242 40.2922L30.6259 38.3461C30.9683 38.1532 31.1994 37.8107 31.2483 37.422C31.2483 37.1122 30.9765 37.0198 30.6259 37.2209L27.242 39.1778C26.905 39.3681 26.674 39.7078 26.6196 40.091Z" fill="#4586E6"/>
</g>
<path d="M7.24039 49.2152C7.16429 49.2152 7.10449 49.1554 7.10449 49.0793V48.8075C7.10449 48.7314 7.16429 48.6716 7.24039 48.6716C7.31649 48.6716 7.37629 48.7314 7.37629 48.8075V49.0793C7.37629 49.1527 7.31377 49.2125 7.24039 49.2152Z" fill="white"/>
<path d="M7.24039 58.546C7.16429 58.546 7.10449 58.4862 7.10449 58.4101V57.8909C7.10449 57.8148 7.16429 57.755 7.24039 57.755C7.31377 57.755 7.37357 57.8176 7.37629 57.8909V58.4101C7.37629 58.4862 7.31649 58.546 7.24039 58.546ZM7.24039 56.9913C7.16429 56.9913 7.10449 56.9315 7.10449 56.8554V56.3363C7.10449 56.2602 7.16429 56.2004 7.24039 56.2004C7.31649 56.2004 7.37629 56.2602 7.37629 56.3363V56.8445C7.38172 56.9206 7.32193 56.9859 7.24583 56.9913C7.24583 56.9913 7.24311 56.9913 7.24039 56.9913ZM7.24039 55.4366C7.16429 55.4366 7.10449 55.3768 7.10449 55.3007V54.7816C7.10449 54.7055 7.16429 54.6457 7.24039 54.6457C7.31649 54.6457 7.37629 54.7055 7.37629 54.7816V55.3007C7.37629 55.3741 7.31377 55.4339 7.24039 55.4366ZM7.24039 53.8793C7.16429 53.8793 7.10449 53.8195 7.10449 53.7434V53.2269C7.10449 53.1508 7.16429 53.0911 7.24039 53.0911C7.31649 53.0911 7.37629 53.1508 7.37629 53.2269V53.7434C7.37629 53.8195 7.31649 53.8793 7.24039 53.8793ZM7.24039 52.3246C7.16429 52.3246 7.10449 52.2648 7.10449 52.1887V51.6804C7.10449 51.6043 7.16429 51.5445 7.24039 51.5445C7.31377 51.5445 7.37357 51.6071 7.37629 51.6804V52.1996C7.37085 52.2702 7.31106 52.3246 7.24039 52.3246ZM7.24039 50.7699C7.16429 50.7699 7.10449 50.7101 7.10449 50.634V50.1149C7.10449 50.0388 7.16429 49.979 7.24039 49.979C7.31649 49.979 7.37629 50.0388 7.37629 50.1149V50.634C7.37629 50.7074 7.31377 50.7672 7.24039 50.7699Z" fill="white"/>
<path d="M7.24039 59.856C7.16429 59.856 7.10449 59.7962 7.10449 59.7201V59.4483C7.10449 59.3722 7.16429 59.3124 7.24039 59.3124C7.31649 59.3124 7.37629 59.3722 7.37629 59.4483V59.7201C7.37629 59.7935 7.31377 59.8532 7.24039 59.856Z" fill="white"/>
<path d="M23.0021 40.8086C22.926 40.8086 22.8662 40.7488 22.8662 40.6727V40.4009C22.8662 40.3248 22.926 40.265 23.0021 40.265C23.0782 40.265 23.138 40.3248 23.138 40.4009V40.6727C23.138 40.7488 23.0782 40.8086 23.0021 40.8086Z" fill="white"/>
<path d="M23.0021 49.3239C22.926 49.3239 22.8662 49.2641 22.8662 49.188V48.62C22.8662 48.5438 22.926 48.4841 23.0021 48.4841C23.0755 48.4841 23.1353 48.5466 23.138 48.62V49.188C23.138 49.2641 23.0782 49.3239 23.0021 49.3239ZM23.0021 47.6197C22.926 47.6197 22.8662 47.56 22.8662 47.4839V46.9185C22.8662 46.8424 22.926 46.7826 23.0021 46.7826C23.0782 46.7826 23.138 46.8424 23.138 46.9185V47.4839C23.138 47.56 23.0782 47.6197 23.0021 47.6197ZM23.0021 45.9183C22.926 45.9183 22.8662 45.8585 22.8662 45.7824V45.2144C22.8662 45.1383 22.926 45.0785 23.0021 45.0785C23.0782 45.0785 23.138 45.1383 23.138 45.2144V45.7824C23.138 45.8558 23.0755 45.9156 23.0021 45.9183ZM23.0021 44.2142C22.926 44.2142 22.8662 44.1544 22.8662 44.0783V43.5102C22.8662 43.4341 22.926 43.3743 23.0021 43.3743C23.0782 43.3743 23.138 43.4341 23.138 43.5102V44.0701C23.1407 44.1462 23.0809 44.2114 23.0048 44.2142C23.0048 44.2142 23.0048 44.2142 23.0021 44.2142ZM23.0021 42.51C22.926 42.51 22.8662 42.4502 22.8662 42.3741V41.8061C22.8662 41.73 22.926 41.6702 23.0021 41.6702C23.0782 41.6702 23.138 41.73 23.138 41.8061V42.3741C23.138 42.4502 23.0782 42.51 23.0021 42.51Z" fill="white"/>
<path d="M23.0021 50.7318C22.926 50.7318 22.8662 50.672 22.8662 50.5959V50.3241C22.8662 50.248 22.926 50.1882 23.0021 50.1882C23.0755 50.1882 23.1353 50.2507 23.138 50.3241V50.5959C23.138 50.672 23.0782 50.7318 23.0021 50.7318Z" fill="white"/>
<path d="M29.1554 41.306C29.082 41.306 29.0222 41.2435 29.0195 41.1701V40.8983C29.0195 40.8222 29.0793 40.7625 29.1554 40.7625C29.2315 40.7625 29.2913 40.8222 29.2913 40.8983V41.1701C29.2913 41.2462 29.2315 41.306 29.1554 41.306Z" fill="white"/>
<path d="M29.1637 45.883C29.0876 45.883 29.0278 45.8232 29.0278 45.7471V45.2388C29.0278 45.1627 29.0876 45.1029 29.1637 45.1029C29.2398 45.1029 29.2996 45.1627 29.2996 45.2388V45.7471C29.2996 45.8232 29.2398 45.883 29.1637 45.883ZM29.1637 44.3582C29.0903 44.3582 29.0305 44.2957 29.0278 44.2223V43.714C29.0278 43.6379 29.0876 43.5781 29.1637 43.5781C29.2371 43.5781 29.2969 43.6352 29.2996 43.7086C29.2996 43.7086 29.2996 43.7086 29.2996 43.7113V44.2223C29.2996 44.2984 29.2398 44.3582 29.1637 44.3582ZM29.1637 42.8307C29.0876 42.8307 29.0278 42.7709 29.0278 42.6948V42.1866C29.0278 42.1132 29.0903 42.0534 29.1637 42.0507C29.2398 42.0507 29.2996 42.1105 29.2996 42.1866V42.6948C29.2996 42.7709 29.2398 42.8307 29.1637 42.8307Z" fill="white"/>
<path d="M29.1662 47.1741C29.0928 47.1741 29.033 47.1116 29.0303 47.0382V46.7664C29.0303 46.6903 29.0901 46.6305 29.1662 46.6305C29.2396 46.6359 29.2966 46.693 29.3021 46.7664V47.0382C29.3021 47.1143 29.2423 47.1741 29.1662 47.1741Z" fill="white"/>
<path d="M16.3756 38.4794C16.2995 38.4794 16.2397 38.4196 16.2397 38.3435V38.0717C16.2397 37.9983 16.3023 37.9385 16.3756 37.9358C16.4517 37.9358 16.5115 37.9956 16.5115 38.0717V38.3435C16.5115 38.4196 16.4517 38.4794 16.3756 38.4794Z" fill="white"/>
<path d="M16.3756 53.1943C16.2995 53.1943 16.2397 53.1345 16.2397 53.0584V52.5148C16.2397 52.4387 16.2995 52.3789 16.3756 52.3789C16.4517 52.3789 16.5115 52.4387 16.5115 52.5148V53.0584C16.5115 53.1345 16.4517 53.1943 16.3756 53.1943ZM16.3756 51.5635C16.3023 51.5635 16.2425 51.501 16.2397 51.4276V50.884C16.2397 50.8106 16.3023 50.7508 16.3756 50.7481C16.4517 50.7481 16.5115 50.8079 16.5115 50.884V51.4276C16.5115 51.501 16.449 51.5608 16.3756 51.5608V51.5635ZM16.3756 49.9354C16.2995 49.9354 16.2397 49.8756 16.2397 49.7995V49.2559C16.2397 49.1798 16.2995 49.1201 16.3756 49.1201C16.4517 49.1201 16.5115 49.1798 16.5115 49.2559V49.7995C16.5061 49.8702 16.4463 49.9273 16.3756 49.9273V49.9354ZM16.3756 48.3047C16.3023 48.3047 16.2425 48.2422 16.2397 48.1688V47.6252C16.2397 47.5518 16.3023 47.492 16.3756 47.4893C16.4517 47.4893 16.5115 47.5491 16.5115 47.6252V48.1688C16.5061 48.2394 16.4463 48.2938 16.3756 48.2938V48.3047ZM16.3756 46.6739C16.2995 46.6739 16.2397 46.6141 16.2397 46.538V45.9944C16.2397 45.9183 16.2995 45.8585 16.3756 45.8585C16.4517 45.8585 16.5115 45.9183 16.5115 45.9944V46.538C16.5034 46.606 16.4436 46.6576 16.3756 46.6576V46.6739ZM16.3756 45.0431C16.3023 45.0431 16.2425 44.9806 16.2397 44.9072V44.3636C16.2397 44.2875 16.2995 44.2278 16.3756 44.2278C16.4517 44.2278 16.5115 44.2875 16.5115 44.3636V44.9072C16.5007 44.9752 16.4436 45.0241 16.3756 45.0241V45.0431ZM16.3756 43.4124C16.2995 43.4124 16.2397 43.3526 16.2397 43.2765V42.7329C16.2397 42.6595 16.3023 42.5997 16.3756 42.597C16.4517 42.597 16.5115 42.6568 16.5115 42.7329V43.2765C16.5007 43.3417 16.4409 43.3879 16.3756 43.3879V43.4124ZM16.3756 41.7816C16.2995 41.7816 16.2397 41.7218 16.2397 41.6457V41.1021C16.2397 41.026 16.2995 40.9662 16.3756 40.9662C16.4517 40.9662 16.5115 41.026 16.5115 41.1021V41.6457C16.498 41.7082 16.4409 41.7544 16.3756 41.7517V41.7816ZM16.3756 40.1508C16.3023 40.1508 16.2425 40.0883 16.2397 40.0149V39.4713C16.2397 39.398 16.3023 39.3382 16.3756 39.3354C16.4517 39.3354 16.5115 39.3952 16.5115 39.4713V40.0149C16.4952 40.0774 16.4409 40.1209 16.3756 40.1182V40.1508Z" fill="white"/>
<path d="M16.3756 54.5559C16.2995 54.5559 16.2397 54.4961 16.2397 54.42V54.1482C16.2397 54.0748 16.3023 54.015 16.3756 54.0123C16.4517 54.0123 16.5115 54.0721 16.5115 54.1482V54.42C16.5115 54.4961 16.4517 54.5559 16.3756 54.5559Z" fill="white"/>
<path d="M119.147 39.8845L85.5854 20.6279C85.1152 20.3561 84.7319 20.5762 84.7319 21.1225V45.9482C84.7673 46.5489 85.0826 47.0952 85.5854 47.4268L119.147 66.6834C119.617 66.9552 120 66.7351 120 66.1915V41.3658C119.965 40.7651 119.649 40.2161 119.147 39.8845Z" fill="#4586E6"/>
<path opacity="0.9" d="M119.147 39.8845L85.5854 20.6279C85.1152 20.3561 84.7319 20.5762 84.7319 21.1225V45.9482C84.7673 46.5489 85.0826 47.0952 85.5854 47.4268L119.147 66.6834C119.617 66.9552 120 66.7351 120 66.1915V41.3658C119.965 40.7651 119.649 40.2161 119.147 39.8845Z" fill="white"/>
<path opacity="0.3" d="M85.1965 20.7828C85.2835 20.7882 85.3704 20.8154 85.4438 20.8643L119.016 40.121C119.437 40.4009 119.704 40.8602 119.733 41.3658V66.1915C119.733 66.3165 119.706 66.5285 119.532 66.5285C119.445 66.5231 119.358 66.4959 119.285 66.4497L85.7183 47.1903C85.2971 46.9104 85.0334 46.4511 85.0008 45.9482V21.1225C85.0008 20.9948 85.028 20.7828 85.2019 20.7828M85.2019 20.511C84.9301 20.511 84.729 20.7339 84.729 21.1225V45.9482C84.7643 46.5489 85.0796 47.0952 85.5824 47.4268L119.146 66.6834C119.26 66.7541 119.391 66.7949 119.527 66.8003C119.799 66.8003 120 66.5774 120 66.1915V41.3658C119.964 40.7651 119.649 40.2161 119.146 39.8845L85.5852 20.6279C85.471 20.5572 85.3405 20.5164 85.2046 20.511H85.2019Z" fill="#4586E6"/>
<path opacity="0.3" d="M87.0366 45.4998V44.3936L90.3471 41.2054L92.8286 46.4647L95.3236 43.5945L97.3376 47.2529L103.198 39.6834L105.6 45.1057L109.31 39.4442L114.303 53.8439L117.948 58.4155V63.3458L87.0366 45.4998Z" fill="#4586E6"/>
<path d="M109.31 58.4753C109.234 58.4753 109.174 58.4155 109.174 58.3394V57.7958C109.174 57.7224 109.237 57.6626 109.31 57.6599C109.386 57.6599 109.446 57.7197 109.446 57.7958V58.3394C109.446 58.4155 109.386 58.4753 109.31 58.4753ZM109.31 56.8445C109.234 56.8445 109.174 56.7847 109.174 56.7086V56.165C109.174 56.0916 109.237 56.0318 109.31 56.0291C109.386 56.0291 109.446 56.0889 109.446 56.165V56.7086C109.446 56.7847 109.386 56.8445 109.31 56.8445ZM109.31 55.2137C109.234 55.2137 109.174 55.1539 109.174 55.0778V54.5342C109.174 54.4609 109.237 54.4011 109.31 54.3983C109.386 54.3983 109.446 54.4581 109.446 54.5342V55.0778C109.446 55.1539 109.386 55.2137 109.31 55.2137ZM109.31 53.583C109.234 53.583 109.174 53.5232 109.174 53.4471V52.9035C109.174 52.8301 109.237 52.7703 109.31 52.7676C109.386 52.7676 109.446 52.8274 109.446 52.9035V53.4471C109.446 53.5232 109.386 53.583 109.31 53.583ZM109.31 51.9522C109.234 51.9522 109.174 51.8924 109.174 51.8163V51.2727C109.174 51.1993 109.237 51.1395 109.31 51.1368C109.386 51.1368 109.446 51.1966 109.446 51.2727V51.8163C109.446 51.8924 109.386 51.9522 109.31 51.9522ZM109.31 50.3214C109.234 50.3214 109.174 50.2616 109.174 50.1855V49.6419C109.174 49.5686 109.237 49.5088 109.31 49.506C109.386 49.506 109.446 49.5658 109.446 49.6419V50.1855C109.446 50.2616 109.386 50.3214 109.31 50.3214ZM109.31 48.6907C109.234 48.6907 109.174 48.6309 109.174 48.5548V48.0112C109.174 47.9378 109.237 47.878 109.31 47.8753C109.386 47.8753 109.446 47.9351 109.446 48.0112V48.5548C109.446 48.6309 109.386 48.6907 109.31 48.6907ZM109.31 47.0599C109.234 47.0599 109.174 47.0001 109.174 46.924V46.3804C109.174 46.307 109.237 46.2472 109.31 46.2445C109.386 46.2445 109.446 46.3043 109.446 46.3804V46.924C109.446 47.0001 109.386 47.0599 109.31 47.0599ZM109.31 45.4291C109.234 45.4291 109.174 45.3693 109.174 45.2932V44.7496C109.174 44.6762 109.237 44.6165 109.31 44.6137C109.386 44.6137 109.446 44.6735 109.446 44.7496V45.2932C109.446 45.3693 109.386 45.4291 109.31 45.4291ZM109.31 43.7984C109.234 43.7984 109.174 43.7386 109.174 43.6625V43.1189C109.174 43.0455 109.237 42.9857 109.31 42.983C109.386 42.983 109.446 43.0428 109.446 43.1189V43.6625C109.446 43.7386 109.386 43.7984 109.31 43.7984ZM109.31 42.1676C109.234 42.1676 109.174 42.1078 109.174 42.0317V41.4881C109.174 41.4147 109.237 41.3549 109.31 41.3522C109.386 41.3522 109.446 41.412 109.446 41.4881V42.0317C109.446 42.1078 109.386 42.1676 109.31 42.1676ZM109.31 40.5368C109.234 40.5368 109.174 40.477 109.174 40.4009V39.8573C109.174 39.7839 109.237 39.7242 109.31 39.7214C109.386 39.7214 109.446 39.7812 109.446 39.8573V40.4009C109.446 40.477 109.386 40.5368 109.31 40.5368Z" fill="white"/>
<path d="M103.219 53.871C103.143 53.871 103.083 53.8112 103.083 53.7351V53.1916C103.083 53.1155 103.143 53.0557 103.219 53.0557C103.295 53.0557 103.355 53.1155 103.355 53.1916V53.7351C103.355 53.8112 103.295 53.871 103.219 53.871ZM103.219 52.2403C103.143 52.2403 103.083 52.1805 103.083 52.1044V51.5608C103.083 51.4847 103.143 51.4249 103.219 51.4249C103.295 51.4249 103.355 51.4847 103.355 51.5608V52.1044C103.355 52.1805 103.295 52.2403 103.219 52.2403ZM103.219 50.6095C103.143 50.6095 103.083 50.5497 103.083 50.4736V49.93C103.083 49.8539 103.143 49.7941 103.219 49.7941C103.295 49.7941 103.355 49.8539 103.355 49.93V50.4736C103.355 50.5497 103.295 50.6095 103.219 50.6095ZM103.219 48.9787C103.143 48.9787 103.083 48.9189 103.083 48.8428V48.2993C103.083 48.2232 103.143 48.1634 103.219 48.1634C103.295 48.1634 103.355 48.2232 103.355 48.2993V48.8428C103.355 48.9189 103.295 48.9787 103.219 48.9787ZM103.219 47.348C103.143 47.348 103.083 47.2882 103.083 47.2121V46.6685C103.083 46.5924 103.143 46.5326 103.219 46.5326C103.295 46.5326 103.355 46.5924 103.355 46.6685V47.2121C103.355 47.2882 103.295 47.348 103.219 47.348ZM103.219 45.7172C103.143 45.7172 103.083 45.6574 103.083 45.5813V45.0377C103.083 44.9616 103.143 44.9018 103.219 44.9018C103.295 44.9018 103.355 44.9616 103.355 45.0377V45.5813C103.355 45.6574 103.295 45.7172 103.219 45.7172ZM103.219 44.0864C103.143 44.0864 103.083 44.0266 103.083 43.9505V43.407C103.083 43.3309 103.143 43.2711 103.219 43.2711C103.295 43.2711 103.355 43.3309 103.355 43.407V43.9505C103.355 44.0266 103.295 44.0864 103.219 44.0864ZM103.219 42.4557C103.143 42.4557 103.083 42.3959 103.083 42.3198V41.7762C103.083 41.7001 103.143 41.6403 103.219 41.6403C103.295 41.6403 103.355 41.7001 103.355 41.7762V42.3198C103.355 42.3959 103.295 42.4557 103.219 42.4557ZM103.219 40.8249C103.143 40.8249 103.083 40.7651 103.083 40.689V40.1454C103.083 40.0693 103.143 40.0095 103.219 40.0095C103.295 40.0095 103.355 40.0693 103.355 40.1454V40.689C103.355 40.7651 103.295 40.8249 103.219 40.8249Z" fill="white"/>
<path d="M90.3468 47.3317C90.2707 47.3317 90.2109 47.2719 90.2109 47.1958V46.6522C90.2109 46.5761 90.2707 46.5163 90.3468 46.5163C90.4229 46.5163 90.4827 46.5761 90.4827 46.6522V47.1958C90.4827 47.2719 90.4229 47.3317 90.3468 47.3317ZM90.3468 45.7009C90.2707 45.7009 90.2109 45.6411 90.2109 45.565V45.0215C90.2109 44.9454 90.2707 44.8856 90.3468 44.8856C90.4229 44.8856 90.4827 44.9454 90.4827 45.0215V45.565C90.4827 45.6411 90.4229 45.7009 90.3468 45.7009ZM90.3468 44.0702C90.2707 44.0702 90.2109 44.0104 90.2109 43.9343V43.3907C90.2109 43.3146 90.2707 43.2548 90.3468 43.2548C90.4229 43.2548 90.4827 43.3146 90.4827 43.3907V43.9343C90.4827 44.0104 90.4229 44.0702 90.3468 44.0702ZM90.3468 42.4394C90.2707 42.4394 90.2109 42.3796 90.2109 42.3035V41.7599C90.2109 41.6838 90.2707 41.624 90.3468 41.624C90.4229 41.624 90.4827 41.6838 90.4827 41.7599V42.3035C90.4827 42.3796 90.4229 42.4394 90.3468 42.4394Z" fill="white"/>
<path d="M95.2531 49.6093C95.1797 49.6093 95.1199 49.5468 95.1172 49.4734V48.9298C95.1172 48.8537 95.177 48.7939 95.2531 48.7939C95.3292 48.7939 95.389 48.8537 95.389 48.9298V49.4734C95.389 49.5495 95.3292 49.6093 95.2531 49.6093ZM95.2531 47.9785C95.1797 47.9785 95.1199 47.916 95.1172 47.8426V47.299C95.1172 47.2229 95.177 47.1631 95.2531 47.1631C95.3292 47.1631 95.389 47.2229 95.389 47.299V47.8426C95.389 47.9187 95.3292 47.9785 95.2531 47.9785ZM95.2531 46.3478C95.1797 46.3478 95.1199 46.2852 95.1172 46.2119V45.6683C95.1172 45.5922 95.177 45.5324 95.2531 45.5324C95.3292 45.5324 95.389 45.5922 95.389 45.6683V46.2119C95.389 46.288 95.3292 46.3478 95.2531 46.3478ZM95.2531 44.717C95.1797 44.717 95.1199 44.6545 95.1172 44.5811V44.0375C95.1172 43.9614 95.177 43.9016 95.2531 43.9016C95.3292 43.9016 95.389 43.9614 95.389 44.0375V44.5811C95.389 44.6572 95.3292 44.717 95.2531 44.717Z" fill="white"/>
<path opacity="0.3" d="M92.1085 39.5882C92.1085 39.8981 91.8367 39.9905 91.4861 39.7921L89.5101 38.6342C89.1704 38.4413 88.9393 38.1015 88.8877 37.7128C88.8877 37.4003 89.1595 37.3106 89.5101 37.509L91.4833 38.6587C91.8285 38.8517 92.0595 39.1968 92.1085 39.5882Z" fill="#4586E6"/>
<path opacity="0.3" d="M96.9705 43.1977C96.9705 43.5103 96.6987 43.5999 96.3481 43.4015L94.3776 42.2518C94.0351 42.0589 93.8041 41.7191 93.7524 41.3305C93.7524 41.0206 94.0242 40.9282 94.3776 41.1266L96.3481 42.2763C96.6878 42.4693 96.9188 42.809 96.9705 43.1977Z" fill="#4586E6"/>
<path opacity="0.3" d="M104.828 38.7701C104.828 39.0799 104.557 39.1723 104.206 38.9739L102.233 37.8188C101.893 37.6258 101.662 37.2834 101.61 36.8947C101.61 36.5849 101.882 36.4952 102.233 36.6936L104.206 37.8405C104.548 38.0362 104.779 38.3787 104.828 38.7701Z" fill="#4586E6"/>
<path opacity="0.3" d="M111.232 38.6343C111.232 38.9441 110.96 39.0365 110.606 38.8354L108.636 37.6884C108.293 37.4955 108.062 37.153 108.011 36.7643C108.011 36.4545 108.283 36.3648 108.636 36.5632L110.606 37.7102C110.949 37.9032 111.18 38.2456 111.232 38.6343Z" fill="#4586E6"/>
<path opacity="0.2" d="M99.2594 83.0346L61.7789 104.656C60.6809 105.213 59.3844 105.213 58.2864 104.656L20.8141 83.0373C20.3303 82.7655 20.0884 82.3986 20.0884 82.029C20.102 81.7327 20.2406 81.4555 20.4716 81.2707C20.5749 81.1755 20.689 81.0913 20.8141 81.0233L58.2945 59.4075C59.3926 58.8503 60.689 58.8503 61.7871 59.4075L99.2594 81.0179C100.222 81.5778 100.222 82.4829 99.2594 83.0346Z" fill="black"/>
<path d="M60.0367 94.7V101.984C59.4306 101.998 58.8327 101.856 58.2973 101.574L20.8141 79.947C20.3303 79.6752 20.0884 79.3029 20.0884 78.9387V72.6385C20.102 72.3422 20.2406 72.065 20.4716 71.8774L25.8939 75.0085L60.0367 94.7Z" fill="#4586E6"/>
<path opacity="0.5" d="M60.0367 94.7V101.984C59.4306 101.998 58.8327 101.856 58.2973 101.574L20.8141 79.947C20.3303 79.6752 20.0884 79.3029 20.0884 78.9387V72.6385C20.102 72.3422 20.2406 72.065 20.4716 71.8774L25.8939 75.0085L60.0367 94.7Z" fill="white"/>
<path d="M60.0366 94.7001V101.984C60.6427 101.998 61.2434 101.856 61.7788 101.574L99.2593 79.9471C99.7431 79.6753 99.985 79.3029 99.985 78.9387V72.6358C99.9714 72.3395 99.8328 72.0623 99.6017 71.8748L94.1795 75.0058L60.0366 94.7001Z" fill="#4586E6"/>
<path opacity="0.65" d="M60.0366 94.7001V101.984C60.6427 101.998 61.2434 101.856 61.7788 101.574L99.2593 79.9471C99.7431 79.6753 99.985 79.3029 99.985 78.9387V72.6358C99.9714 72.3395 99.8328 72.0623 99.6017 71.8748L94.1795 75.0058L60.0366 94.7001Z" fill="white"/>
<path d="M99.2594 73.6414L61.7789 95.2654C60.6809 95.8199 59.3844 95.8199 58.2864 95.2654L20.8141 73.6441C20.3303 73.3723 20.0884 73.0081 20.0884 72.6385C20.102 72.3422 20.2406 72.065 20.4716 71.8775C20.5749 71.7823 20.689 71.6981 20.8141 71.6301L58.2945 50.0143C59.3926 49.4571 60.689 49.4571 61.7871 50.0143L99.2594 71.6274C100.222 72.1846 100.222 73.0924 99.2594 73.6414Z" fill="#4586E6"/>
<path opacity="0.8" d="M99.2594 73.6414L61.7789 95.2654C60.6809 95.8199 59.3844 95.8199 58.2864 95.2654L20.8141 73.6441C20.3303 73.3723 20.0884 73.0081 20.0884 72.6385C20.102 72.3422 20.2406 72.065 20.4716 71.8775C20.5749 71.7823 20.689 71.6981 20.8141 71.6301L58.2945 50.0143C59.3926 49.4571 60.689 49.4571 61.7871 50.0143L99.2594 71.6274C100.222 72.1846 100.222 73.0924 99.2594 73.6414Z" fill="white"/>
<path d="M60.0367 50.0279C60.5695 50.017 61.0967 50.142 61.5697 50.3894L99.0392 71.9998C99.3627 72.1873 99.5448 72.4183 99.5448 72.6385C99.5448 72.8586 99.36 73.0842 99.042 73.269L61.5615 94.8957C60.5966 95.3741 59.466 95.3741 58.5011 94.8957L21.0288 73.269C20.7054 73.0869 20.5205 72.8559 20.5205 72.6385C20.5368 72.4618 20.6238 72.3014 20.7651 72.1954C20.8467 72.1221 20.9391 72.0568 21.0369 72.0052L58.5201 50.3894C58.9903 50.1393 59.5149 50.017 60.0476 50.0279M60.0476 49.5957C59.4388 49.5821 58.8381 49.7262 58.3027 50.0143L20.8141 71.6301C20.689 71.6981 20.5749 71.7796 20.4716 71.8774C20.2406 72.065 20.102 72.3422 20.0884 72.6385C20.0884 73.0081 20.3303 73.3696 20.8141 73.6441L58.2864 95.2654C59.3844 95.8198 60.6809 95.8198 61.7789 95.2654L99.2594 73.6414C100.222 73.0978 100.222 72.1846 99.2594 71.6274L61.7871 50.0143C61.2489 49.7289 60.6483 49.5849 60.0394 49.5957H60.0476Z" fill="white"/>
<path d="M58.8762 54.3983L28.4353 71.9616C27.7911 72.334 27.7911 72.9347 28.4353 73.307L58.8762 90.8677C59.6074 91.24 60.4717 91.24 61.2028 90.8677L91.6574 73.3043C92.3015 72.932 92.3015 72.3313 91.6574 71.9589L61.2028 54.3983C60.4717 54.0259 59.6074 54.0259 58.8762 54.3983Z" fill="#455A64"/>
<path d="M91.6493 71.9644L61.2028 54.3984C60.8441 54.2108 60.4445 54.1157 60.0396 54.1266V55.3089L91.4481 73.424L91.6493 73.3071C92.2934 72.9375 92.2934 72.3368 91.6493 71.9644Z" fill="#37474F"/>
<path d="M60.0366 54.1266C59.6316 54.1157 59.2321 54.2108 58.8733 54.3984L28.4323 71.9617C27.7882 72.3341 27.7882 72.9348 28.4323 73.3071L28.6335 73.424L60.0366 55.3089V54.1266Z" fill="#263238"/>
<g opacity="0.5">
<path opacity="0.3" d="M62.1402 86.4265C61.4933 86.8043 60.7486 86.9783 60.0012 86.9293V91.1557C60.5094 91.1557 61.0095 91.0063 61.4362 90.729L91.2929 73.4973C91.85 73.1901 92.1082 72.9183 92.1082 72.546V69.1295L62.1402 86.4265Z" fill="#4586E6"/>
<path opacity="0.28" d="M62.14 82.646C61.4931 83.0265 60.7484 83.2004 60.001 83.1488V87.3752C60.5092 87.3752 61.0093 87.2257 61.4361 86.9485L91.2927 69.7167C91.8499 69.4096 92.1081 69.1405 92.1081 68.7681V65.3517L62.14 82.646Z" fill="#4586E6"/>
<path opacity="0.25" d="M62.1402 78.8598C61.4933 79.2376 60.7486 79.4115 60.0012 79.3626V83.589C60.5094 83.589 61.0095 83.4395 61.4362 83.1623L91.2929 65.9387C91.85 65.6315 92.1082 65.3597 92.1082 64.9874V61.5709L62.1402 78.8598Z" fill="#4586E6"/>
<path opacity="0.23" d="M62.14 75.0872C61.4931 75.4678 60.7484 75.6417 60.001 75.5901V79.8165C60.5092 79.8165 61.0066 79.667 61.4361 79.3925L91.2927 62.158C91.8499 61.8509 92.1081 61.5818 92.1081 61.2094V57.793L62.14 75.0872Z" fill="#4586E6"/>
<path opacity="0.21" d="M62.1402 71.3093C61.4933 71.6871 60.7486 71.8611 60.0012 71.8122V76.0386C60.5094 76.0386 61.0095 75.8891 61.4362 75.6118L91.2929 58.3801C91.85 58.0729 92.1082 57.8039 92.1082 57.4288V54.0123L62.1402 71.3093Z" fill="#4586E6"/>
<path opacity="0.18" d="M62.14 67.5314C61.4931 67.9092 60.7484 68.0831 60.001 68.0315V72.2579C60.5092 72.2579 61.0066 72.1084 61.4361 71.8339L91.2927 54.5994C91.8499 54.295 92.1081 54.0232 92.1081 53.6508V50.2344L62.14 67.5314Z" fill="#4586E6"/>
<path opacity="0.16" d="M62.1402 63.7507C61.4933 64.1285 60.7486 64.3052 60.0012 64.2536V68.48C60.5094 68.48 61.0095 68.3305 61.4362 68.0532L91.2929 50.8215C91.85 50.5143 92.1082 50.2453 92.1082 49.8729V46.4537L62.1402 63.7507Z" fill="#4586E6"/>
<path opacity="0.14" d="M62.14 59.9728C61.4931 60.3506 60.7484 60.5245 60.001 60.4729V64.6993C60.5092 64.6993 61.0066 64.5498 61.4361 64.2753L91.2927 47.0408C91.8499 46.7364 92.1081 46.4646 92.1081 46.0922V42.6758L62.14 59.9728Z" fill="#4586E6"/>
<path opacity="0.12" d="M62.1402 56.1921C61.4933 56.5727 60.7486 56.7466 60.0012 56.695V60.9214C60.5094 60.9214 61.0095 60.7719 61.4362 60.4946L91.2929 43.2547C91.85 42.9476 92.1082 42.6785 92.1082 42.3062V38.906L62.1402 56.1921Z" fill="#4586E6"/>
<path opacity="0.09" d="M62.1402 52.4142C61.4933 52.792 60.7486 52.9659 60.0012 52.9143V57.1407C60.5094 57.1407 61.0068 56.9912 61.4362 56.7167L91.2929 39.4822C91.85 39.1778 92.1082 38.906 92.1082 38.5336V35.1172L62.1402 52.4142Z" fill="#4586E6"/>
<path opacity="0.07" d="M62.1402 48.6335C61.4933 49.014 60.7486 49.188 60.0012 49.1363V53.3627C60.5094 53.3627 61.0095 53.2133 61.4362 52.936L91.2929 35.7043C91.85 35.3971 92.1082 35.128 92.1082 34.7557V31.3392L62.1402 48.6335Z" fill="#4586E6"/>
<path opacity="0.05" d="M62.1402 44.8556C61.4933 45.2334 60.7486 45.4073 60.0012 45.3584V49.5875C60.5094 49.5848 61.0068 49.4353 61.4362 49.1608L91.2929 31.9263C91.85 31.6192 92.1082 31.3474 92.1082 30.9751V27.5586L62.1402 44.8556Z" fill="#4586E6"/>
<path opacity="0.02" d="M62.14 41.0804C61.4931 41.4609 60.7484 41.6348 60.001 41.5832V45.8096C60.5092 45.8096 61.0093 45.6601 61.4361 45.3829L91.2927 28.1457C91.8499 27.8385 92.1081 27.5695 92.1081 27.1971V23.7806L62.14 41.0804Z" fill="#4586E6"/>
</g>
<g opacity="0.7">
<path opacity="0.5" d="M57.8625 86.4265C58.5093 86.8043 59.2568 86.981 60.0042 86.9293V91.1557C59.4959 91.1557 58.9958 91.0063 58.5691 90.729L28.7207 73.4973C28.1635 73.1901 27.9053 72.9183 27.9053 72.546V69.1295L57.8625 86.4265Z" fill="#4586E6"/>
<path opacity="0.46" d="M57.8625 82.646C58.5093 83.0265 59.2568 83.2031 60.0042 83.1488V87.3752C59.496 87.3752 58.9959 87.2257 58.5691 86.9485L28.7207 69.7167C28.1635 69.4096 27.9053 69.1405 27.9053 68.7681V65.3517L57.8625 82.646Z" fill="#4586E6"/>
<path opacity="0.42" d="M57.8625 78.8598C58.5093 79.2376 59.2568 79.4142 60.0042 79.3626V83.589C59.4959 83.589 58.9958 83.4395 58.5691 83.1623L28.7207 65.9305C28.1635 65.6234 27.9053 65.3516 27.9053 64.9792V61.5709L57.8625 78.8598Z" fill="#4586E6"/>
<path opacity="0.38" d="M57.8623 75.0872C58.5091 75.4678 59.2566 75.6444 60.004 75.5901V79.8165C59.4957 79.8165 58.9984 79.667 58.5689 79.3925L28.7177 62.158C28.1605 61.8509 27.9023 61.5818 27.9023 61.2094V57.793L57.8623 75.0872Z" fill="#4586E6"/>
<path opacity="0.35" d="M57.8625 71.3093C58.5093 71.6871 59.2568 71.8638 60.0042 71.8122V76.0386C59.4959 76.0386 58.9958 75.8891 58.5691 75.6118L28.7207 58.3801C28.1635 58.0729 27.9053 57.8039 27.9053 57.4288V54.0123L57.8625 71.3093Z" fill="#4586E6"/>
<path opacity="0.31" d="M57.8623 67.5314C58.5091 67.9092 59.2566 68.0831 60.004 68.0315V72.2579C59.4957 72.2579 58.9984 72.1084 58.5689 71.8339L28.7177 54.5994C28.1605 54.295 27.9023 54.0232 27.9023 53.6508V50.2344L57.8623 67.5314Z" fill="#4586E6"/>
<path opacity="0.27" d="M57.8625 63.7507C58.5093 64.1313 59.2568 64.3052 60.0042 64.2536V68.48C59.4959 68.48 58.9958 68.3305 58.5691 68.0532L28.7207 50.8215C28.1635 50.5143 27.9053 50.2453 27.9053 49.8729V46.4537L57.8625 63.7507Z" fill="#4586E6"/>
<path opacity="0.23" d="M57.8623 59.9728C58.5091 60.3506 59.2566 60.5245 60.004 60.4729V64.6993C59.4957 64.6993 58.9984 64.5498 58.5689 64.2753L28.7177 47.0408C28.1605 46.7364 27.9023 46.4646 27.9023 46.0922V42.6758L57.8623 59.9728Z" fill="#4586E6"/>
<path opacity="0.19" d="M57.8623 56.1921C58.5091 56.5727 59.2566 56.7493 60.004 56.695V60.9214C59.4957 60.9214 58.9956 60.7719 58.5689 60.4946L28.7177 43.2547C28.1605 42.9476 27.9023 42.6785 27.9023 42.3062V38.906L57.8623 56.1921Z" fill="#4586E6"/>
<path opacity="0.15" d="M57.8623 52.4142C58.5091 52.792 59.2566 52.9659 60.004 52.9143V57.1407C59.4957 57.1407 58.9984 56.9912 58.5689 56.7167L28.7177 39.4822C28.1605 39.1778 27.9023 38.906 27.9023 38.5336V35.1172L57.8623 52.4142Z" fill="#4586E6"/>
<path opacity="0.12" d="M57.8625 48.6335C58.5093 49.014 59.2568 49.1907 60.0042 49.1363V53.3627C59.4959 53.3627 58.9958 53.2133 58.5691 52.936L28.7207 35.7043C28.1635 35.3971 27.9053 35.128 27.9053 34.7557V31.3392L57.8625 48.6335Z" fill="#4586E6"/>
<path opacity="0.08" d="M57.8625 44.8556C58.5093 45.2334 59.2568 45.4101 60.0042 45.3584V49.5875C59.4959 49.5848 58.9958 49.4353 58.5691 49.1608L28.7207 31.929C28.1635 31.6219 27.9053 31.3501 27.9053 30.9778V27.5586L57.8625 44.8556Z" fill="#4586E6"/>
<path opacity="0.04" d="M57.8623 41.0804C58.5091 41.4609 59.2566 41.6375 60.004 41.5832V45.8096C59.4957 45.8096 58.9956 45.6601 58.5689 45.3829L28.7177 28.1457C28.1605 27.8385 27.9023 27.5695 27.9023 27.1971V23.7806L57.8623 41.0804Z" fill="#4586E6"/>
</g>
<path d="M81.7286 56.6352C81.7286 56.6352 82.6364 57.5403 82.0004 59.2145C81.3943 60.8453 79.4102 61.1171 79.4102 61.1171C79.4102 61.1171 79.682 63.7834 75.355 64.1068C75.374 63.922 75.374 63.7317 75.355 63.5469C75.355 63.5469 77.3418 63.4681 77.3717 60.3832C77.4016 57.2984 75.0886 56.8227 75.0886 56.8227C75.586 56.097 75.7192 55.1811 75.4474 54.344C74.8821 52.6534 73.6862 52.8328 73.6862 52.8328C73.6862 52.8328 74.5532 52.1968 74.1727 50.6204C73.8194 49.1554 72.7186 48.9651 72.7186 48.9651C72.7186 48.9651 73.534 47.5083 72.0473 45.5405C70.5605 43.5727 69.0331 43.8771 69.0331 43.8771C68.9814 42.9068 68.6091 41.98 67.9785 41.2407C66.9212 40.0095 65.2605 40.1835 65.2605 40.1835C65.2959 38.9251 64.7768 37.7156 63.8418 36.873C62.2599 35.3781 60.6727 35.4461 60.6727 35.4461C60.7189 34.5763 60.3166 33.7447 59.6045 33.2418C58.7891 32.6058 57.6992 32.4509 56.7398 32.8314C56.7398 32.8314 56.468 30.8962 54.7937 30.5266C52.6058 30.0482 51.5322 31.342 51.5322 31.342C51.5322 31.342 50.8038 30.3826 49.1377 30.1108C49.7465 29.3117 50.4912 28.6268 51.3392 28.0859C53.3097 26.8791 56.294 27.6483 56.294 27.6483C57.0469 27.102 57.971 26.8492 58.8978 26.9308C59.8002 27.0014 60.6183 27.4798 61.1238 28.2299C61.1238 28.2299 62.0371 27.5559 64.2495 27.6864C66.4619 27.8168 66.9919 29.5617 66.9919 29.5617C68.0845 29.5318 69.1581 29.8335 70.074 30.4288C71.7048 31.4426 71.7048 33.6088 71.7048 33.6088C71.7048 33.6088 73.6807 33.0652 75.4121 34.8617C77.1434 36.6583 76.3797 38.3298 76.3797 38.3298C78.5323 38.5228 80.1196 40.4226 79.9239 42.5753C79.8749 43.1107 79.7173 43.6325 79.4591 44.1055C79.9728 44.2685 80.3805 44.6599 80.5653 45.1655C80.9023 46.0325 80.5653 46.5625 80.5653 46.5625C80.5653 46.5625 82.2477 47.28 82.6853 49.063C83.1229 50.846 82.2477 51.9032 82.2477 51.9032C83.1419 52.4142 83.6801 53.3791 83.6447 54.4092C83.6529 56.252 81.7286 56.6352 81.7286 56.6352Z" fill="#4586E6"/>
<path opacity="0.05" d="M81.7286 56.6352C81.7286 56.6352 82.6364 57.5403 82.0004 59.2145C81.3943 60.8453 79.4102 61.1171 79.4102 61.1171C79.4102 61.1171 79.682 63.7834 75.355 64.1068C75.374 63.922 75.374 63.7317 75.355 63.5469C75.355 63.5469 77.3418 63.4681 77.3717 60.3832C77.4016 57.2984 75.0886 56.8227 75.0886 56.8227C75.586 56.097 75.7192 55.1811 75.4474 54.344C74.8821 52.6534 73.6862 52.8328 73.6862 52.8328C73.6862 52.8328 74.5532 52.1968 74.1727 50.6204C73.8194 49.1554 72.7186 48.9651 72.7186 48.9651C72.7186 48.9651 73.534 47.5083 72.0473 45.5405C70.5605 43.5727 69.0331 43.8771 69.0331 43.8771C68.9814 42.9068 68.6091 41.98 67.9785 41.2407C66.9212 40.0095 65.2605 40.1835 65.2605 40.1835C65.2959 38.9251 64.7768 37.7156 63.8418 36.873C62.2599 35.3781 60.6727 35.4461 60.6727 35.4461C60.7189 34.5763 60.3166 33.7447 59.6045 33.2418C58.7891 32.6058 57.6992 32.4509 56.7398 32.8314C56.7398 32.8314 56.468 30.8962 54.7937 30.5266C52.6058 30.0482 51.5322 31.342 51.5322 31.342C51.3256 31.1001 51.081 30.8908 50.8065 30.725C50.7603 30.6951 50.7195 30.6707 50.6679 30.6435C50.1977 30.3662 49.6786 30.1814 49.1377 30.0999C49.7465 29.3035 50.494 28.6213 51.3392 28.0859C53.3097 26.8791 56.294 27.6483 56.294 27.6483C57.0469 27.102 57.971 26.8492 58.8978 26.9308C59.8002 27.0014 60.6183 27.4798 61.1238 28.2299C61.1238 28.2299 62.0371 27.5559 64.2495 27.6864C66.4619 27.8168 66.9919 29.5617 66.9919 29.5617C68.0845 29.5318 69.1581 29.8335 70.074 30.4288C71.7048 31.4426 71.7048 33.6088 71.7048 33.6088C71.7048 33.6088 73.6807 33.0652 75.4121 34.8617C77.1434 36.6583 76.3797 38.3298 76.3797 38.3298C78.5323 38.5228 80.1196 40.4226 79.9239 42.5753C79.8749 43.1107 79.7173 43.6325 79.4591 44.1055C79.9728 44.2685 80.3805 44.6599 80.5653 45.1655C80.9023 46.0325 80.5653 46.5625 80.5653 46.5625C80.5653 46.5625 82.2477 47.28 82.6853 49.063C83.1229 50.846 82.2477 51.9032 82.2477 51.9032C83.1419 52.4142 83.6801 53.3791 83.6447 54.4092C83.6529 56.252 81.7286 56.6352 81.7286 56.6352Z" fill="black"/>
<path opacity="0.2" d="M75.8198 56.5482C76.1459 55.8008 76.1867 54.9555 75.9285 54.1809C75.6051 53.216 75.0615 52.7186 74.5532 52.4849C74.8141 51.8543 74.8549 51.1558 74.6674 50.5008C74.5206 49.7289 74.0423 49.063 73.3601 48.6743C73.5258 47.9894 73.5802 46.7256 72.4495 45.2307C71.3189 43.7358 70.161 43.4178 69.4897 43.358C69.3429 42.4557 68.9543 41.6104 68.3617 40.9119C67.6931 40.1699 66.7527 39.7268 65.7552 39.6806C65.6492 38.4657 65.0948 37.3323 64.2006 36.5034C63.377 35.6934 62.3225 35.158 61.1809 34.9732C61.0804 34.1143 60.621 33.337 59.9171 32.8341C59.1207 32.2199 58.0988 31.9861 57.1149 32.19C56.8784 31.4806 56.2995 30.3363 54.9079 30.0319C53.2282 29.6623 52.1084 30.2249 51.5513 30.6408C50.9642 30.1488 50.263 29.8118 49.5128 29.6569C49.2519 29.9504 49.01 30.2575 48.7871 30.5782C50.3798 30.7495 51.0811 31.6056 51.1191 31.6654C51.2142 31.7877 51.3583 31.8611 51.5132 31.8665C51.6681 31.8693 51.8149 31.8068 51.9182 31.6899C51.9562 31.6464 52.8559 30.6408 54.6878 31.0457C55.9869 31.3175 56.2316 32.8559 56.2397 32.9184C56.2832 33.2011 56.5496 33.3968 56.8322 33.3533C56.8784 33.3451 56.9219 33.3315 56.9654 33.3125C57.7536 33.0108 58.6451 33.1467 59.3056 33.6713C59.8709 34.0626 60.197 34.715 60.1726 35.4026C60.1563 35.5494 60.2052 35.6989 60.3058 35.8076C60.4009 35.9244 60.5477 35.987 60.6999 35.9761C60.7515 35.9761 62.1078 35.9516 63.4966 37.2617C64.3093 38.001 64.7632 39.0555 64.7387 40.1536C64.7251 40.3058 64.7768 40.458 64.8855 40.5667C64.9942 40.6754 65.1464 40.7298 65.3013 40.7162C65.3149 40.7162 66.7228 40.5912 67.5817 41.5914C68.1307 42.2409 68.4542 43.0455 68.5112 43.8935C68.5112 44.0457 68.5819 44.187 68.6988 44.2848C68.8156 44.38 68.9679 44.4235 69.1173 44.399C69.169 44.399 70.3757 44.2115 71.6314 45.8667C72.8871 47.5219 72.2892 48.6933 72.2647 48.7368C72.1859 48.8809 72.1832 49.0521 72.2511 49.2016C72.3218 49.3511 72.4577 49.4598 72.6208 49.4924C72.6534 49.4924 73.4063 49.6637 73.6672 50.759C73.9553 51.9522 73.3954 52.4224 73.3764 52.436C73.1888 52.5719 73.1209 52.8192 73.2078 53.0339C73.2948 53.2541 73.5177 53.3872 73.7514 53.3601C73.8303 53.3601 74.5668 53.3166 74.9582 54.5206C75.1838 55.1974 75.0832 55.9394 74.6864 56.5319C74.5804 56.6732 74.5532 56.8553 74.613 57.0211C74.6755 57.1842 74.8142 57.3065 74.9854 57.3473C75.0642 57.3636 76.8879 57.7985 76.8662 60.3968C76.839 62.9191 75.3931 63.0468 75.3387 63.0522C75.0533 63.0686 74.8332 63.3132 74.8468 63.5986C74.8468 63.6121 74.8468 63.6285 74.8522 63.642C74.8631 63.7752 74.8631 63.9084 74.8522 64.0416C75.0153 64.1041 75.1865 64.1313 75.3605 64.1258C75.5426 64.1258 75.7084 64.0878 75.8769 64.066V63.9655C76.6026 63.7154 77.8501 62.9191 77.8773 60.4077C77.9072 58.1627 76.7602 57.0157 75.8198 56.5482Z" fill="black"/>
<path d="M75.3497 63.5496C75.3497 63.5496 77.3365 63.4708 77.3692 60.3859C77.4018 57.3011 75.0834 56.8282 75.0834 56.8282C75.5807 56.0997 75.7112 55.1811 75.4394 54.344C74.8795 52.6561 73.6809 52.8355 73.6809 52.8355C73.6809 52.8355 74.5479 52.1995 74.1674 50.6231C73.8141 49.1554 72.7133 48.9706 72.7133 48.9706C72.7133 48.9706 73.5287 47.5083 72.0393 45.5405C70.5498 43.5727 69.0251 43.8771 69.0251 43.8771C68.9707 42.9068 68.6038 41.98 67.9732 41.2407C66.9187 40.0122 65.2553 40.1889 65.2553 40.1889C65.2933 38.9332 64.7824 37.721 63.8555 36.873C62.2737 35.3781 60.6891 35.4461 60.6891 35.4461C60.7326 34.5763 60.3304 33.7447 59.6183 33.2418C58.8056 32.6058 57.7157 32.4509 56.7563 32.8314C56.7563 32.8314 56.4845 30.8962 54.8048 30.5266C52.6304 30.0455 51.5432 31.342 51.5432 31.342C51.5432 31.342 50.0647 29.3851 46.5042 30.2548C43.5144 30.9805 43.3024 33.2147 43.3024 33.2147C43.3024 33.2147 40.2366 32.6412 38.8314 34.7476C37.4262 36.854 37.8638 39.5774 37.8638 39.5774C37.8638 39.5774 36.108 40.8086 36.195 42.6514C36.2167 43.6815 36.5212 44.6844 37.0756 45.5514C37.0756 45.5514 35.3171 48.5411 36.5483 50.9873C37.2278 52.4142 38.4672 53.4987 39.9729 53.977C39.9729 53.977 39.9729 56.6107 41.2015 57.9289C42.43 59.2471 44.6261 59.1574 44.6261 59.1574C45.0283 60.3397 45.879 61.3182 46.9988 61.8754C48.8416 62.7533 50.7741 62.0493 50.7741 62.0493C51.3503 62.7451 52.1113 63.2643 52.9702 63.5442C54.3753 63.9818 56.1311 63.5442 56.1311 63.5442C56.2942 64.4873 57.0335 65.2239 57.9766 65.387C59.6454 65.7376 60.5233 64.6857 60.5233 64.6857C60.5233 64.6857 61.0506 65.8273 62.2791 65.9142C62.9939 65.974 63.7006 65.7186 64.2116 65.213C64.2116 65.213 64.9155 67.4064 67.8129 67.4961C70.7102 67.5858 71.4223 66.3328 71.4223 66.3328C71.4223 66.3328 72.8193 67.3221 74.2245 66.2676C75.048 65.618 75.472 64.5906 75.3497 63.5496Z" fill="#4586E6"/>
<path opacity="0.2" d="M75.3497 63.5496C75.3497 63.5496 77.3365 63.4708 77.3692 60.3859C77.4018 57.3011 75.0834 56.8282 75.0834 56.8282C75.5807 56.0997 75.7112 55.1811 75.4394 54.344C74.8795 52.6561 73.6809 52.8355 73.6809 52.8355C73.6809 52.8355 74.5479 52.1995 74.1674 50.6231C73.8141 49.1554 72.7133 48.9706 72.7133 48.9706C72.7133 48.9706 73.5287 47.5083 72.0393 45.5405C70.5498 43.5727 69.0251 43.8771 69.0251 43.8771C68.9707 42.9068 68.6038 41.98 67.9732 41.2407C66.9187 40.0122 65.2553 40.1889 65.2553 40.1889C65.2933 38.9332 64.7824 37.721 63.8555 36.873C62.2737 35.3781 60.6891 35.4461 60.6891 35.4461C60.7326 34.5763 60.3304 33.7447 59.6183 33.2418C58.8056 32.6058 57.7157 32.4509 56.7563 32.8314C56.7563 32.8314 56.4845 30.8962 54.8048 30.5266C52.6304 30.0455 51.5432 31.342 51.5432 31.342C51.5432 31.342 50.0647 29.3851 46.5042 30.2548C43.5144 30.9805 43.3024 33.2147 43.3024 33.2147C43.3024 33.2147 40.2366 32.6412 38.8314 34.7476C37.4262 36.854 37.8638 39.5774 37.8638 39.5774C37.8638 39.5774 36.108 40.8086 36.195 42.6514C36.2167 43.6815 36.5212 44.6844 37.0756 45.5514C37.0756 45.5514 35.3171 48.5411 36.5483 50.9873C37.2278 52.4142 38.4672 53.4987 39.9729 53.977C39.9729 53.977 39.9729 56.6107 41.2015 57.9289C42.43 59.2471 44.6261 59.1574 44.6261 59.1574C45.0283 60.3397 45.879 61.3182 46.9988 61.8754C48.8416 62.7533 50.7741 62.0493 50.7741 62.0493C51.3503 62.7451 52.1113 63.2643 52.9702 63.5442C54.3753 63.9818 56.1311 63.5442 56.1311 63.5442C56.2942 64.4873 57.0335 65.2239 57.9766 65.387C59.6454 65.7376 60.5233 64.6857 60.5233 64.6857C60.5233 64.6857 61.0506 65.8273 62.2791 65.9142C62.9939 65.974 63.7006 65.7186 64.2116 65.213C64.2116 65.213 64.9155 67.4064 67.8129 67.4961C70.7102 67.5858 71.4223 66.3328 71.4223 66.3328C71.4223 66.3328 72.8193 67.3221 74.2245 66.2676C75.048 65.618 75.472 64.5906 75.3497 63.5496Z" fill="white"/>
<g opacity="0.05">
<path d="M52.1981 38.4793C51.8992 37.8977 51.5322 37.3487 51.111 36.8486C50.7984 36.4925 50.2956 35.9652 49.7819 36.0332C49.6297 36.0495 49.7275 36.305 49.8363 36.305C50.3119 36.3892 50.6516 36.7942 50.9071 37.1666C51.1871 37.5715 51.4371 37.9928 51.6573 38.4304C52.277 39.5747 52.633 40.844 52.6982 42.1431C52.7417 43.2303 52.4754 44.3419 51.4344 44.8801C50.214 45.5107 48.6376 45.1111 47.4879 44.5241C46.5068 44.0674 45.8191 43.1488 45.6588 42.0779C45.6397 41.942 45.4277 41.8278 45.4332 42.0263C45.4223 42.6133 45.5691 43.1923 45.8572 43.7032C46.1725 44.1789 46.6019 44.5675 47.1047 44.8366C48.2843 45.527 49.7139 45.9238 51.0702 45.5732C54.2475 44.7632 53.337 40.5912 52.1981 38.4793Z" fill="black"/>
<path d="M48.7548 40.1644C48.7059 39.7214 48.5564 39.2946 48.3172 38.9196C48.0862 38.539 47.7926 38.1993 47.4502 37.9139C47.1132 37.6041 46.7136 37.3703 46.276 37.2317C46.0885 37.1828 46.1021 37.4464 46.2162 37.5198C46.5696 37.7128 46.9039 37.9357 47.2192 38.1884C47.5127 38.4548 47.7627 38.7674 47.9557 39.1125C48.1351 39.4441 48.2438 39.8056 48.2764 40.1807C48.2927 40.3818 48.2846 40.5829 48.2574 40.7814C48.2302 40.9716 48.1813 41.151 48.1514 41.3412C48.1378 41.4282 48.2493 41.613 48.3471 41.5152C48.6678 41.1428 48.8173 40.6509 48.7548 40.1644Z" fill="black"/>
<path d="M50.3042 33.7718C49.3393 33.5109 48.3364 33.4212 47.3389 33.5C46.3985 33.5707 45.4907 33.8887 44.7106 34.4214C43.3272 35.3374 42.2889 36.6991 42.028 38.3597C41.884 39.2757 41.8051 40.4226 42.6151 41.0777C42.7129 41.1538 42.8869 41.1103 42.8353 40.9608C42.6124 40.4471 42.5037 39.8899 42.52 39.33C42.5471 38.8517 42.6178 38.3787 42.7374 37.9167C43.0092 36.9763 43.5419 36.1337 44.2758 35.4868C45.0341 34.7394 45.9908 34.2284 47.0345 34.0137C47.5835 33.9376 48.1407 33.9213 48.6924 33.973C49.2414 34.0491 49.7959 34.0762 50.3504 34.0518C50.4999 34.0436 50.3993 33.799 50.3042 33.7718Z" fill="black"/>
<path d="M44.1288 44.0103C43.2971 42.6758 41.7207 41.6103 40.1198 41.6429C38.8641 41.6674 36.9289 42.3686 37.1083 43.9369C37.2252 44.7251 37.6682 45.4263 38.3314 45.8693C38.6331 46.065 39.0163 46.0868 39.3398 45.9264C39.7148 45.7117 39.7529 45.2388 39.8534 44.8664C39.8697 44.8066 39.8018 44.6735 39.7339 44.7468C39.424 45.0784 39.1223 45.8938 38.5488 45.4888C38.0922 45.1328 37.7769 44.63 37.6519 44.0646C37.4263 42.8551 38.8233 42.2708 39.7855 42.1349C41.1254 41.9419 42.3567 42.6486 43.2291 43.6189C43.7945 44.2495 44.5392 45.5568 43.6205 46.2091C43.3188 46.4265 42.9437 46.5135 42.5768 46.4537C42.1528 46.3722 42.1121 46.046 42.0332 45.6764C41.9925 45.4943 41.6636 45.4182 41.6011 45.6193C41.4679 46.0759 41.6853 46.5624 42.1148 46.769C42.5469 46.9701 43.0389 46.9946 43.4873 46.8342C43.9439 46.7065 44.3217 46.3803 44.5147 45.9454C44.7539 45.3176 44.4631 44.5484 44.1288 44.0103Z" fill="black"/>
<path d="M56.4793 59.2064C55.778 57.8474 54.468 56.926 53.1199 56.3009C52.8943 56.1976 52.6687 56.0998 52.4404 56.0101C52.7068 55.7709 52.9378 55.4964 53.128 55.1947C53.5249 54.5995 53.8266 53.9471 54.0222 53.2595C54.2342 52.5909 54.1418 51.8652 53.7668 51.2727C53.5738 50.9791 53.3129 50.7373 53.003 50.5715C52.6959 50.4084 52.174 50.229 51.8343 50.3839C51.6984 50.4464 51.8506 50.6557 51.9403 50.6693C52.2909 50.7536 52.598 50.7563 52.9052 50.9764C53.1661 51.1694 53.3591 51.4358 53.4624 51.7429C53.6173 52.2593 53.5955 52.8138 53.3971 53.3166C53.2096 53.8738 52.9514 54.4065 52.6279 54.8984C52.473 55.1376 52.2909 55.355 52.0844 55.5507C51.9865 55.635 51.8778 55.7057 51.7609 55.7655C50.6031 55.3605 49.4072 55.0588 48.2276 54.6783C46.5289 54.1347 44.9661 53.3003 43.7756 51.9603C43.0309 51.1803 42.5172 50.2127 42.2889 49.1581C42.2128 48.7178 42.1856 48.2694 42.2073 47.8236C42.2236 47.4594 42.2535 46.9783 42.5226 46.7011C42.6504 46.5679 42.4058 46.2988 42.2508 46.3967C41.6882 46.7609 41.7072 47.666 41.7072 48.2612C41.6991 49.2016 41.9301 50.1284 42.3813 50.9547C43.3 52.5474 44.6888 53.8221 46.3549 54.5995C49.1762 55.9584 52.7666 55.9775 55.0524 58.3475C55.6666 58.9482 56.0879 59.7146 56.2673 60.5545C56.3597 61.0111 56.3597 61.484 56.2673 61.9406C56.1721 62.3728 55.8976 62.6826 55.759 63.0849C55.721 63.1909 55.8732 63.3811 55.9873 63.3241C56.6532 63.0061 56.887 62.1037 56.9359 61.4215C56.9848 60.655 56.8272 59.8913 56.4793 59.2064Z" fill="black"/>
<path d="M52.9296 59.3667C52.1577 58.8095 51.2146 58.6709 50.3095 58.4644C49.4044 58.2578 48.4966 58.073 47.6078 57.8039C47.1648 57.6707 46.7299 57.5131 46.306 57.3283C45.6971 57.0565 45.1671 56.6678 44.5692 56.3987C44.5067 56.3634 44.4279 56.3851 44.3898 56.4449C44.3681 56.483 44.3653 56.5292 44.3871 56.57C44.5665 56.9532 45.0258 57.2359 45.3764 57.4506C45.727 57.6653 46.0967 57.8447 46.4799 57.9942C47.2898 58.3013 48.1215 58.5459 48.9695 58.7253C49.986 58.959 51.0895 59.0759 52.068 59.4374C52.3697 59.5488 52.6524 59.7065 52.9078 59.8994C53.2177 60.1278 53.6716 60.4838 53.7042 60.8942C53.7042 61.0274 53.9434 61.1497 53.976 60.9622C54.0575 60.2772 53.4433 59.7391 52.9296 59.3667Z" fill="black"/>
<path d="M40.5956 51.8489C40.3211 51.3434 39.9677 50.884 39.5492 50.4899C39.0056 49.8947 38.6061 49.2696 38.6088 48.4243C38.6251 47.9785 38.6822 47.5382 38.78 47.1034C38.8643 46.6549 39.0083 46.1385 38.8316 45.7009C38.8017 45.6248 38.693 45.5623 38.6414 45.652C38.5544 45.8613 38.5001 46.0841 38.4837 46.3124C38.4484 46.519 38.4104 46.7201 38.3696 46.924C38.2799 47.3235 38.212 47.7312 38.1739 48.1389C38.1168 48.8782 38.337 49.612 38.7909 50.1991C39.1361 50.6503 39.5628 51.0281 39.9025 51.4847C40.0629 51.6885 40.1825 51.9223 40.2477 52.1723C40.3455 52.5963 40.2015 52.9877 40.1064 53.4008C40.1064 53.4633 40.158 53.6509 40.2477 53.5693C40.7261 53.1318 40.8674 52.436 40.5956 51.8489Z" fill="black"/>
<path d="M72.1778 49.3211C71.7674 49.4543 71.3733 49.6364 71.0036 49.8647C70.5769 50.0713 70.1176 50.199 69.6446 50.2371C68.8021 50.3023 67.984 50.0278 67.1441 50.0332C66.3994 50.0251 65.69 50.3404 65.1954 50.8948C65.0078 51.0959 64.8448 51.3188 64.7116 51.5607C64.5431 51.3732 64.3664 51.1884 64.1816 51.0171C63.4885 50.3703 62.6704 49.8702 61.7789 49.5494C60.7787 49.2287 59.7486 49.014 58.7049 48.9107C57.7645 48.7857 56.854 48.6661 55.987 48.234C55.2749 47.8752 54.4459 47.3724 54.2312 46.5461C54.1931 46.4075 53.9594 46.364 53.9866 46.5461C54.0464 47.2582 54.5791 47.7964 55.1145 48.2149C55.7043 48.6743 56.3865 49.0031 57.1149 49.1798C59.0175 49.6283 61.0451 49.5766 62.7329 50.6828C64.206 51.6096 65.2253 53.1099 65.546 54.8195C65.7988 56.2519 65.9102 58.0403 64.7795 59.1383C63.9777 59.8831 63.0781 60.5191 62.1051 61.0219C61.8795 61.1442 61.6321 61.2937 61.393 61.4432C61.5234 61.0164 61.6104 60.5789 61.6512 60.1331C61.7572 59.2253 61.6784 58.3067 61.4229 57.4315C61.1565 56.6052 60.7189 55.8442 60.1373 55.2C59.4524 54.4336 58.5989 53.928 57.7781 53.3247C57.2862 52.9795 56.854 52.5582 56.4925 52.0771C56.0848 51.5335 55.7451 50.9084 55.3836 50.3241C55.3129 50.2099 55.2314 50.3594 55.2694 50.4436C55.6826 51.3623 56.0848 52.2864 56.7779 53.0366C57.471 53.7867 58.357 54.2732 59.1017 54.9391C60.3873 56.0915 61.1239 57.7359 61.1239 59.4645C61.1375 60.0135 61.075 60.5626 60.9336 61.0953C60.8358 61.4568 60.6863 61.8019 60.5776 62.158C60.3873 62.3809 60.2596 62.6527 60.2079 62.9408C60.1862 63.0767 60.4199 63.2859 60.5314 63.1473C60.8113 62.775 61.132 62.4352 61.4881 62.1335C61.8306 61.8808 62.1948 61.6606 62.5753 61.4703C63.4532 61.0083 64.274 60.4457 65.0214 59.7907C65.6275 59.2906 66.0597 58.6084 66.2499 57.8446C66.4157 57.0727 66.4483 56.2764 66.3451 55.4936C66.2853 54.7027 66.1032 53.928 65.8015 53.1942C65.633 52.8327 65.4318 52.4903 65.1981 52.1668C65.2389 52.0146 65.2959 51.8678 65.3666 51.7265C65.5324 51.4602 65.739 51.221 65.9836 51.0226C66.5516 50.5496 67.3018 50.5958 67.9921 50.6883C68.7858 50.797 69.574 50.9057 70.3622 50.6883C70.7509 50.585 71.1259 50.4301 71.4765 50.2344C71.8109 50.0767 72.1125 49.8566 72.3653 49.5848C72.4333 49.4869 72.3001 49.294 72.1778 49.3211Z" fill="black"/>
<path d="M69.6884 46.345C69.2236 45.2443 68.0141 44.7795 66.9704 44.4071C65.7909 44.0321 64.6602 43.5157 63.6056 42.8661C63.1137 42.5481 62.6707 42.1567 62.2983 41.7055C61.7547 40.9744 61.4258 40.1046 61.347 39.1968C61.328 39.0501 60.991 38.8979 60.9529 39.1017C60.5316 41.3658 62.3989 42.9938 64.2144 43.9233C65.1902 44.4234 66.2257 44.7387 67.245 45.1192C68.0739 45.4372 69.3649 46.076 69.1828 47.1794C69.0959 47.723 68.6012 47.8834 68.1364 47.9948C67.5113 48.128 66.8726 48.1796 66.2339 48.1525C64.913 48.0845 63.6056 47.8752 62.3309 47.5219C59.9636 46.9212 57.9278 45.4073 56.6694 43.3145C55.9573 42.1023 55.5469 40.7379 55.4681 39.3355C55.4273 38.6369 55.4654 37.9384 55.5768 37.2481C55.6991 36.4327 55.8486 35.5466 56.3242 34.8481C56.3541 34.8019 56.3242 34.6633 56.2481 34.7231C55.8405 35.1634 55.5714 35.7124 55.4654 36.3022C55.305 36.9138 55.1881 37.5335 55.1093 38.1613C54.9381 39.5583 55.1039 40.9744 55.5986 42.2926C56.5471 44.6409 58.3763 46.5244 60.6947 47.5409C61.9015 48.0139 63.1599 48.34 64.4455 48.5085C65.8044 48.726 67.2395 48.8211 68.5767 48.4514C69.0551 48.359 69.471 48.0601 69.7101 47.6361C69.8895 47.2229 69.8814 46.7527 69.6884 46.345Z" fill="black"/>
<path d="M65.2012 46.1765C64.7174 46.0108 64.1901 45.9591 63.7009 45.7988C63.2008 45.6466 62.7143 45.4563 62.2413 45.2307C61.3906 44.8013 60.6405 44.1952 60.0452 43.4505C59.3712 42.6459 58.9037 41.6892 58.6781 40.6646C58.4797 39.5774 58.7787 38.5337 58.8385 37.4574C58.8385 37.3677 58.6863 37.1475 58.621 37.3079C58.1182 38.4739 57.9579 39.7595 58.1644 41.0125C58.4145 42.0697 58.9173 43.0509 59.6321 43.8717C60.2844 44.6817 61.1243 45.3204 62.0783 45.7308C62.6056 45.9428 63.1519 46.1059 63.709 46.2228C64.1657 46.3206 64.7962 46.5136 65.2555 46.3804C65.3289 46.3559 65.2854 46.201 65.2012 46.1765Z" fill="black"/>
<path d="M73.3767 55.105C72.3412 54.1374 70.4712 53.8493 70.1424 52.2485C70.1206 52.1506 69.9331 52.0446 69.9168 52.1995C69.7999 53.534 71.3845 54.3739 72.3466 54.9582C72.9364 55.2871 73.3985 55.809 73.6539 56.4341C73.9692 57.2087 73.8578 57.9344 73.5914 58.6981C73.5615 58.7906 73.6675 58.9373 73.7627 58.8721C75.0564 57.9779 74.2899 55.9585 73.3767 55.105Z" fill="black"/>
<path d="M75.7468 60.9213C75.1896 61.4187 74.6379 61.7992 73.8714 61.8319C73.2191 61.8509 72.575 61.6932 72.0015 61.3807C71.3736 61.098 70.9333 60.5136 70.8327 59.8342C70.7811 59.4292 70.8029 59.0161 70.9034 58.6192C71.0203 58.2333 71.1045 57.8365 71.1508 57.4369L71.2051 57.4777C71.5286 57.7794 71.7867 58.1436 71.9634 58.5486C71.996 58.6056 72.1319 58.6899 72.1809 58.5975C72.4146 58.1599 72.0749 57.6897 71.765 57.3853C71.428 57.0673 71.0556 56.7955 70.6507 56.5699C70.1968 56.3144 69.7592 56.0263 69.3433 55.711C69.134 55.5452 68.9383 55.3631 68.7562 55.1674C68.4844 54.8821 68.286 54.5559 68.036 54.2624C67.9898 54.208 67.93 54.2624 67.9327 54.3222C67.9626 54.8413 68.4111 55.3523 68.7617 55.7002C69.1694 56.0888 69.6178 56.4286 70.1016 56.714C70.3163 56.8444 70.5283 56.9858 70.7376 57.1189C70.6914 57.1488 70.6615 57.195 70.6507 57.2494C70.5718 57.6517 70.4196 58.0376 70.3163 58.4317C70.2158 58.8041 70.175 59.1927 70.194 59.5787C70.194 60.2038 70.4386 60.8072 70.8762 61.2556C71.8194 62.1009 73.0914 62.4814 74.3443 62.2939C74.6705 62.2423 74.9831 62.1281 75.2684 61.9596C75.6163 61.7802 75.8664 61.4541 75.9561 61.0735C75.9805 60.9811 75.8446 60.8235 75.7468 60.9213Z" fill="black"/>
<path d="M71.637 65.2239C71.6125 65.0364 71.5582 64.8516 71.4767 64.6804C71.3109 64.3107 71.1043 63.9628 70.8597 63.6421C70.5988 63.3187 70.2726 63.055 69.9002 62.8702C69.7154 62.7724 69.5224 62.6908 69.3213 62.6283L69.2044 62.5903C69.2724 62.4163 69.3132 62.2342 69.3268 62.0467C69.3512 61.4596 69.2778 60.8698 69.1093 60.3072C68.9544 59.75 68.7043 59.1738 68.1472 58.9183C67.9243 58.815 67.9134 59.1357 68.0683 59.2336C68.3075 59.3831 68.4298 59.8424 68.5114 60.0925C68.6147 60.4159 68.688 60.7502 68.7288 61.0899C68.7886 61.5846 68.8348 62.12 68.6092 62.5658C68.5848 62.5821 68.5712 62.6093 68.5712 62.6365C68.544 62.6881 68.5114 62.737 68.4788 62.7832C68.033 63.354 67.291 63.5986 66.6632 63.9139C66.0353 64.2292 65.3422 64.5934 65.2471 65.3381C65.2308 65.455 65.4129 65.6235 65.5189 65.5012C65.9429 64.982 66.4811 64.5662 67.0899 64.289C67.6607 64.0634 68.1988 63.7563 68.6826 63.3785C68.8049 63.267 68.9163 63.1393 69.0088 63.0007H69.0522L69.2833 63.0713C69.4382 63.123 69.5877 63.1855 69.7317 63.2589C70.0117 63.4002 70.259 63.5986 70.4601 63.8378C70.6151 64.0335 70.7537 64.24 70.8814 64.4548C70.9738 64.6042 71.0581 64.7592 71.1315 64.9195C71.2021 65.0609 71.2647 65.2076 71.3163 65.3571C71.338 65.4468 71.3707 65.5311 71.4141 65.6126C71.4359 65.6425 71.4794 65.6941 71.5229 65.6724C71.6778 65.599 71.6506 65.368 71.637 65.2239Z" fill="black"/>
<path d="M67.1037 59.7581C67.1037 59.6711 66.9733 59.5705 66.9461 59.7091C66.8727 60.1929 66.658 60.6414 66.3264 61.0029C65.9948 61.329 65.6306 61.6198 65.2392 61.8699C64.8533 62.12 64.4972 62.4108 64.1792 62.7396C64.0134 62.9109 63.8802 63.1093 63.7824 63.3267C63.6873 63.5523 63.671 63.8051 63.7335 64.0415C63.7335 64.0905 63.8232 64.2264 63.8884 64.153C64.0705 63.9111 64.2336 63.6583 64.3776 63.3919C64.4999 63.199 64.6467 63.025 64.8125 62.8674C65.1332 62.5874 65.473 62.3265 65.829 62.0928C66.2177 61.8454 66.5547 61.5247 66.8238 61.1524C67.0793 60.7365 67.1798 60.2418 67.1037 59.7581Z" fill="black"/>
<path d="M53.1468 48.6227C52.7717 48.4433 52.3722 48.3291 51.959 48.2802C50.7659 48.128 49.5564 48.1932 48.3849 48.4705C47.4364 48.6553 46.5123 48.9515 45.6317 49.3511C45.1723 49.5604 44.7375 49.8213 44.3352 50.1284C44.0634 50.3377 43.5198 50.7264 43.6747 51.1205C43.6992 51.183 43.7726 51.27 43.8487 51.2482C44.2428 51.1341 44.5472 50.7046 44.8761 50.4709C45.224 50.2208 45.5936 50.0088 45.985 49.8349C46.7569 49.487 47.5641 49.2233 48.3931 49.044C49.4069 48.7939 50.4506 48.6825 51.4943 48.7124C51.853 48.726 52.2118 48.7694 52.5651 48.8374C52.913 48.9162 53.2365 49.0684 53.5164 49.2886C53.549 49.313 53.5952 49.3103 53.6197 49.2777C53.6197 49.2777 53.6224 49.2723 53.6251 49.2695C53.7502 48.9624 53.3669 48.7395 53.1468 48.6227Z" fill="black"/>
<path d="M47.4444 46.1494C47.2868 46.2336 47.1455 46.3451 47.0286 46.481C46.8764 46.6277 46.7215 46.7528 46.5611 46.8995C46.2349 47.1686 45.8735 47.3969 45.4902 47.579C45.126 47.7475 44.7428 47.8698 44.346 47.9378C44.1612 47.9677 43.9736 47.9867 43.7861 47.9976C43.604 47.984 43.4192 47.9976 43.2425 48.0411C43.1066 48.09 43.1827 48.2748 43.2724 48.3292C43.6257 48.5439 44.1911 48.4596 44.577 48.3944C45.0119 48.3156 45.4332 48.177 45.8273 47.9758C46.2132 47.7829 46.572 47.541 46.8981 47.261C47.0639 47.117 47.2188 46.9621 47.3602 46.7935C47.5015 46.6685 47.5885 46.4946 47.6048 46.307C47.6184 46.2255 47.5341 46.1113 47.4444 46.1494Z" fill="black"/>
</g>
<g opacity="0.05">
<path d="M67.4539 30.3418C67.4077 30.2901 67.3534 30.3418 67.3452 30.3907C67.2936 30.6625 67.3452 30.9343 67.3099 31.2061C67.2637 31.5703 67.1577 31.9263 66.9892 32.2525C66.6685 32.8858 66.1249 33.5299 65.4236 33.7474C63.6977 34.291 62.2192 33.1576 61.0233 32.0568C60.9553 31.8367 60.8738 31.6219 60.7814 31.4099C60.5341 30.8663 60.2025 30.3608 59.8002 29.9178C59.4333 29.4884 59.031 29.0942 58.5962 28.7382C58.3733 28.5479 58.126 28.3849 57.8623 28.2544C57.6503 28.1267 57.4057 28.0669 57.1584 28.0886C57.0197 28.1185 57.0877 28.3278 57.1964 28.3604C57.6367 28.5045 58.0335 28.7572 58.3515 29.0942C58.713 29.434 59.0528 29.7982 59.3681 30.1814C59.7323 30.5918 60.0312 31.0566 60.2487 31.5621C60.371 31.8638 60.4607 32.1791 60.5205 32.4998C60.5476 32.6439 60.5721 32.7879 60.602 32.9293C60.6509 33.1087 60.7216 33.2799 60.8086 33.443C60.8385 33.5109 60.9417 33.587 60.9907 33.4946C61.0939 33.2908 61.1429 33.0679 61.1374 32.8396C61.5506 33.3125 62.0561 33.6957 62.6214 33.9675C63.5184 34.416 64.543 34.5274 65.516 34.2855C66.2798 34.0545 66.9239 33.5381 67.3126 32.8423C67.7448 32.1112 68.0655 31.0512 67.4539 30.3418Z" fill="black"/>
<path d="M71.2211 36.1364C70.6123 35.6771 69.8322 35.2531 69.0467 35.2748C68.8918 35.2748 69.0005 35.5629 69.1228 35.5711C69.6664 35.6173 70.2725 35.976 70.7128 36.2967C71.0798 36.5685 71.6505 37.0252 71.6369 37.5361C71.6233 38.251 70.3976 38.3678 69.8975 38.3515C68.9299 38.2863 68.003 37.9384 67.2339 37.3513C66.8289 37.0768 66.4647 36.7506 66.1467 36.3783C65.7825 35.938 65.6276 35.408 65.3694 34.9052C65.3286 34.8291 65.1764 34.7584 65.1628 34.9052C65.1492 35.5249 65.3395 36.1337 65.7064 36.6338C66.0189 37.085 66.4049 37.4818 66.8506 37.8025C67.7313 38.4847 68.8021 38.8761 69.9165 38.9277C70.6748 38.944 72.0392 38.6777 72.2159 37.7644C72.3355 37.0877 71.6967 36.4979 71.2211 36.1364Z" fill="black"/>
<path d="M78.8993 43.6978C78.5759 43.6054 78.179 43.7304 77.8529 43.7793C77.4642 43.8391 77.0756 43.9043 76.6842 43.9451C75.9123 44.0375 75.1322 44.0049 74.3712 43.8445C73.7434 43.7059 73.1454 43.4613 72.6018 43.1216C71.9848 42.6976 71.4358 42.1839 70.971 41.5995C70.8868 41.5044 70.7672 41.5451 70.7726 41.6729C70.827 42.0208 70.9738 42.3497 71.1994 42.6215C71.4032 42.9068 71.6505 43.1569 71.9305 43.3689C72.5257 43.8065 73.2025 44.1245 73.9173 44.3066C74.7272 44.5213 75.5725 44.592 76.4069 44.5131C76.8717 44.4697 77.3338 44.399 77.7931 44.3066C78.0296 44.2631 78.2606 44.206 78.4943 44.1544C78.652 44.119 78.9129 44.1082 79.008 43.956C79.0542 43.869 79.0243 43.7603 78.9373 43.7141C78.9265 43.7086 78.9129 43.7032 78.8993 43.6978Z" fill="black"/>
<path d="M76.4886 39.7486C76.3228 39.7486 76.456 40.0204 76.5511 40.0367C76.9833 40.1563 77.1137 41.0777 76.9235 41.4419C76.6381 41.9855 75.7548 42.0072 75.2302 42.0127C74.3822 42.0181 73.5478 41.8034 72.8085 41.3848C72.11 40.9853 71.5501 40.4063 70.8788 39.9715C70.7646 39.9008 70.7374 40.072 70.7945 40.1427C71.4251 40.8901 72.0801 41.6457 72.9689 42.0724C73.9011 42.5046 74.9421 42.6541 75.9586 42.4992C76.6299 42.3986 77.4453 42.1023 77.5133 41.3169C77.5867 40.6944 77.2306 39.7214 76.4886 39.7486Z" fill="black"/>
<path d="M79.7634 46.2852C79.7308 46.2662 79.6955 46.2526 79.6601 46.239C79.6085 46.2227 79.5542 46.2091 79.4998 46.1983C79.3965 46.1765 79.2932 46.1629 79.1899 46.1575C78.9616 46.1466 78.736 46.1629 78.5105 46.201C78.0049 46.2852 77.5157 46.432 77.0482 46.6413C76.6487 46.8044 76.2953 47.0626 76.0154 47.3887C75.7191 47.8209 75.5615 48.3318 75.5588 48.8537C75.5289 49.207 75.6023 49.5631 75.768 49.8756C76.0507 50.3649 76.5644 50.672 77.127 50.691C77.1732 50.691 77.2194 50.6801 77.2602 50.6557C77.3118 50.604 77.3227 50.5225 77.2874 50.4573C77.2493 50.3975 77.2004 50.3458 77.1406 50.3051C76.8878 50.1284 76.6623 49.911 76.4747 49.6663C75.9665 48.8727 76.2002 47.8209 76.9911 47.3126C76.9993 47.3072 77.0074 47.3017 77.0183 47.2963C77.445 47.0598 77.9016 46.8832 78.3773 46.769C78.8855 46.6059 79.4291 46.6059 79.9374 46.769C79.9917 46.7745 80.0407 46.7337 80.0461 46.6766C80.0461 46.6712 80.0461 46.6657 80.0461 46.6603C80.0706 46.5652 79.8368 46.3206 79.7634 46.2852Z" fill="black"/>
<path d="M81.0326 52.5093C80.489 51.3406 79.1735 50.6231 77.9423 50.4165C77.271 50.3024 76.0995 50.2534 75.6619 50.8894C75.6348 50.9221 75.6184 50.9655 75.6157 51.009C75.6239 51.0743 75.6728 51.1286 75.738 51.1422C75.8005 51.1558 75.8685 51.1558 75.931 51.1422C76.4746 51.0416 76.9557 50.8704 77.5237 50.9139C78.6 51.0036 79.5894 51.5472 80.2417 52.4088C80.6983 53.0855 80.8179 54.2053 80.3015 54.8902C79.8584 55.4746 79.0512 55.4773 78.3989 55.3007C78.0265 55.2246 77.6814 55.0425 77.4068 54.7788C77.1758 54.507 77.3362 54.2108 77.5346 53.9634C77.6379 53.8384 77.4503 53.5612 77.3009 53.659C76.8551 53.9471 76.4855 54.42 76.7899 54.9528C77.0345 55.3061 77.3933 55.567 77.8037 55.6948C78.6897 56.0372 79.7742 56.1188 80.5597 55.4828C81.3995 54.8087 81.4593 53.428 81.0326 52.5093Z" fill="black"/>
<path d="M79.8017 58.2035C79.606 57.7849 79.3179 57.4125 78.9619 57.1163C78.6248 56.8091 78.1764 56.6624 77.7225 56.7059C77.573 56.733 77.6654 56.9777 77.785 56.9777C78.5542 57.0347 79.0679 57.7767 79.3288 58.429C79.4592 58.7552 79.5381 59.0977 79.5625 59.4483C79.5707 59.6168 79.5653 59.7853 79.5462 59.9511C79.5462 60.0109 79.5245 60.0707 79.5163 60.1305C79.4864 60.2446 79.4783 60.3642 79.4864 60.4811C79.5082 60.5762 79.5843 60.6795 79.693 60.6387C79.8751 60.5653 80.0056 60.2827 80.0626 60.1114C80.1251 59.8967 80.1523 59.6739 80.136 59.451C80.1116 59.0161 79.9974 58.5921 79.8017 58.2035Z" fill="black"/>
</g>
<g opacity="0.2">
<path d="M53.851 37.3568C53.6608 37.3242 53.4732 37.4438 53.3672 37.789C53.1226 38.5663 53.3672 39.8546 53.4461 40.6483C53.5466 41.7898 53.7369 42.9205 54.0168 44.0294C54.2451 44.929 54.5441 45.8395 55.1421 46.5489C55.7346 47.1931 56.4739 47.685 57.3001 47.9786C59.5044 48.8619 61.9858 48.9951 64.095 50.1013C64.3668 50.2372 64.6848 50.3731 64.9104 50.1964C65.0707 50.0333 65.0925 49.7833 64.9674 49.593C64.8397 49.4136 64.6603 49.2723 64.4565 49.1881C63.6166 48.7776 62.6816 48.6227 61.7793 48.3727C60.2491 47.9922 58.8194 47.2855 57.5909 46.2989C56.3651 45.3041 55.4764 43.9587 55.0469 42.4394C54.7942 41.4745 54.7751 40.4716 54.6311 39.4877C54.5577 38.9686 54.593 38.3842 54.3837 37.895C54.3022 37.6422 54.1038 37.4411 53.851 37.3568Z" fill="white"/>
<path d="M49.2359 41.2326C49.1245 42.1268 48.4151 42.8281 47.5209 42.9313C47.3551 42.9178 47.1893 42.964 47.0561 43.0645C46.8468 43.2928 47.1241 43.638 47.3795 43.812C48.2275 44.3909 49.2468 44.9318 50.2361 44.6627C51.2716 44.3909 51.9049 43.2629 51.9511 42.1893C51.9919 41.2897 51.4075 36.5632 49.5702 38.001C48.7086 38.6778 49.3419 40.3276 49.2359 41.2326Z" fill="white"/>
<path d="M47.2954 41.1674C47.9884 38.7538 43.4902 36.0549 43.3299 39.1805C43.281 39.591 43.3489 40.0068 43.5256 40.3819C44.2105 41.5968 45.3711 39.7078 46.3278 40.8874C46.4311 41.0478 46.5507 41.2 46.6866 41.3359C46.8306 41.4745 47.0562 41.4799 47.2084 41.3522C47.2519 41.2978 47.2818 41.2353 47.2954 41.1674Z" fill="white"/>
<path d="M57.9902 51.8191C58.1425 52.0147 58.3246 52.1805 58.5338 52.311C60.4174 53.67 62.0155 55.6541 62.2085 57.967C62.2493 58.4644 62.2955 59.0814 62.7521 59.2717C63.032 59.3559 63.3364 59.3124 63.5811 59.1521C64.4617 58.6683 64.9591 57.649 65.0189 56.6461C65.0379 55.635 64.8014 54.6376 64.3312 53.7434C63.7523 52.4958 62.7548 51.4086 61.3958 51.0417C60.8251 50.895 57.0716 50.4411 57.9902 51.8191Z" fill="white"/>
<path d="M46.2543 51.3624C46.8197 51.444 47.3795 51.8245 47.9721 51.887C48.7032 51.9658 49.5593 51.887 50.1736 51.4548C50.3693 51.2782 50.5759 51.1097 50.7933 50.9574C51.2798 50.7319 51.8587 50.8514 52.2175 51.251C52.56 51.656 52.7312 52.1778 52.6931 52.7051C52.7013 53.3628 52.3996 53.9852 51.8777 54.3875C51.1711 54.8713 50.2171 54.6919 49.399 54.4473C48.0998 54.0586 46.8115 53.5368 45.7868 52.6507C45.6075 52.5148 45.4661 52.3382 45.3683 52.137C45.2731 51.9278 45.3112 51.6831 45.4634 51.5119C45.602 51.4032 45.7732 51.3461 45.9472 51.3488C46.0505 51.3434 46.1538 51.3488 46.2543 51.3624Z" fill="white"/>
<path d="M58.0067 44.342C59.1319 45.5922 60.6784 46.3886 62.2494 46.9893C63.7443 47.5627 66.0926 48.3972 67.6853 47.7258C68.1745 47.5193 68.5849 47.0219 68.5143 46.4973C68.4436 45.9727 67.9924 45.6439 67.5467 45.4101C65.9675 44.5594 64.1465 44.2197 62.5456 43.4152C62.2385 43.2602 61.82 43.1216 61.5862 43.3744C61.3525 43.6272 61.502 44.005 61.7411 44.2197C62.1244 44.5621 62.5538 44.8529 63.0159 45.0813C63.6165 45.3531 64.8097 45.4509 65.2799 45.8966C65.7501 46.3424 65.3451 46.6631 64.7798 46.5788C63.1952 46.3397 61.6107 45.8994 60.2734 45.016C59.1591 44.3066 58.3029 43.2575 57.8273 42.0263C57.6588 41.5751 57.5256 41.1131 57.4332 40.6401C57.3843 40.3683 57.4876 39.6046 57.2402 39.4116C56.4602 38.7974 56.5417 41.2055 56.5933 41.5099C56.789 42.5672 57.2783 43.5483 58.0067 44.342Z" fill="white"/>
<path d="M55.2615 32.2797C54.794 31.66 54.0411 31.323 53.2665 31.3855C52.5028 31.4562 51.7771 31.7524 51.1846 32.2416C50.1055 31.3502 48.6949 30.9615 47.3115 31.1735C46.2895 31.3203 45.2295 31.7796 44.5935 32.6439C44.4767 32.807 44.387 33.0597 44.5446 33.1875C44.6153 33.2337 44.6968 33.2582 44.7811 33.2554C45.8438 33.3044 46.9092 32.8206 48.0154 32.8423C49.1706 32.8342 50.3067 33.1386 51.3041 33.7229C51.9401 34.117 52.4973 34.6552 53.2067 34.9161C54.1118 35.2558 55.1201 34.7992 55.4626 33.8942C55.6664 33.356 55.5903 32.7526 55.2615 32.2797Z" fill="white"/>
<path d="M39.8154 35.1716C39.1115 36.0441 38.7146 37.1285 38.6929 38.251C38.6739 39.4687 39.1903 40.4743 40.5465 40.4825C40.677 40.4906 40.8075 40.4662 40.927 40.4118C41.2967 40.2161 41.2695 39.6915 41.2314 39.2757C41.1227 38.0309 41.4081 36.7861 42.0468 35.7125C42.2262 35.4108 42.4437 35.071 42.3431 34.734C42.2371 34.4595 41.9843 34.2692 41.6908 34.2393C40.9243 34.1252 40.2775 34.6008 39.8154 35.1716Z" fill="white"/>
<path d="M59.9933 61.1469C60.1021 60.2011 60.0423 59.2416 59.8167 58.3175C59.5041 56.9477 58.705 55.7409 57.5716 54.912C56.9927 54.4988 55.843 53.8248 55.1472 54.314C54.4514 54.8032 54.6471 55.7491 55.0657 56.3199C55.4843 56.8906 56.1175 57.2847 56.5823 57.8283C57.1504 58.5377 57.4901 59.402 57.5608 60.3098C57.645 61.1089 57.3732 61.7911 57.4004 62.5467C57.3977 62.813 57.52 63.0631 57.732 63.2234C57.8761 63.3104 58.0418 63.3539 58.2104 63.3457C58.7893 63.2941 59.3003 62.9544 59.5693 62.4407C59.7922 62.0411 59.9363 61.6008 59.9933 61.1469Z" fill="white"/>
<path d="M46.885 56.8663L50.7145 58.1383C51.4457 58.3503 52.1523 58.6465 52.8155 59.0216C53.4814 59.4048 53.9951 60.0082 54.2615 60.7285C54.3756 61.0791 54.4599 61.5167 54.8051 61.639C55.1448 61.7124 55.4845 61.5058 55.5715 61.1688C55.6422 60.8399 55.596 60.4947 55.4438 60.1958C54.7779 58.5976 53.2395 57.5213 51.6386 56.8527C50.0378 56.1841 48.3282 55.828 46.73 55.1594C45.1319 54.4881 43.6751 53.5178 42.4438 52.2974C41.8704 51.7294 41.2425 51.6261 41.3023 52.6073C41.4708 55.2138 44.8601 56.195 46.885 56.8663Z" fill="white"/>
<path d="M69.3267 52.7839C68.9163 52.2566 68.3754 52.6562 68.3536 53.3927C68.3319 54.1293 68.8836 54.8115 69.5006 55.2491C70.1176 55.6867 70.8351 55.9857 71.4032 56.4803C71.694 56.7195 71.9549 56.994 72.1805 57.2957C72.4523 57.698 72.6072 58.9863 73.3492 58.2633C73.8792 57.7496 73.602 56.5564 73.2459 56.0509C72.8056 55.4285 72.1207 55.0371 71.4575 54.662C70.7536 54.2625 69.8268 53.7461 69.449 53.0068C69.4136 52.9307 69.3729 52.8546 69.3267 52.7839Z" fill="white"/>
<path d="M71.7242 62.2233C70.917 61.9325 70.2647 61.3236 69.9223 60.5354C69.8733 60.4131 69.7809 60.2636 69.6505 60.2935C69.52 60.3234 69.5336 60.4865 69.5526 60.6034C69.6233 61.0518 69.6314 61.5438 69.8597 61.9406C70.1179 62.3565 70.4468 62.7234 70.83 63.0278C71.1426 63.2697 71.3981 63.5768 71.5775 63.9302C71.7406 64.2998 71.7161 64.7211 71.9553 65.0662C72.083 65.2456 72.257 65.3815 72.4608 65.4631C73.2164 65.743 74.0562 65.3761 74.3634 64.6314C75.0211 62.8865 72.9827 62.6962 71.7242 62.2233Z" fill="white"/>
<path d="M40.2121 42.5889C39.9349 42.578 39.6577 42.6215 39.3967 42.7167C39.1331 42.8145 38.932 43.0319 38.8532 43.301C38.8097 43.7087 39.0271 44.0974 39.3967 44.274C39.7637 44.4371 40.1469 44.554 40.541 44.6247C41.1661 44.7932 41.745 45.0976 42.237 45.5161C42.4517 45.6982 42.7208 45.9184 42.9817 45.807C43.1747 45.6847 43.2861 45.4672 43.2698 45.2389C43.2943 44.8258 43.2019 44.4154 42.998 44.0539C42.4191 43.0211 41.3319 42.5835 40.2121 42.5889Z" fill="white"/>
</g>
<path d="M60.3629 29.9721C60.9663 30.7875 61.4746 31.679 62.2356 32.3422C62.9966 33.0054 64.1164 33.3886 65.0297 32.9564C65.6222 32.6547 66.0353 32.0894 66.1413 31.4317C66.2854 30.5674 65.8695 29.3524 65.1357 28.8578C64.1409 28.2245 62.8607 28.268 61.9122 28.9665C61.8524 29.0236 61.7763 29.0671 61.6947 29.0861C61.5969 29.0861 61.5018 29.0507 61.4229 28.991C60.9392 28.692 59.852 27.6891 59.2486 27.9038C58.406 28.181 60.1374 29.665 60.3629 29.9721Z" fill="#4586E6"/>
<path d="M67.8751 33.9023C67.8344 33.973 67.8262 34.0572 67.8507 34.1333C67.8969 34.1986 67.9703 34.2393 68.0491 34.2475C68.5709 34.3725 69.1036 34.4405 69.6228 34.5818C70.6094 34.8536 71.5063 35.3836 72.2211 36.1147C72.7158 36.5632 73.0311 37.1747 73.1153 37.8379C73.1534 38.4984 72.7321 39.2132 72.0825 39.3273C71.9792 39.6589 72.2945 39.9633 72.5853 40.1427C73.0528 40.4444 73.5448 40.6999 74.0612 40.9065C74.6319 41.1348 75.4011 41.2489 75.7572 40.7488C76.029 40.3765 75.8876 39.8329 75.5778 39.4986C75.2408 39.1887 74.8385 38.9604 74.4009 38.83C75.1918 37.9765 75.1647 36.5496 74.477 35.6119C73.7894 34.6742 72.5745 34.2203 71.403 34.291C71.1747 34.3345 70.9383 34.3046 70.7263 34.2067C70.2995 33.9349 70.5034 33.2799 70.4789 32.8641C70.4327 32.1194 69.8728 30.9914 68.9841 31.5758C68.2828 32.046 68.1714 33.1984 67.8751 33.9023Z" fill="#4586E6"/>
<path d="M67.3752 35.7396C67.1605 35.7015 66.9403 35.783 66.8017 35.9516C66.6713 36.1826 66.8642 36.4625 67.0735 36.6392C67.3453 36.8865 67.6497 37.0931 67.9786 37.2589C68.6363 37.5905 69.3702 37.7427 70.1067 37.6992C70.2019 37.6992 70.2943 37.6775 70.3785 37.6394C71.0417 37.2779 70.2589 36.1799 69.8105 36.0086C69.1201 35.7287 68.1118 35.7532 67.3752 35.7396Z" fill="#4586E6"/>
<path d="M73.4227 44.8338C73.284 44.7958 73.1346 44.8202 73.015 44.9018C72.9117 45.0213 72.8981 45.1926 72.9851 45.3258C73.1563 45.6247 73.4335 45.8693 73.6156 46.1792C73.8439 46.5543 73.9662 46.9837 73.969 47.424C73.969 47.7746 73.8983 48.1497 74.0722 48.4541C74.1674 48.6172 74.325 48.7395 74.4093 48.9053C74.4609 49.0059 74.4854 49.12 74.537 49.2206C74.5832 49.3266 74.6811 49.4 74.7952 49.4135C74.9746 49.4135 75.067 49.207 75.1159 49.033C75.2817 48.4025 75.2681 47.6741 75.5508 47.087C75.8688 46.4211 76.464 46.2308 77.0892 45.9998C77.8121 45.7144 78.5922 45.6682 79.3423 45.4861C79.4456 45.4644 79.5435 45.4236 79.6332 45.3692C79.7228 45.3095 79.7772 45.2062 79.7718 45.0975C79.7283 44.736 79.0026 44.8257 78.777 44.8528C76.9995 45.1083 75.1975 45.1002 73.4227 44.8338Z" fill="#4586E6"/>
<path d="M77.103 49.3972C77.103 48.3699 78.5191 47.6496 79.4051 47.6442C80.0873 47.6632 80.7478 47.8779 81.3077 48.2666C82.0198 48.7341 82.2834 49.8973 82.0986 50.691C82.0524 50.9383 81.9301 51.1639 81.7534 51.3406C81.5686 51.5172 81.2968 51.5662 81.0631 51.4656C80.9245 51.3786 80.8076 51.2617 80.7179 51.1259C80.0493 50.3023 79.06 49.8076 78 49.7669C77.6493 49.7479 77.209 49.7234 77.103 49.3972Z" fill="#4586E6"/>
<path d="M78.7904 51.8162C78.2659 51.6015 77.6978 51.52 77.1352 51.5825C76.9177 51.5933 76.7085 51.6694 76.5372 51.8026C76.3633 51.944 76.3198 52.1913 76.434 52.3843C76.5019 52.4631 76.5862 52.5283 76.6813 52.5691C77.1379 52.8164 77.5782 53.0991 77.9941 53.4116C78.1517 53.5122 78.2822 53.6535 78.3664 53.8193C78.4017 53.9987 78.4534 54.1781 78.5186 54.3493C78.679 54.5342 78.91 54.6402 79.1546 54.6402C79.315 54.6755 79.4808 54.6701 79.6384 54.6184C79.8287 54.5043 79.9591 54.3086 79.989 54.0884C80.2309 53.0311 79.5732 51.9793 78.5159 51.7347C78.3664 51.6993 78.2142 51.683 78.062 51.6858" fill="#4586E6"/>
<path d="M66.7229 38.7919C66.6305 38.7593 66.5299 38.7756 66.4511 38.8299C66.3913 38.9033 66.3913 39.0093 66.4511 39.0827C66.5136 39.1506 66.5924 39.205 66.6794 39.2376C67.3154 39.4958 67.9242 39.8247 68.4896 40.2134C69.0576 40.6129 69.4436 41.2244 69.5631 41.9094C69.5822 42.0806 69.593 42.2817 69.7371 42.3741C69.8974 42.453 70.0931 42.3959 70.1856 42.241C70.2725 42.0915 70.3187 41.9202 70.3187 41.7463C70.3894 40.9554 70.5905 39.7377 69.6583 39.3735C69.3077 39.2838 68.9516 39.224 68.5928 39.1941C67.9731 39.0664 67.3535 38.906 66.7229 38.7919Z" fill="#4586E6"/>
<path d="M51.7688 28.798C51.5487 28.9394 51.3041 29.1296 51.3122 29.3905C51.3503 29.6243 51.5324 29.8064 51.7661 29.8417C51.9971 29.8662 52.2282 29.8472 52.451 29.7819C53.9758 29.4612 55.7452 29.6025 56.8215 30.7305C57.0036 30.9588 57.2129 31.1681 57.4439 31.3475C58.1179 31.7823 59.0067 31.7062 59.7487 31.891C59.7596 31.7361 59.7215 31.5812 59.64 31.4507C58.2566 28.798 54.4378 27.0939 51.7688 28.798Z" fill="#4586E6"/>
<path d="M79.6059 56.5129C79.4402 56.5428 79.2472 56.6162 79.2091 56.7847C79.1711 56.9532 79.2961 57.0782 79.4048 57.1896L79.9104 57.6979C80.0327 57.8121 80.1414 57.9371 80.2338 58.0757C80.4539 58.4345 80.4512 58.8911 80.5382 59.2933C80.5654 59.4184 80.6306 59.5651 80.7584 59.5787C80.8317 59.576 80.8997 59.5434 80.9486 59.489C81.3509 59.1303 81.3916 58.5269 81.3889 57.986C81.3998 56.8119 80.7584 56.3009 79.6059 56.5129Z" fill="#4586E6"/>
<path d="M54.4758 46.7718C54.4758 47.0817 54.2258 47.3344 53.9159 47.3371C53.6061 47.3371 53.3533 47.0871 53.3506 46.7772C53.3479 46.4674 53.6007 46.2146 53.9105 46.2119C54.2204 46.2119 54.4704 46.462 54.4731 46.7718H54.4758Z" fill="#FAFAFA"/>
<path d="M50.5867 36.0305C50.5867 36.3403 50.3366 36.5931 50.0268 36.5958C49.7169 36.5958 49.4641 36.3458 49.4614 36.0359C49.4614 35.7261 49.7115 35.4733 50.0213 35.4706C50.0213 35.4706 50.024 35.4706 50.0268 35.4706C50.3366 35.4706 50.5839 35.7206 50.5867 36.0305Z" fill="#FAFAFA"/>
<path d="M45.9797 42.0262C45.9797 42.3361 45.727 42.5889 45.4171 42.5889C45.1073 42.5889 44.8545 42.3361 44.8545 42.0262C44.8545 41.7164 45.1073 41.4636 45.4171 41.4636C45.727 41.4636 45.977 41.7137 45.977 42.0235C45.977 42.0235 45.977 42.0235 45.977 42.0262H45.9797Z" fill="#FAFAFA"/>
<path d="M40.5329 45.0621C40.5329 45.372 40.2802 45.6247 39.9703 45.6247C39.6605 45.6247 39.4077 45.372 39.4077 45.0621C39.4077 44.7523 39.6605 44.4995 39.9703 44.4995C40.2802 44.4995 40.5302 44.7496 40.5302 45.0594C40.5302 45.0594 40.5302 45.0594 40.5302 45.0621H40.5329Z" fill="#FAFAFA"/>
<path d="M52.2663 50.3459C52.2663 50.6558 52.0162 50.9058 51.7064 50.9058C51.3965 50.9058 51.1465 50.6558 51.1465 50.3459C51.1465 50.0361 51.3965 49.786 51.7064 49.786C52.0162 49.786 52.2636 50.0361 52.2663 50.3459Z" fill="#FAFAFA"/>
<path d="M43.7698 51.5689C43.7698 51.8788 43.5197 52.1315 43.2099 52.1343C42.9 52.137 42.6473 51.8842 42.6446 51.5744C42.6418 51.2645 42.8946 51.0118 43.2045 51.009C43.2045 51.009 43.2072 51.009 43.2099 51.009C43.5197 51.009 43.7671 51.2591 43.7698 51.5689Z" fill="#FAFAFA"/>
<path d="M65.1491 51.9521C65.1491 52.262 64.8963 52.512 64.5865 52.5093C64.2767 52.5066 64.0266 52.2566 64.0293 51.9467C64.0293 51.6396 64.2821 51.3895 64.5892 51.3895C64.8991 51.3895 65.1491 51.6396 65.1491 51.9494C65.1491 51.9494 65.1491 51.9494 65.1491 51.9521Z" fill="#FAFAFA"/>
<path d="M61.0994 62.9326C61.0994 63.2425 60.8466 63.4952 60.5367 63.4952C60.2269 63.4952 59.9741 63.2425 59.9741 62.9326C59.9741 62.6228 60.2269 62.37 60.5367 62.37C60.8466 62.37 61.0966 62.62 61.0966 62.9299C61.0966 62.9299 61.0966 62.9299 61.0966 62.9326H61.0994Z" fill="#FAFAFA"/>
<path d="M65.9645 46.2445C65.9645 46.5543 65.7145 46.8044 65.4046 46.8044C65.0948 46.8044 64.8447 46.5543 64.8447 46.2445C64.8447 45.9346 65.0948 45.6846 65.4046 45.6846C65.7145 45.6846 65.9645 45.9346 65.9645 46.2445Z" fill="#FAFAFA"/>
<path d="M65.9265 34.9106C65.9265 35.2205 65.6764 35.4732 65.3666 35.4759C65.0568 35.4759 64.804 35.2259 64.8013 34.916C64.8013 34.6062 65.0513 34.3534 65.3612 34.3507C65.3612 34.3507 65.3639 34.3507 65.3666 34.3507C65.6764 34.3507 65.9238 34.6008 65.9265 34.9106Z" fill="#F0F0F0"/>
<path d="M76.176 42.4149C76.176 42.7248 75.9232 42.9775 75.6134 42.9775C75.3036 42.9775 75.0508 42.7248 75.0508 42.4149C75.0508 42.1051 75.3036 41.8523 75.6134 41.8523C75.9232 41.8523 76.1733 42.1023 76.1733 42.4122C76.1733 42.4122 76.1733 42.4122 76.1733 42.4149H76.176Z" fill="#F0F0F0"/>
<path d="M77.7034 50.6829C77.7034 50.9927 77.4506 51.2455 77.1407 51.2455C76.8309 51.2455 76.5781 50.9927 76.5781 50.6829C76.5781 50.373 76.8309 50.1202 77.1407 50.1202C77.4506 50.1202 77.7006 50.3703 77.7006 50.6801C77.7006 50.6801 77.7006 50.6801 77.7006 50.6829H77.7034Z" fill="#F0F0F0"/>
<path d="M59.175 28.9258C59.175 29.2356 58.9223 29.4884 58.6124 29.4884C58.3026 29.4884 58.0498 29.2356 58.0498 28.9258C58.0498 28.6159 58.3026 28.3632 58.6124 28.3632C58.9223 28.3632 59.175 28.6159 59.175 28.9258Z" fill="#F0F0F0"/>
<path d="M59.5749 37.4112C59.5749 37.7211 59.3248 37.9711 59.015 37.9711C58.7051 37.9711 58.4551 37.7211 58.4551 37.4112C58.4551 37.1014 58.7051 36.8513 59.015 36.8513C59.3248 36.8513 59.5722 37.1014 59.5749 37.4112Z" fill="#FAFAFA"/>
<path d="M59.7542 55.6187C60.0635 55.6187 60.3141 55.368 60.3141 55.0588C60.3141 54.7496 60.0635 54.4989 59.7542 54.4989C59.445 54.4989 59.1943 54.7496 59.1943 55.0588C59.1943 55.368 59.445 55.6187 59.7542 55.6187Z" fill="#FAFAFA"/>
<path d="M71.7702 57.4669C71.7702 57.7767 71.5201 58.0268 71.2103 58.0268C70.9004 58.0268 70.6504 57.7767 70.6504 57.4669C70.6504 57.157 70.9004 56.907 71.2103 56.907C71.5201 56.907 71.7702 57.157 71.7702 57.4669Z" fill="#FAFAFA"/>
<path d="M45.1614 56.869C45.1587 57.1788 44.9032 57.4289 44.5933 57.4261C44.2835 57.4234 44.0334 57.1679 44.0362 56.8581C44.0389 56.5482 44.2889 56.3009 44.5988 56.3009C44.9086 56.3009 45.1614 56.5537 45.1614 56.8635C45.1614 56.8635 45.1614 56.8662 45.1614 56.869Z" fill="#FAFAFA"/>
<path d="M54.4758 60.9213C54.4758 61.2312 54.2258 61.484 53.9159 61.4867C53.6061 61.4867 53.3533 61.2366 53.3506 60.9268C53.3479 60.6169 53.6007 60.3642 53.9105 60.3615C54.2204 60.3615 54.4704 60.6115 54.4731 60.9213H54.4758Z" fill="#FAFAFA"/>
<path d="M69.6394 62.7832C69.6394 63.093 69.3866 63.3458 69.0768 63.3458C68.7669 63.3458 68.5142 63.093 68.5142 62.7832C68.5142 62.4734 68.7669 62.2206 69.0768 62.2206C69.3866 62.2206 69.6394 62.4734 69.6394 62.7832Z" fill="#FAFAFA"/>
</svg>
