<svg width="120" height="118" viewBox="0 0 120 118" fill="none" xmlns="http://www.w3.org/2000/svg">
<g clip-path="url(#clip0_1013_8898)">
<path d="M63.7888 117.638L0.61912 81.1161C-0.221482 80.6299 -0.229897 78.9067 0.740288 78.3455L43.526 54.5501C44.4962 53.9889 45.9637 53.9283 46.8043 54.4144L110.08 90.0874C110.921 90.5736 110.709 92.2714 109.739 92.8318L67.0679 117.503C66.0978 118.064 64.6303 118.125 63.7897 117.638H63.7888Z" fill="#AEBECC"/>
<path d="M109.739 91.8864L67.067 116.557C66.0959 117.118 64.6285 117.179 63.7879 116.694L37.7216 101.621C37.9185 101.507 38.0203 101.362 38.0203 101.223C38.0203 101.11 37.9505 101 37.8083 100.917L27.907 95.1911C27.5931 95.0108 27.0479 95.0335 26.6861 95.2425L0.617296 80.1715C-0.221624 79.6845 -0.117285 78.8368 0.853741 78.2756L43.5259 53.6047C44.4952 53.0435 45.9627 52.9828 46.8033 53.4682L109.973 89.9905C110.814 90.4758 110.708 91.3252 109.738 91.8864H109.739Z" fill="#E7EEF2"/>
<path d="M47.428 105.94L19.2169 89.6298C18.8811 89.4351 18.9232 89.0964 19.3111 88.8714L36.2982 79.0507C36.6861 78.8266 37.2734 78.8022 37.6092 78.996L65.8203 95.3065C66.156 95.5011 66.1139 95.8399 65.726 96.0648L48.7389 105.886C48.351 106.11 47.7637 106.134 47.428 105.94Z" fill="#DAE1E5"/>
<path d="M81.9238 103.956L22.65 69.6868C22.3143 69.4922 22.3563 69.1534 22.7442 68.9285L44.7303 56.2176C45.1182 55.9935 45.7056 55.9691 46.0413 56.1629L105.315 90.432C105.651 90.6266 105.609 90.9654 105.221 91.1903L83.2348 103.901C82.8469 104.125 82.2596 104.15 81.9238 103.956Z" fill="#AEBECC"/>
<path d="M42.3834 62.0426L39.2313 60.2209C39.063 60.124 39.0841 59.9537 39.2784 59.8417L42.2538 58.1211C42.4482 58.009 42.741 57.9964 42.9093 58.0941L46.0613 59.9158C46.2296 60.0127 46.2086 60.1829 46.0142 60.295L43.0388 62.0156C42.8445 62.1277 42.5517 62.1403 42.3834 62.0426Z" fill="#5B5B72"/>
<path d="M46.5333 64.4415L43.3812 62.6198C43.2129 62.5229 43.234 62.3527 43.4283 62.2406L46.4037 60.52C46.5981 60.4079 46.8909 60.3953 47.0592 60.493L50.2112 62.3148C50.3795 62.4117 50.3585 62.5819 50.1641 62.6939L47.1887 64.4146C46.9944 64.5266 46.7016 64.5393 46.5333 64.4415Z" fill="#5B5B72"/>
<path d="M50.6841 66.8413L47.5321 65.0196C47.3638 64.9227 47.3848 64.7525 47.5792 64.6404L50.5546 62.9198C50.7489 62.8077 51.0418 62.7951 51.21 62.8928L54.3621 64.7145C54.5304 64.8114 54.5093 64.9816 54.315 65.0937L51.3396 66.8143C51.1453 66.9264 50.8524 66.939 50.6841 66.8413Z" fill="#5B5B72"/>
<path d="M54.834 69.2402L51.682 67.4185C51.5137 67.3216 51.5347 67.1514 51.7291 67.0393L54.7045 65.3187C54.8988 65.2066 55.1917 65.194 55.3599 65.2917L58.512 67.1135C58.6803 67.2104 58.6592 67.3806 58.4649 67.4926L55.4895 69.2133C55.2952 69.3253 55.0023 69.338 54.834 69.2402Z" fill="#5B5B72"/>
<path d="M58.9839 71.64L55.8319 69.8183C55.6636 69.7214 55.6846 69.5512 55.879 69.4391L58.8544 67.7185C59.0487 67.6064 59.3416 67.5938 59.5098 67.6915L62.6619 69.5132C62.8302 69.6101 62.8092 69.7803 62.6148 69.8924L59.6394 71.613C59.4451 71.7251 59.1522 71.7377 58.9839 71.64Z" fill="#5B5B72"/>
<path d="M63.1343 74.0389L59.9823 72.2172C59.814 72.1203 59.835 71.9501 60.0294 71.838L63.0048 70.1174C63.1991 70.0053 63.492 69.9927 63.6602 70.0904L66.8123 71.9122C66.9806 72.0091 66.9595 72.1793 66.7652 72.2913L63.7898 74.012C63.5954 74.124 63.3026 74.1367 63.1343 74.0389Z" fill="#5B5B72"/>
<path d="M67.2842 76.4387L64.1322 74.617C63.9639 74.5201 63.9849 74.3499 64.1793 74.2378L67.1547 72.5172C67.349 72.4051 67.6419 72.3925 67.8101 72.4902L70.9622 74.3119C71.1305 74.4088 71.1094 74.5791 70.9151 74.6911L67.9397 76.4117C67.7454 76.5238 67.4525 76.5364 67.2842 76.4387Z" fill="#5B5B72"/>
<path d="M71.4341 78.8376L68.2821 77.0159C68.1138 76.919 68.1348 76.7488 68.3292 76.6367L71.3046 74.9161C71.4989 74.804 71.7918 74.7914 71.96 74.8891L75.1121 76.7109C75.2804 76.8078 75.2593 76.978 75.065 77.09L72.0896 78.8107C71.8953 78.9227 71.6024 78.9354 71.4341 78.8376Z" fill="#5B5B72"/>
<path d="M75.584 81.2374L72.432 79.4157C72.2637 79.3188 72.2847 79.1486 72.4791 79.0365L75.4545 77.3159C75.6488 77.2038 75.9417 77.1912 76.1099 77.2889L79.262 79.1107C79.4303 79.2076 79.4092 79.3778 79.2149 79.4898L76.2395 81.2104C76.0452 81.3225 75.7523 81.3352 75.584 81.2374Z" fill="#5B5B72"/>
<path d="M79.7339 83.6372L76.5819 81.8155C76.4136 81.7186 76.4346 81.5484 76.629 81.4363L79.6044 79.7157C79.7987 79.6036 80.0916 79.591 80.2599 79.6887L83.4119 81.5104C83.5802 81.6073 83.5592 81.7775 83.3648 81.8896L80.3894 83.6102C80.1951 83.7223 79.9022 83.7349 79.7339 83.6372Z" fill="#5B5B72"/>
<path d="M83.8843 86.0361L80.7323 84.2144C80.564 84.1175 80.585 83.9473 80.7794 83.8352L83.7548 82.1146C83.9491 82.0025 84.2419 81.9899 84.4102 82.0876L87.5623 83.9094C87.7306 84.0063 87.7095 84.1765 87.5152 84.2885L84.5398 86.0092C84.3454 86.1212 84.0526 86.1339 83.8843 86.0361Z" fill="#5B5B72"/>
<path d="M88.0352 88.4359L84.8832 86.6142C84.7149 86.5173 84.7359 86.3471 84.9303 86.235L87.9056 84.5144C88.1 84.4023 88.3928 84.3897 88.5611 84.4874L91.7132 86.3091C91.8815 86.406 91.8604 86.5763 91.666 86.6883L88.6907 88.4089C88.4963 88.521 88.2035 88.5336 88.0352 88.4359Z" fill="#5B5B72"/>
<path d="M92.1851 90.8348L89.0331 89.0131C88.8648 88.9162 88.8858 88.746 89.0802 88.6339L92.0555 86.9133C92.2499 86.8012 92.5427 86.7886 92.711 86.8863L95.8631 88.7081C96.0314 88.805 96.0103 88.9752 95.8159 89.0872L92.8406 90.8079C92.6462 90.9199 92.3534 90.9326 92.1851 90.8348Z" fill="#5B5B72"/>
<path d="M98.2982 94.3696L93.1814 91.4112C93.0139 91.3143 93.035 91.1458 93.2285 91.0337L96.2072 89.3114C96.4007 89.1993 96.6927 89.1875 96.8593 89.2844L101.976 92.2428C102.144 92.3397 102.123 92.5083 101.929 92.6203L98.9503 94.3426C98.7568 94.4547 98.4648 94.4665 98.2982 94.3696Z" fill="#5B5B72"/>
<path d="M40.3479 65.4965L35.3 62.5786C35.0914 62.4581 35.1175 62.2474 35.3589 62.1076L38.1643 60.4855C38.4058 60.3465 38.7702 60.3313 38.9788 60.4518L44.0267 63.3698C44.2353 63.4903 44.2093 63.7009 43.9678 63.8408L41.1624 65.4628C40.9209 65.6019 40.5565 65.617 40.3479 65.4965Z" fill="#5B5B72"/>
<path d="M44.565 67.935L41.413 66.1133C41.2447 66.0164 41.2657 65.8462 41.4601 65.7341L44.4354 64.0135C44.6298 63.9014 44.9226 63.8888 45.0909 63.9866L48.243 65.8083C48.4112 65.9052 48.3902 66.0754 48.1958 66.1875L45.2205 67.9081C45.0261 68.0201 44.7333 68.0328 44.565 67.935Z" fill="#5B5B72"/>
<path d="M48.7095 70.3314L45.5575 68.5097C45.3892 68.4128 45.4102 68.2426 45.6046 68.1305L48.58 66.4099C48.7743 66.2978 49.0671 66.2852 49.2354 66.3829L52.3875 68.2046C52.5558 68.3015 52.5347 68.4718 52.3404 68.5838L49.365 70.3044C49.1706 70.4165 48.8778 70.4291 48.7095 70.3314Z" fill="#5B5B72"/>
<path d="M52.8536 72.727L49.7015 70.9053C49.5332 70.8084 49.5543 70.6382 49.7486 70.5261L52.724 68.8055C52.9184 68.6934 53.2112 68.6808 53.3795 68.7785L56.5315 70.6003C56.6998 70.6972 56.6788 70.8674 56.4844 70.9795L53.5091 72.7001C53.3147 72.8121 53.0219 72.8248 52.8536 72.727Z" fill="#5B5B72"/>
<path d="M61.1407 77.5181L57.9886 75.6963C57.8203 75.5994 57.8414 75.4292 58.0358 75.3171L61.0111 73.5965C61.2055 73.4845 61.4983 73.4718 61.6666 73.5696L64.8186 75.3913C64.9869 75.4882 64.9659 75.6584 64.7715 75.7705L61.7962 77.4911C61.6018 77.6032 61.309 77.6158 61.1407 77.5181Z" fill="#5B5B72"/>
<path d="M56.9966 75.1225L53.8446 73.3008C53.6763 73.2039 53.6973 73.0337 53.8917 72.9216L56.8671 71.201C57.0614 71.0889 57.3543 71.0763 57.5225 71.1741L60.6746 72.9958C60.8429 73.0927 60.8219 73.2629 60.6275 73.375L57.6521 75.0956C57.4578 75.2076 57.1649 75.2203 56.9966 75.1225Z" fill="#5B5B72"/>
<path d="M65.2847 79.9137L62.1327 78.092C61.9644 77.9951 61.9854 77.8248 62.1798 77.7128L65.1552 75.9922C65.3495 75.8801 65.6423 75.8674 65.8106 75.9652L68.9627 77.7869C69.131 77.8838 69.1099 78.054 68.9156 78.1661L65.9402 79.8867C65.7458 79.9988 65.453 80.0114 65.2847 79.9137Z" fill="#5B5B72"/>
<path d="M69.4283 82.31L66.2762 80.4883C66.1079 80.3914 66.129 80.2212 66.3234 80.1091L69.2987 78.3885C69.4931 78.2764 69.7859 78.2638 69.9542 78.3616L73.1062 80.1833C73.2745 80.2802 73.2535 80.4504 73.0591 80.5625L70.0838 82.2831C69.8894 82.3952 69.5966 82.4078 69.4283 82.31Z" fill="#5B5B72"/>
<path d="M73.5723 84.7057L70.4203 82.8839C70.252 82.787 70.273 82.6168 70.4674 82.5048L73.4427 80.7841C73.6371 80.6721 73.9299 80.6594 74.0982 80.7572L77.2503 82.5789C77.4186 82.6758 77.3975 82.846 77.2032 82.9581L74.2278 84.6787C74.0334 84.7908 73.7406 84.8034 73.5723 84.7057Z" fill="#5B5B72"/>
<path d="M77.7164 87.1012L74.5643 85.2795C74.396 85.1825 74.4171 85.0123 74.6114 84.9003L77.5868 83.1797C77.7812 83.0676 78.074 83.0549 78.2423 83.1527L81.3943 84.9744C81.5626 85.0713 81.5416 85.2415 81.3472 85.3536L78.3719 87.0742C78.1775 87.1863 77.8847 87.1989 77.7164 87.1012Z" fill="#5B5B72"/>
<path d="M81.8594 89.4967L78.7074 87.675C78.5391 87.5781 78.5601 87.4078 78.7545 87.2958L81.7299 85.5752C81.9242 85.4631 82.217 85.4505 82.3853 85.5482L85.5374 87.3699C85.7057 87.4668 85.6846 87.637 85.4903 87.7491L82.5149 89.4697C82.3205 89.5818 82.0277 89.5944 81.8594 89.4967Z" fill="#5B5B72"/>
<path d="M86.004 91.8932L82.8519 90.0714C82.6836 89.9745 82.7047 89.8043 82.899 89.6923L85.8744 87.9716C86.0688 87.8596 86.3616 87.8469 86.5299 87.9447L89.6819 89.7664C89.8502 89.8633 89.8292 90.0335 89.6348 90.1456L86.6595 91.8662C86.4651 91.9783 86.1723 91.9909 86.004 91.8932Z" fill="#5B5B72"/>
<path d="M90.147 94.2887L86.995 92.467C86.8267 92.37 86.8477 92.1998 87.0421 92.0878L90.0175 90.3672C90.2118 90.2551 90.5046 90.2424 90.6729 90.3402L93.825 92.1619C93.9933 92.2588 93.9722 92.429 93.7779 92.5411L90.8025 94.2617C90.6081 94.3738 90.3153 94.3864 90.147 94.2887Z" fill="#5B5B72"/>
<path d="M94.2911 96.6842L91.139 94.8625C90.9707 94.7656 90.9918 94.5954 91.1861 94.4833L94.1615 92.7627C94.3559 92.6506 94.6487 92.638 94.817 92.7357L97.969 94.5574C98.1373 94.6543 98.1163 94.8245 97.9219 94.9366L94.9466 96.6572C94.7522 96.7693 94.4594 96.7819 94.2911 96.6842Z" fill="#5B5B72"/>
<path d="M37.4026 68.4255L31.3283 64.9135C31.1002 64.782 31.1288 64.552 31.3922 64.4003L34.1185 62.8238C34.381 62.6721 34.779 62.6553 35.0062 62.7867L41.0806 66.2987C41.3086 66.4302 41.28 66.6602 41.0166 66.8119L38.2904 68.3884C38.0278 68.5401 37.6298 68.5569 37.4026 68.4255Z" fill="#5B5B72"/>
<path d="M41.6495 70.8808L38.4974 69.0591C38.3291 68.9622 38.3502 68.792 38.5445 68.6799L41.5199 66.9593C41.7143 66.8472 42.0071 66.8346 42.1754 66.9324L45.3274 68.7541C45.4957 68.851 45.4747 69.0212 45.2803 69.1333L42.305 70.8539C42.1106 70.966 41.8178 70.9786 41.6495 70.8808Z" fill="#5B5B72"/>
<path d="M45.7886 73.2739L42.6366 71.4522C42.4683 71.3553 42.4893 71.1851 42.6837 71.073L45.6591 69.3524C45.8534 69.2403 46.1462 69.2277 46.3145 69.3254L49.4666 71.1472C49.6349 71.2441 49.6138 71.4143 49.4195 71.5263L46.4441 73.247C46.2497 73.359 45.9569 73.3717 45.7886 73.2739Z" fill="#5B5B72"/>
<path d="M49.9278 75.6669L46.7757 73.8451C46.6075 73.7482 46.6285 73.578 46.8229 73.4659L49.7982 71.7453C49.9926 71.6333 50.2854 71.6206 50.4537 71.7184L53.6057 73.5401C53.774 73.637 53.753 73.8072 53.5586 73.9193L50.5833 75.6399C50.3889 75.752 50.0961 75.7646 49.9278 75.6669Z" fill="#5B5B72"/>
<path d="M54.067 78.0599L50.9149 76.2382C50.7466 76.1413 50.7677 75.9711 50.962 75.859L53.9374 74.1384C54.1317 74.0263 54.4246 74.0137 54.5929 74.1114L57.7449 75.9332C57.9132 76.0301 57.8922 76.2003 57.6978 76.3123L54.7224 78.033C54.5281 78.145 54.2352 78.1577 54.067 78.0599Z" fill="#5B5B72"/>
<path d="M58.2056 80.453L55.0536 78.6313C54.8853 78.5344 54.9063 78.3641 55.1007 78.2521L58.076 76.5315C58.2704 76.4194 58.5632 76.4068 58.7315 76.5045L61.8836 78.3262C62.0519 78.4231 62.0308 78.5933 61.8365 78.7054L58.8611 80.426C58.6667 80.5381 58.3739 80.5507 58.2056 80.453Z" fill="#5B5B72"/>
<path d="M62.3448 82.8459L59.1927 81.0242C59.0244 80.9273 59.0455 80.7571 59.2399 80.645L62.2152 78.9244C62.4096 78.8123 62.7024 78.7997 62.8707 78.8974L66.0227 80.7192C66.191 80.8161 66.17 80.9863 65.9756 81.0984L63.0003 82.819C62.8059 82.931 62.5131 82.9437 62.3448 82.8459Z" fill="#5B5B72"/>
<path d="M66.4839 85.239L63.3319 83.4173C63.1636 83.3204 63.1846 83.1502 63.379 83.0381L66.3544 81.3175C66.5487 81.2054 66.8416 81.1928 67.0099 81.2905L70.1619 83.1122C70.3302 83.2091 70.3092 83.3793 70.1148 83.4914L67.1394 85.212C66.9451 85.3241 66.6522 85.3367 66.4839 85.239Z" fill="#5B5B72"/>
<path d="M70.6231 87.6321L67.4711 85.8103C67.3028 85.7134 67.3238 85.5432 67.5182 85.4312L70.4935 83.7105C70.6879 83.5985 70.9807 83.5858 71.149 83.6836L74.3011 85.5053C74.4694 85.6022 74.4483 85.7724 74.2539 85.8845L71.2786 87.6051C71.0842 87.7172 70.7914 87.7298 70.6231 87.6321Z" fill="#5B5B72"/>
<path d="M74.7623 90.025L71.6102 88.2033C71.4419 88.1064 71.463 87.9362 71.6573 87.8241L74.6327 86.1035C74.8271 85.9914 75.1199 85.9788 75.2882 86.0765L78.4402 87.8983C78.6085 87.9952 78.5875 88.1654 78.3931 88.2774L75.4178 89.998C75.2234 90.1101 74.9306 90.1228 74.7623 90.025Z" fill="#5B5B72"/>
<path d="M78.9009 92.4181L75.7489 90.5964C75.5806 90.4995 75.6016 90.3292 75.796 90.2172L78.7714 88.4966C78.9657 88.3845 79.2586 88.3718 79.4268 88.4696L82.5789 90.2913C82.7472 90.3882 82.7261 90.5584 82.5318 90.6705L79.5564 92.3911C79.3621 92.5032 79.0692 92.5158 78.9009 92.4181Z" fill="#5B5B72"/>
<path d="M83.0401 94.8111L79.8881 92.9894C79.7198 92.8925 79.7408 92.7223 79.9352 92.6102L82.9105 90.8896C83.1049 90.7775 83.3977 90.7649 83.566 90.8626L86.718 92.6844C86.8863 92.7813 86.8653 92.9515 86.6709 93.0636L83.6956 94.7842C83.5012 94.8962 83.2084 94.9089 83.0401 94.8111Z" fill="#5B5B72"/>
<path d="M90.2579 98.9845L84.0548 95.3984C83.8714 95.2922 83.8949 95.1077 84.1061 94.9855L87.0184 93.3019C87.2296 93.1798 87.5502 93.1663 87.7328 93.2724L93.9359 96.8586C94.1193 96.9648 94.0958 97.1493 93.8846 97.2715L90.9723 98.955C90.7611 99.0772 90.4405 99.0907 90.2579 98.9845Z" fill="#5B5B72"/>
<path d="M35.4329 71.9181L27.382 67.2635C27.122 67.1135 27.1548 66.8506 27.4552 66.677L30.0468 65.1789C30.3472 65.0053 30.8008 64.9868 31.0608 65.1367L39.1117 69.7913C39.3717 69.9413 39.3389 70.2042 39.0385 70.3778L36.4468 71.876C36.1464 72.0495 35.6929 72.0681 35.4329 71.9181Z" fill="#5B5B72"/>
<path d="M39.73 74.4029L36.578 72.5812C36.4097 72.4843 36.4307 72.3141 36.6251 72.202L39.6005 70.4814C39.7948 70.3693 40.0877 70.3567 40.2559 70.4544L43.408 72.2762C43.5763 72.3731 43.5552 72.5433 43.3609 72.6554L40.3855 74.376C40.1912 74.488 39.8983 74.5007 39.73 74.4029Z" fill="#5B5B72"/>
<path d="M43.8624 76.7917L40.7103 74.97C40.542 74.8731 40.5631 74.7029 40.7574 74.5908L43.7328 72.8702C43.9272 72.7581 44.22 72.7455 44.3883 72.8432L47.5403 74.665C47.7086 74.7619 47.6876 74.9321 47.4932 75.0442L44.5179 76.7648C44.3235 76.8768 44.0307 76.8895 43.8624 76.7917Z" fill="#5B5B72"/>
<path d="M47.9942 79.1805L44.8422 77.3588C44.6739 77.2619 44.6949 77.0917 44.8893 76.9796L47.8646 75.259C48.059 75.1469 48.3518 75.1343 48.5201 75.232L51.6722 77.0538C51.8404 77.1507 51.8194 77.3209 51.625 77.4329L48.6497 79.1536C48.4553 79.2656 48.1625 79.2783 47.9942 79.1805Z" fill="#5B5B72"/>
<path d="M52.1265 81.5694L48.9745 79.7477C48.8062 79.6508 48.8272 79.4806 49.0216 79.3685L51.9969 77.6479C52.1913 77.5358 52.4841 77.5232 52.6524 77.621L55.8045 79.4427C55.9728 79.5396 55.9517 79.7098 55.7574 79.8219L52.782 81.5425C52.5876 81.6545 52.2948 81.6672 52.1265 81.5694Z" fill="#5B5B72"/>
<path d="M56.2579 83.9582L53.1058 82.1365C52.9375 82.0396 52.9586 81.8694 53.1529 81.7573L56.1283 80.0367C56.3227 79.9246 56.6155 79.912 56.7838 80.0097L59.9358 81.8315C60.1041 81.9284 60.0831 82.0986 59.8887 82.2107L56.9134 83.9313C56.719 84.0433 56.4262 84.056 56.2579 83.9582Z" fill="#5B5B72"/>
<path d="M60.3892 86.347L57.2372 84.5253C57.0689 84.4284 57.0899 84.2582 57.2843 84.1461L60.2596 82.4255C60.454 82.3134 60.7468 82.3008 60.9151 82.3985L64.0672 84.2203C64.2355 84.3172 64.2144 84.4874 64.0201 84.5994L61.0447 86.3201C60.8503 86.4321 60.5575 86.4448 60.3892 86.347Z" fill="#5B5B72"/>
<path d="M64.5215 88.7358L61.3695 86.9141C61.2012 86.8172 61.2222 86.647 61.4166 86.5349L64.392 84.8143C64.5863 84.7022 64.8792 84.6896 65.0474 84.7873L68.1995 86.6091C68.3678 86.706 68.3467 86.8762 68.1524 86.9882L65.177 88.7089C64.9827 88.8209 64.6898 88.8336 64.5215 88.7358Z" fill="#5B5B72"/>
<path d="M68.6534 91.1246L65.5013 89.3029C65.333 89.206 65.3541 89.0358 65.5485 88.9237L68.5238 87.2031C68.7182 87.091 69.011 87.0784 69.1793 87.1761L72.3313 88.9979C72.4996 89.0948 72.4786 89.265 72.2842 89.377L69.3089 91.0977C69.1145 91.2097 68.8217 91.2224 68.6534 91.1246Z" fill="#5B5B72"/>
<path d="M72.7847 93.5134L69.6327 91.6917C69.4644 91.5948 69.4854 91.4246 69.6798 91.3125L72.6552 89.5919C72.8495 89.4798 73.1423 89.4672 73.3106 89.5649L76.4627 91.3867C76.631 91.4836 76.6099 91.6538 76.4156 91.7658L73.4402 93.4865C73.2458 93.5985 72.953 93.6112 72.7847 93.5134Z" fill="#5B5B72"/>
<path d="M76.917 95.9023L73.765 94.0806C73.5967 93.9837 73.6178 93.8135 73.8121 93.7014L76.7875 91.9808C76.9818 91.8687 77.2747 91.8561 77.443 91.9538L80.595 93.7756C80.7633 93.8725 80.7423 94.0427 80.5479 94.1547L77.5725 95.8754C77.3782 95.9874 77.0853 96.0001 76.917 95.9023Z" fill="#5B5B72"/>
<path d="M86.2047 101.272L77.9721 96.5123C77.7625 96.391 77.7886 96.1795 78.031 96.0396L80.833 94.4201C81.0753 94.2802 81.4413 94.2651 81.6509 94.3864L89.8835 99.1463C90.0931 99.2677 90.067 99.4792 89.8246 99.619L87.0226 101.239C86.7803 101.378 86.4143 101.394 86.2047 101.272Z" fill="#5B5B72"/>
<path d="M26.3614 71.3055L23.2093 69.4838C23.0411 69.3869 23.0621 69.2167 23.2565 69.1046L26.2318 67.384C26.4262 67.2719 26.719 67.2593 26.8873 67.357L30.0393 69.1788C30.2076 69.2757 30.1866 69.4459 29.9922 69.5579L27.0169 71.2786C26.8225 71.3906 26.5297 71.4033 26.3614 71.3055Z" fill="#5B5B72"/>
<path d="M30.5074 73.7019L27.3553 71.8802C27.187 71.7833 27.2081 71.613 27.4025 71.501L30.3778 69.7804C30.5722 69.6683 30.865 69.6557 31.0333 69.7534L34.1853 71.5751C34.3536 71.672 34.3326 71.8422 34.1382 71.9543L31.1629 73.6749C30.9685 73.787 30.6757 73.7996 30.5074 73.7019Z" fill="#5B5B72"/>
<path d="M34.6529 76.0991L31.5008 74.2774C31.3326 74.1805 31.3536 74.0103 31.548 73.8982L34.5233 72.1776C34.7177 72.0655 35.0105 72.0529 35.1788 72.1506L38.3308 73.9723C38.4991 74.0692 38.4781 74.2395 38.2837 74.3515L35.3084 76.0721C35.114 76.1842 34.8212 76.1968 34.6529 76.0991Z" fill="#5B5B72"/>
<path d="M39.8211 79.0871L35.6871 76.6975C35.4969 76.5871 35.5205 76.395 35.7401 76.2686L38.6229 74.6019C38.8425 74.4746 39.1749 74.4612 39.365 74.5707L43.4991 76.9604C43.6892 77.0707 43.6657 77.2629 43.4461 77.3892L40.5633 79.0559C40.3436 79.1832 40.0113 79.1967 39.8211 79.0871Z" fill="#5B5B72"/>
<path d="M60.1166 90.8213L41.2573 79.9179C40.8669 79.6921 40.9157 79.2986 41.3667 79.0374L43.4139 77.8543C43.8641 77.594 44.5456 77.5653 44.9361 77.7911L63.7954 88.6946C64.1858 88.9204 64.137 89.3139 63.686 89.5751L61.6387 90.7581C61.1886 91.0185 60.507 91.0472 60.1166 90.8213Z" fill="#5B5B72"/>
<path d="M65.7664 94.0873L61.5566 91.6539C61.3648 91.5426 61.3892 91.3488 61.6105 91.2208L64.4865 89.5583C64.7078 89.4302 65.0436 89.4159 65.2354 89.5271L69.4452 91.9606C69.637 92.0718 69.6126 92.2656 69.3913 92.3937L66.5153 94.0562C66.294 94.1842 65.9582 94.1986 65.7664 94.0873Z" fill="#5B5B72"/>
<path d="M69.9551 96.509L66.8031 94.6873C66.6348 94.5904 66.6558 94.4202 66.8502 94.3081L69.8256 92.5875C70.0199 92.4754 70.3128 92.4628 70.481 92.5605L73.6331 94.3823C73.8014 94.4792 73.7803 94.6494 73.586 94.7614L70.6106 96.4821C70.4163 96.5941 70.1234 96.6068 69.9551 96.509Z" fill="#5B5B72"/>
<path d="M74.1006 98.9054L70.9486 97.0836C70.7803 96.9867 70.8013 96.8165 70.9957 96.7045L73.9711 94.9838C74.1654 94.8718 74.4583 94.8591 74.6266 94.9569L77.7786 96.7786C77.9469 96.8755 77.9258 97.0457 77.7315 97.1578L74.7561 98.8784C74.5618 98.9905 74.2689 99.0031 74.1006 98.9054Z" fill="#5B5B72"/>
<path d="M80.2457 100.19L76.901 98.2565C76.7866 98.19 76.8009 98.0745 76.933 97.9978L78.1699 97.2833C78.3029 97.2066 78.5031 97.1982 78.6176 97.2648L81.9623 99.1986C82.0767 99.2651 82.0624 99.3806 81.9303 99.4573L80.6934 100.172C80.5605 100.248 80.3602 100.257 80.2457 100.19Z" fill="#5B5B72"/>
<path d="M78.2843 101.324L74.9396 99.3907C74.8251 99.3241 74.8395 99.2087 74.9716 99.132L76.2085 98.4175C76.3414 98.3408 76.5417 98.3324 76.6561 98.3989L80.0009 100.333C80.1153 100.399 80.101 100.515 79.9689 100.591L78.732 101.306C78.599 101.383 78.3988 101.391 78.2843 101.324Z" fill="#5B5B72"/>
<path d="M82.2745 103.632L79.1224 101.81C78.9541 101.713 78.9752 101.543 79.1695 101.431L82.1449 99.71C82.3393 99.598 82.6321 99.5853 82.8004 99.6831L85.9524 101.505C86.1207 101.602 86.0997 101.772 85.9053 101.884L82.93 103.605C82.7356 103.717 82.4428 103.729 82.2745 103.632Z" fill="#5B5B72"/>
<path d="M102.302 92.0532L43.2367 57.9046C43.0684 57.8077 43.0894 57.6375 43.2838 57.5254L45.0332 56.5142C45.2275 56.4022 45.5204 56.3895 45.6886 56.4873L104.754 90.6359C104.922 90.7328 104.901 90.9031 104.707 91.0151L102.957 92.0263C102.763 92.1383 102.47 92.151 102.302 92.0532Z" fill="#5B5B72"/>
<path d="M109.838 89.9197L47.5409 53.0949C46.6381 52.5725 46.0347 51.3776 46.1946 50.4263L53.0221 5.47704C53.1811 4.52488 54.7824 3.87691 55.6853 4.39849L118.629 40.7893C119.532 41.3118 120.135 42.5066 119.975 43.4579L112.408 88.7063C112.249 89.6585 110.742 90.4404 109.839 89.9189L109.838 89.9197Z" fill="#AEBECC"/>
<path d="M109.729 89.864L46.7856 53.4732C45.8827 52.9508 45.2794 51.7559 45.4393 50.8046L53.0064 5.55619C53.1654 4.60404 54.0262 4.25604 54.9299 4.77761L117.873 41.1685C118.776 41.6909 119.379 42.8857 119.22 43.837L111.652 89.0855C111.493 90.0376 110.633 90.3856 109.729 89.864Z" fill="#313133"/>
<path d="M110.19 87.1053L47.2466 50.7145L54.4536 7.62146L117.397 44.0115L110.19 87.1053Z" fill="#E7EEF2"/>
<path d="M65.7687 57.3593L51.709 49.2306C51.5281 49.1261 51.4077 48.8868 51.4397 48.6972L56.4126 18.9622C56.4446 18.7718 56.6163 18.7018 56.7972 18.8063L70.8569 26.935C71.0378 27.0395 71.1581 27.2788 71.1261 27.4684L66.1532 57.2034C66.1212 57.3939 65.9496 57.4638 65.7687 57.3593Z" fill="#DAE1E5"/>
<path d="M109.173 67.9915L70.2627 45.4954C70.0818 45.3909 69.9615 45.1516 69.9934 44.962L72.7609 28.4139C72.7929 28.2234 72.9646 28.1535 73.1455 28.258L112.056 50.7541C112.236 50.8586 112.357 51.0979 112.325 51.2875L109.557 67.8356C109.525 68.026 109.354 68.096 109.173 67.9915Z" fill="#DAE1E5"/>
<path d="M69.9739 47.2193L77.9845 51.8511C78.1654 51.9556 78.2857 52.1949 78.2537 52.3845L76.4522 63.1582C76.4202 63.3486 76.2486 63.4186 76.0677 63.3141L68.0571 58.6822C67.8762 58.5777 67.7559 58.3384 67.7879 58.1488L69.5894 47.3752C69.6214 47.1847 69.793 47.1148 69.9739 47.2193Z" fill="#DAE1E5"/>
<path d="M88.5545 58.3393L86.753 69.113C86.721 69.3034 86.5494 69.3734 86.3684 69.2689L78.3579 64.637C78.177 64.5326 78.0567 64.2933 78.0886 64.1037L79.8902 53.33C79.9222 53.1396 80.0938 53.0696 80.2747 53.1741L88.2853 57.806C88.4662 57.9105 88.5865 58.1498 88.5545 58.3393Z" fill="#DAE1E5"/>
<path d="M98.8538 64.2941L97.0523 75.0677C97.0203 75.2582 96.8487 75.3281 96.6678 75.2236L88.6572 70.5918C88.4763 70.4873 88.356 70.248 88.388 70.0584L90.1895 59.2847C90.2215 59.0943 90.3931 59.0243 90.574 59.1288L98.5846 63.7607C98.7655 63.8652 98.8858 64.1045 98.8538 64.2941Z" fill="#DAE1E5"/>
<path d="M109.154 70.2488L107.353 81.0224C107.321 81.2129 107.149 81.2828 106.968 81.1783L98.9575 76.5465C98.7766 76.442 98.6563 76.2027 98.6883 76.0131L100.49 65.2394C100.522 65.049 100.693 64.9791 100.874 65.0835L108.885 69.7154C109.066 69.8199 109.186 70.0592 109.154 70.2488Z" fill="#DAE1E5"/>
<path d="M71.1598 25.1251L57.1001 16.9964C56.9192 16.8919 56.7989 16.6526 56.8308 16.463L57.2919 13.7051C57.3239 13.5147 57.4956 13.4448 57.6765 13.5492L71.7362 21.6779C71.9171 21.7824 72.0374 22.0217 72.0054 22.2113L71.5443 24.9692C71.5123 25.1596 71.3407 25.2296 71.1598 25.1251Z" fill="#DAE1E5"/>
<path d="M112.358 48.9441L104.837 44.5962C104.656 44.4917 104.536 44.2524 104.568 44.0628L105.029 41.305C105.061 41.1145 105.233 41.0446 105.414 41.1491L112.935 45.497C113.116 45.6015 113.236 45.8408 113.204 46.0304L112.743 48.7882C112.711 48.9787 112.539 49.0486 112.358 48.9441Z" fill="#DAE1E5"/>
<path d="M102.549 43.2725L73.4482 26.448C73.2673 26.3435 73.147 26.1042 73.179 25.9147L73.6401 23.1568C73.6721 22.9663 73.8437 22.8964 74.0246 23.0009L103.125 39.8254C103.306 39.9299 103.426 40.1692 103.394 40.3588L102.933 43.1166C102.901 43.3071 102.73 43.377 102.549 43.2725Z" fill="#DAE1E5"/>
<path d="M105.103 75.7258L54.9749 46.7441C54.5676 46.509 54.2959 45.9697 54.3674 45.5408L61.2563 4.34705L112.859 34.1815L105.97 75.3753C105.898 75.8042 105.509 75.9617 105.102 75.7267L105.103 75.7258Z" fill="#B4C6DF"/>
<path d="M112.86 34.1807L61.2563 4.34707L61.9059 0.460926C61.9775 0.0320353 62.3662 -0.125534 62.7735 0.109556L112.902 29.0913C113.309 29.3264 113.581 29.8657 113.509 30.2946L112.86 34.1807Z" fill="#CACACA"/>
<path d="M64.3544 4.11536C64.665 3.9273 64.6955 3.40844 64.4226 2.95646C64.1497 2.50447 63.6766 2.29052 63.3661 2.47858C63.0555 2.66664 63.025 3.1855 63.2979 3.63748C63.5708 4.08946 64.0438 4.30342 64.3544 4.11536Z" fill="white"/>
<path d="M66.5653 5.39392C66.8759 5.20586 66.9064 4.68701 66.6335 4.23502C66.3606 3.78304 65.8876 3.56909 65.577 3.75714C65.2664 3.9452 65.2359 4.46406 65.5088 4.91604C65.7817 5.36803 66.2548 5.58198 66.5653 5.39392Z" fill="white"/>
<path d="M68.7777 6.67273C69.0883 6.48467 69.1188 5.96581 68.8459 5.51383C68.573 5.06185 68.1 4.84789 67.7894 5.03595C67.4788 5.22401 67.4483 5.74287 67.7212 6.19485C67.9941 6.64684 68.4672 6.86079 68.7777 6.67273Z" fill="white"/>
<path d="M77.9422 16.5676L72.4434 49.4464C72.4148 49.6183 72.2591 49.6806 72.0967 49.5871L57.4514 41.1197C57.2881 41.0253 57.1796 40.8096 57.2082 40.6385L62.707 7.75971C62.7356 7.58782 62.8913 7.52546 63.0537 7.61899L77.699 16.0864C77.8623 16.1808 77.9708 16.3965 77.9422 16.5676Z" fill="#E7EEF2"/>
<path d="M94.2829 26.015L89.3175 55.7062C89.2889 55.8781 89.1333 55.9404 88.9709 55.8469L74.3264 47.3803C74.1631 47.2859 74.0546 47.0702 74.0832 46.8992L79.0485 17.208C79.0772 17.0361 79.2328 16.9737 79.3952 17.0672L94.0397 25.5338C94.203 25.6282 94.3115 25.8439 94.2829 26.015Z" fill="#E7EEF2"/>
<path d="M110.624 35.4623L106.815 58.2365C106.787 58.4084 106.631 58.4708 106.469 58.3773L91.8234 49.9098C91.6602 49.8154 91.5516 49.5997 91.5803 49.4287L95.3886 26.6545C95.4172 26.4826 95.5729 26.4202 95.7353 26.5138L110.381 34.9812C110.544 35.0756 110.652 35.2913 110.624 35.4623Z" fill="#E7EEF2"/>
<path d="M75.8064 20.9592L63.1267 13.6285C62.9634 13.5341 62.8549 13.3184 62.8835 13.1474L63.1696 11.4377C63.1982 11.2658 63.3538 11.2034 63.5162 11.297L76.196 18.6277C76.3592 18.7221 76.4677 18.9378 76.4391 19.1089L76.1531 20.8185C76.1244 20.9904 75.9688 21.0528 75.8064 20.9592Z" fill="#DAE1E5"/>
<path d="M70.3558 14.3977L63.721 10.5621C63.5174 10.4442 63.3819 10.1754 63.4172 9.96052C63.4534 9.74565 63.6469 9.66729 63.8506 9.78525L70.4854 13.6208C70.689 13.7388 70.8245 14.0076 70.7891 14.2225C70.7529 14.4373 70.5594 14.5157 70.3558 14.3977Z" fill="#C3CED8"/>
<path d="M69.5965 16.5162C69.5561 16.4926 69.5283 16.4387 69.5359 16.3957L69.6403 15.7738C69.6478 15.7309 69.6865 15.7148 69.7269 15.7384C69.7673 15.762 69.7951 15.816 69.7875 15.8589L69.6832 16.4808C69.6756 16.5238 69.6369 16.5398 69.5965 16.5162Z" fill="white"/>
<path d="M69.2928 15.9146C69.3003 15.8716 69.339 15.8556 69.3794 15.8792L69.9693 16.2204C70.0097 16.244 70.0374 16.298 70.0299 16.3409C70.0223 16.3839 69.9836 16.3999 69.9432 16.3763L69.3533 16.0351C69.3129 16.0115 69.2852 15.9576 69.2928 15.9146Z" fill="white"/>
<path d="M73.2585 36.1929L60.5788 28.8621C60.4156 28.7677 60.307 28.552 60.3356 28.381L62.6496 14.5461C62.6782 14.3742 62.8339 14.3118 62.9963 14.4054L75.676 21.7361C75.8392 21.8305 75.9478 22.0462 75.9192 22.2173L73.6052 36.0522C73.5766 36.224 73.4209 36.2864 73.2585 36.1929Z" fill="white"/>
<path d="M70.1175 20.6533L63.4827 16.8178C63.2791 16.6998 63.1436 16.431 63.1789 16.2161C63.2151 16.0013 63.4087 15.9229 63.6123 16.0409L70.2471 19.8765C70.4507 19.9944 70.5862 20.2632 70.5508 20.4781C70.5146 20.6929 70.3211 20.7713 70.1175 20.6533Z" fill="#C5A361"/>
<path d="M74.2154 25.1538L63.158 18.7609C62.9544 18.6429 62.8189 18.3741 62.8542 18.1592C62.8904 17.9444 63.084 17.866 63.2876 17.984L74.345 24.3769C74.5486 24.4949 74.6841 24.7637 74.6488 24.9785C74.6126 25.1934 74.419 25.2718 74.2154 25.1538Z" fill="#E7EEF2"/>
<path d="M71.7438 25.4293L62.8977 20.3146C62.6941 20.1966 62.5586 19.9278 62.594 19.713C62.6302 19.4981 62.8237 19.4197 63.0273 19.5377L71.8734 24.6524C72.0771 24.7703 72.2125 25.0391 72.1772 25.254C72.141 25.4689 71.9475 25.5472 71.7438 25.4293Z" fill="#E7EEF2"/>
<path d="M72.8807 28.3026L62.5603 22.3361C62.3567 22.2181 62.2212 21.9493 62.2566 21.7344C62.2928 21.5196 62.4863 21.4412 62.6899 21.5592L73.0102 27.5257C73.2139 27.6437 73.3493 27.9125 73.314 28.1274C73.2778 28.3422 73.0843 28.4206 72.8807 28.3026Z" fill="#E7EEF2"/>
<path d="M71.5152 29.2176L62.3006 23.8906C62.0969 23.7727 61.9615 23.5039 61.9968 23.289C62.033 23.0741 62.2265 22.9958 62.4302 23.1137L71.6448 28.4408C71.8484 28.5587 71.9839 28.8275 71.9486 29.0424C71.9124 29.2572 71.7189 29.3356 71.5152 29.2176Z" fill="#E7EEF2"/>
<path d="M73.0977 31.8382L62.0403 25.4453C61.8367 25.3274 61.7012 25.0586 61.7366 24.8437C61.7727 24.6288 61.9663 24.5505 62.1699 24.6684L73.2273 31.0614C73.4309 31.1793 73.5664 31.4481 73.5311 31.663C73.4949 31.8778 73.3014 31.9562 73.0977 31.8382Z" fill="#E7EEF2"/>
<path d="M62.5785 28.4237C62.8891 28.2356 62.9196 27.7168 62.6467 27.2648C62.3738 26.8128 61.9008 26.5989 61.5902 26.7869C61.2796 26.975 61.2491 27.4938 61.522 27.9458C61.7949 28.3978 62.2679 28.6118 62.5785 28.4237Z" fill="#CD6C7E"/>
<path d="M63.684 29.0631C63.9946 28.8751 64.0251 28.3562 63.7522 27.9042C63.4793 27.4522 63.0062 27.2383 62.6957 27.4263C62.3851 27.6144 62.3545 28.1333 62.6275 28.5852C62.9004 29.0372 63.3734 29.2512 63.684 29.0631Z" fill="#CACACA"/>
<path d="M92.1472 30.4066L79.4675 23.0759C79.3042 22.9815 79.1957 22.7658 79.2243 22.5947L79.5104 20.8851C79.539 20.7132 79.6947 20.6508 79.8571 20.7444L92.5368 28.0751C92.7 28.1695 92.8086 28.3852 92.78 28.5562L92.4939 30.2659C92.4653 30.4378 92.3096 30.5002 92.1472 30.4066Z" fill="#DAE1E5"/>
<path d="M83.7473 22.1398L80.0618 20.0088C79.8582 19.8908 79.7227 19.622 79.758 19.4072C79.7942 19.1923 79.9878 19.1139 80.1914 19.2319L83.8769 21.3629C84.0805 21.4808 84.216 21.7496 84.1807 21.9645C84.1445 22.1794 83.951 22.2577 83.7473 22.1398Z" fill="#C3CED8"/>
<path d="M85.9373 25.9636C85.8969 25.94 85.8692 25.886 85.8767 25.8431L85.9811 25.2212C85.9886 25.1782 86.0273 25.1622 86.0677 25.1858C86.1081 25.2094 86.1359 25.2633 86.1283 25.3063L86.024 25.9282C86.0164 25.9711 85.9777 25.9872 85.9373 25.9636Z" fill="white"/>
<path d="M85.6336 25.362C85.6411 25.319 85.6798 25.303 85.7202 25.3266L86.3101 25.6678C86.3505 25.6914 86.3782 25.7454 86.3707 25.7883C86.3631 25.8313 86.3244 25.8473 86.284 25.8237L85.6942 25.4825C85.6538 25.4589 85.626 25.4049 85.6336 25.362Z" fill="white"/>
<path d="M89.8728 44.0081L77.1931 36.6774C77.0298 36.583 76.9213 36.3673 76.9499 36.1962L78.9904 23.9935C79.019 23.8216 79.1747 23.7592 79.3371 23.8528L92.0168 31.1835C92.18 31.2779 92.2886 31.4936 92.26 31.6646L90.2195 43.8674C90.1908 44.0393 90.0352 44.1016 89.8728 44.0081Z" fill="white"/>
<path d="M85.3527 29.4612L79.8235 26.2643C79.6199 26.1463 79.4844 25.8775 79.5198 25.6627C79.5559 25.4478 79.7495 25.3694 79.9531 25.4874L85.4822 28.6843C85.6859 28.8022 85.8213 29.071 85.786 29.2859C85.7498 29.5008 85.5563 29.5791 85.3527 29.4612Z" fill="#CACACA"/>
<path d="M90.5562 34.6012L79.4988 28.2083C79.2952 28.0903 79.1597 27.8215 79.1951 27.6066C79.2312 27.3918 79.4248 27.3134 79.6284 27.4314L90.6858 33.8243C90.8894 33.9423 91.0249 34.2111 90.9896 34.4259C90.9534 34.6408 90.7599 34.7191 90.5562 34.6012Z" fill="#E7EEF2"/>
<path d="M89.1903 35.5162L79.2386 29.7628C79.0349 29.6449 78.8995 29.3761 78.9348 29.1612C78.971 28.9463 79.1645 28.868 79.3681 28.9859L89.3199 34.7393C89.5235 34.8573 89.659 35.1261 89.6237 35.3409C89.5875 35.5558 89.3939 35.6342 89.1903 35.5162Z" fill="#E7EEF2"/>
<path d="M88.1285 37.033L78.9139 31.7059C78.7102 31.588 78.5748 31.3192 78.6101 31.1043C78.6463 30.8894 78.8398 30.8111 79.0434 30.9291L88.2581 36.2561C88.4617 36.374 88.5972 36.6428 88.5619 36.8577C88.5257 37.0726 88.3321 37.1509 88.1285 37.033Z" fill="#E7EEF2"/>
<path d="M89.711 39.6526L78.6536 33.2597C78.45 33.1417 78.3145 32.8729 78.3498 32.658C78.386 32.4432 78.5796 32.3648 78.7832 32.4828L89.8406 38.8757C90.0442 38.9936 90.1797 39.2624 90.1444 39.4773C90.1082 39.6922 89.9146 39.7705 89.711 39.6526Z" fill="#E7EEF2"/>
<path d="M79.1923 36.2397C79.5029 36.0517 79.5334 35.5328 79.2605 35.0808C78.9876 34.6289 78.5145 34.4149 78.204 34.603C77.8934 34.791 77.8628 35.3099 78.1358 35.7619C78.4087 36.2139 78.8817 36.4278 79.1923 36.2397Z" fill="#C5A361"/>
<path d="M80.2978 36.8789C80.6083 36.6908 80.6389 36.172 80.3659 35.72C80.093 35.268 79.62 35.0541 79.3094 35.2421C78.9988 35.4302 78.9683 35.949 79.2412 36.401C79.5142 36.853 79.9872 37.067 80.2978 36.8789Z" fill="#B4C6DF"/>
<path d="M88.1824 54.1128L75.5026 46.7821C75.3394 46.6877 75.2308 46.472 75.2595 46.3009L76.7152 37.5959C76.7438 37.424 76.8994 37.3616 77.0618 37.4552L89.7416 44.7859C89.9048 44.8803 90.0133 45.096 89.9847 45.2671L88.529 53.9721C88.5004 54.144 88.3448 54.2064 88.1824 54.1128Z" fill="white"/>
<path d="M84.921 44.1287L77.5491 39.8667C77.3455 39.7487 77.21 39.4799 77.2453 39.2651C77.2815 39.0502 77.4751 38.9719 77.6787 39.0898L85.0506 43.3518C85.2542 43.4697 85.3897 43.7385 85.3543 43.9534C85.3182 44.1683 85.1246 44.2466 84.921 44.1287Z" fill="#C5A361"/>
<path d="M88.2818 48.2036L77.2244 41.8107C77.0208 41.6927 76.8853 41.4239 76.9206 41.2091C76.9568 40.9942 77.1504 40.9158 77.354 41.0338L88.4114 47.4267C88.615 47.5447 88.7505 47.8135 88.7152 48.0283C88.679 48.2432 88.4854 48.3216 88.2818 48.2036Z" fill="#E7EEF2"/>
<path d="M86.9159 49.1186L76.9641 43.3652C76.7605 43.2473 76.625 42.9785 76.6604 42.7636C76.6966 42.5488 76.8901 42.4704 77.0937 42.5884L87.0455 48.3417C87.2491 48.4597 87.3846 48.7285 87.3492 48.9434C87.3131 49.1582 87.1195 49.2366 86.9159 49.1186Z" fill="#E7EEF2"/>
<path d="M77.5023 46.3444C77.8129 46.1563 77.8435 45.6374 77.5705 45.1855C77.2976 44.7335 76.8246 44.5195 76.514 44.7076C76.2034 44.8956 76.1729 45.4145 76.4458 45.8665C76.7187 46.3185 77.1918 46.5324 77.5023 46.3444Z" fill="#B4C6DF"/>
<path d="M78.6083 46.9844C78.9189 46.7963 78.9494 46.2775 78.6765 45.8255C78.4036 45.3735 77.9306 45.1595 77.62 45.3476C77.3094 45.5357 77.2789 46.0545 77.5518 46.5065C77.8247 46.9585 78.2977 47.1724 78.6083 46.9844Z" fill="#CD6C7E"/>
<path d="M108.489 39.854L95.8088 32.5233C95.6455 32.4289 95.537 32.2132 95.5656 32.0421L95.8517 30.3325C95.8803 30.1606 96.036 30.0982 96.1984 30.1917L108.878 37.5225C109.041 37.6169 109.15 37.8326 109.121 38.0036L108.835 39.7133C108.807 39.8852 108.651 39.9475 108.489 39.854Z" fill="#DAE1E5"/>
<path d="M104.512 34.1445L96.4026 29.4562C96.199 29.3382 96.0635 29.0694 96.0989 28.8546C96.135 28.6397 96.3286 28.5613 96.5322 28.6793L104.641 33.3676C104.845 33.4856 104.98 33.7544 104.945 33.9692C104.909 34.1841 104.715 34.2625 104.512 34.1445Z" fill="#C3CED8"/>
<path d="M102.279 35.411C102.238 35.3874 102.21 35.3334 102.218 35.2905L102.322 34.6686C102.33 34.6256 102.369 34.6096 102.409 34.6332C102.449 34.6568 102.477 34.7107 102.47 34.7537L102.365 35.3756C102.358 35.4185 102.319 35.4345 102.279 35.411Z" fill="white"/>
<path d="M101.975 34.8094C101.982 34.7664 102.021 34.7504 102.062 34.774L102.651 35.1152C102.692 35.1388 102.72 35.1927 102.712 35.2357C102.704 35.2787 102.666 35.2947 102.625 35.2711L102.035 34.9298C101.995 34.9063 101.967 34.8523 101.975 34.8094Z" fill="white"/>
<path d="M105.68 56.6423L93.0007 49.3115C92.8374 49.2171 92.7289 49.0014 92.7575 48.8304L95.3315 33.4409C95.3601 33.269 95.5158 33.2066 95.6782 33.3001L108.358 40.6309C108.521 40.7253 108.63 40.941 108.601 41.112L106.027 56.5015C105.998 56.6734 105.843 56.7358 105.68 56.6423Z" fill="white"/>
<path d="M104.642 40.614L96.1643 35.7125C95.9607 35.5946 95.8252 35.3258 95.8606 35.1109C95.8968 34.896 96.0903 34.8177 96.2939 34.9356L104.771 39.8371C104.975 39.9551 105.111 40.2239 105.075 40.4388C105.039 40.6536 104.846 40.732 104.642 40.614Z" fill="#CD6C7E"/>
<path d="M106.897 44.0486L95.8396 37.6556C95.636 37.5377 95.5005 37.2689 95.5359 37.054C95.5721 36.8392 95.7656 36.7608 95.9692 36.8788L107.027 43.2717C107.23 43.3896 107.366 43.6584 107.33 43.8733C107.294 44.0882 107.101 44.1665 106.897 44.0486Z" fill="#E7EEF2"/>
<path d="M104.426 44.324L95.5799 39.2094C95.3762 39.0914 95.2408 38.8226 95.2761 38.6077C95.3123 38.3929 95.5058 38.3145 95.7094 38.4325L104.556 43.5471C104.759 43.6651 104.895 43.9339 104.859 44.1488C104.823 44.3636 104.63 44.442 104.426 44.324Z" fill="#E7EEF2"/>
<path d="M105.562 47.1975L96.347 41.8705C96.1433 41.7525 96.0079 41.4837 96.0432 41.2689C96.0794 41.054 96.2729 40.9756 96.4765 41.0936L105.691 46.4206C105.895 46.5386 106.03 46.8074 105.995 47.0222C105.959 47.2371 105.765 47.3155 105.562 47.1975Z" fill="#E7EEF2"/>
<path d="M104.196 48.1126L96.0867 43.4243C95.8831 43.3064 95.7476 43.0376 95.7829 42.8227C95.8191 42.6078 96.0127 42.5295 96.2163 42.6474L104.325 47.3357C104.529 47.4537 104.664 47.7225 104.629 47.9374C104.593 48.1522 104.399 48.2306 104.196 48.1126Z" fill="#E7EEF2"/>
<path d="M105.779 50.7331L95.8274 44.9797C95.6238 44.8618 95.4883 44.593 95.5237 44.3781C95.5599 44.1632 95.7534 44.0849 95.957 44.2029L105.909 49.9562C106.112 50.0742 106.248 50.343 106.213 50.5579C106.176 50.7727 105.983 50.8511 105.779 50.7331Z" fill="#E7EEF2"/>
<path d="M105.519 52.2877L95.5677 46.5343C95.364 46.4163 95.2286 46.1476 95.2639 45.9327C95.3001 45.7178 95.4936 45.6395 95.6972 45.7574L105.649 51.5108C105.853 51.6288 105.988 51.8976 105.953 52.1124C105.917 52.3273 105.723 52.4057 105.519 52.2877Z" fill="#E7EEF2"/>
<path d="M95.5542 41.2581C95.7093 41.1642 95.7243 40.9047 95.5877 40.6785C95.4512 40.4523 95.2147 40.3451 95.0596 40.439C94.9045 40.5329 94.8895 40.7924 95.0261 41.0186C95.1627 41.2448 95.3991 41.352 95.5542 41.2581Z" fill="#E7EEF2"/>
<path d="M95.2954 42.8129C95.4505 42.719 95.4655 42.4595 95.3289 42.2333C95.1924 42.0071 94.9559 41.8999 94.8008 41.9938C94.6457 42.0877 94.6307 42.3472 94.7673 42.5734C94.9039 42.7996 95.1403 42.9068 95.2954 42.8129Z" fill="#E7EEF2"/>
<path d="M95.0352 44.3665C95.1903 44.2726 95.2053 44.0131 95.0687 43.7869C94.9321 43.5607 94.6957 43.4535 94.5406 43.5474C94.3855 43.6413 94.3705 43.9008 94.5071 44.127C94.6436 44.3532 94.8801 44.4604 95.0352 44.3665Z" fill="#E7EEF2"/>
<path d="M94.7744 45.9209C94.9295 45.827 94.9445 45.5675 94.808 45.3413C94.6714 45.1151 94.4349 45.0079 94.2798 45.1018C94.1248 45.1957 94.1097 45.4552 94.2463 45.6814C94.3829 45.9076 94.6194 46.0148 94.7744 45.9209Z" fill="#E7EEF2"/>
<path d="M95.0004 48.8757C95.311 48.6877 95.3415 48.1688 95.0686 47.7168C94.7957 47.2649 94.3226 47.0509 94.0121 47.239C93.7015 47.427 93.671 47.9459 93.9439 48.3979C94.2168 48.8498 94.6898 49.0638 95.0004 48.8757Z" fill="#CD6C7E"/>
<path d="M96.1054 49.515C96.416 49.327 96.4465 48.8081 96.1736 48.3561C95.9006 47.9041 95.4276 47.6902 95.117 47.8782C94.8065 48.0663 94.7759 48.5852 95.0489 49.0371C95.3218 49.4891 95.7948 49.7031 96.1054 49.515Z" fill="#B4C6DF"/>
<path d="M97.2113 50.1542C97.5219 49.9661 97.5524 49.4473 97.2795 48.9953C97.0066 48.5433 96.5336 48.3293 96.223 48.5174C95.9124 48.7055 95.8819 49.2243 96.1548 49.6763C96.4277 50.1283 96.9008 50.3422 97.2113 50.1542Z" fill="#C5A361"/>
<path d="M71.3088 47.8521L58.6291 40.5214C58.4659 40.427 58.3573 40.2113 58.3859 40.0403L60.1016 29.7806C60.1302 29.6087 60.2859 29.5463 60.4483 29.6399L73.128 36.9706C73.2913 37.065 73.3998 37.2807 73.3712 37.4518L71.6555 47.7114C71.6269 47.8833 71.4712 47.9457 71.3088 47.8521Z" fill="white"/>
<path d="M66.464 35.2483L60.9349 32.0514C60.7312 31.9334 60.5958 31.6646 60.6311 31.4498C60.6673 31.2349 60.8608 31.1565 61.0644 31.2745L66.5936 34.4714C66.7972 34.5894 66.9327 34.8582 66.8973 35.073C66.8611 35.2879 66.6676 35.3662 66.464 35.2483Z" fill="#B4C6DF"/>
<path d="M71.668 40.3883L60.6106 33.9954C60.407 33.8774 60.2715 33.6086 60.3069 33.3937C60.3431 33.1789 60.5366 33.1005 60.7402 33.2185L71.7976 39.6114C72.0013 39.7294 72.1367 39.9982 72.1014 40.213C72.0652 40.4279 71.8717 40.5063 71.668 40.3883Z" fill="#E7EEF2"/>
<path d="M69.9331 41.0901L60.3499 35.5499C60.1463 35.432 60.0108 35.1632 60.0461 34.9483C60.0823 34.7334 60.2758 34.6551 60.4795 34.773L70.0627 40.3132C70.2663 40.4312 70.4018 40.7 70.3664 40.9149C70.3303 41.1297 70.1367 41.2081 69.9331 41.0901Z" fill="#E7EEF2"/>
<path d="M70.4109 43.0712L60.0906 37.1046C59.887 36.9867 59.7515 36.7179 59.7869 36.503C59.823 36.2881 60.0166 36.2098 60.2202 36.3277L70.5405 42.2943C70.7441 42.4123 70.8796 42.681 70.8443 42.8959C70.8081 43.1108 70.6145 43.1891 70.4109 43.0712Z" fill="#E7EEF2"/>
<path d="M60.6278 40.0833C60.9384 39.8952 60.9689 39.3763 60.696 38.9244C60.4231 38.4724 59.9501 38.2584 59.6395 38.4465C59.3289 38.6345 59.2984 39.1534 59.5713 39.6054C59.8442 40.0574 60.3173 40.2713 60.6278 40.0833Z" fill="#5B5B72"/>
<path d="M61.7338 40.7224C62.0444 40.5344 62.0749 40.0155 61.802 39.5635C61.5291 39.1115 61.056 38.8976 60.7455 39.0856C60.4349 39.2737 60.4043 39.7926 60.6773 40.2445C60.9502 40.6965 61.4232 40.9105 61.7338 40.7224Z" fill="#CD6C7E"/>
<path d="M62.8402 41.3621C63.1508 41.174 63.1813 40.6551 62.9084 40.2032C62.6355 39.7512 62.1625 39.5372 61.8519 39.7253C61.5413 39.9133 61.5108 40.4322 61.7837 40.8842C62.0566 41.3362 62.5297 41.5501 62.8402 41.3621Z" fill="#B4C6DF"/>
<path d="M58.2329 82.5679L44.6116 74.6928C44.259 74.4889 44.0234 74.0221 44.0857 73.6505L45.612 64.5249C45.6743 64.1533 46.0109 64.0168 46.3635 64.2208L59.9847 72.0958C60.3373 72.2997 60.5729 72.7666 60.5106 73.1382L58.9843 82.2637C58.922 82.6353 58.5854 82.7718 58.2329 82.5679Z" fill="white"/>
<path d="M54.3285 73.1929C54.2427 73.7086 53.9717 74.065 53.6006 74.2284C53.1269 74.4374 52.8013 74.8891 52.6994 75.4983L51.2429 74.6556L51.2581 74.5638C51.3557 73.979 51.2421 73.2965 50.9417 72.6485C50.7061 72.1388 50.6034 71.5835 50.6859 71.0872C50.8634 70.0272 51.8218 69.6387 52.8282 70.2201C53.8337 70.8015 54.5052 72.1329 54.3285 73.1929Z" fill="#FFD073"/>
<path d="M52.0009 75.1713C51.9647 75.1502 51.9403 75.1014 51.9462 75.0634L52.5764 71.2961C52.5832 71.2573 52.6177 71.243 52.6547 71.2649C52.6917 71.2868 52.7153 71.3349 52.7094 71.3728L52.0791 75.1401C52.0724 75.1789 52.0379 75.1932 52.0009 75.1713Z" fill="white"/>
<path d="M52.1306 74.3969C52.1138 74.3868 52.0978 74.3708 52.0869 74.3498C52.0658 74.3076 52.0725 74.263 52.1037 74.2512L53.0823 73.8551C53.1126 73.8425 53.1546 73.8669 53.1757 73.9091C53.1967 73.9512 53.19 73.9959 53.1588 74.0077L52.1802 74.4037C52.1651 74.4096 52.1466 74.4071 52.1298 74.3969H52.1306Z" fill="white"/>
<path d="M52.4553 72.4513C52.4385 72.4412 52.4225 72.4252 52.4116 72.4042C52.3905 72.362 52.3973 72.3174 52.4284 72.3056L52.9013 72.1143C52.9316 72.1017 52.9736 72.1261 52.9947 72.1682C53.0157 72.2104 53.009 72.255 52.9778 72.2668L52.505 72.4581C52.4898 72.464 52.4713 72.4615 52.4545 72.4513H52.4553Z" fill="white"/>
<path d="M52.2905 73.4397C52.2737 73.4295 52.2577 73.4135 52.2467 73.3925L51.561 72.0342C51.5399 71.992 51.5467 71.9474 51.5778 71.9356C51.6081 71.9229 51.6502 71.9474 51.6712 71.9895L52.357 73.3478C52.378 73.3899 52.3713 73.4346 52.3401 73.4464C52.325 73.4523 52.3065 73.4498 52.2897 73.4397H52.2905Z" fill="white"/>
<path d="M52.7818 75.9288L51.1267 74.9716C51.0349 74.9185 50.9744 74.798 50.9904 74.7011C51.0063 74.6051 51.0938 74.5697 51.1847 74.6219L52.8398 75.5791C52.9316 75.6322 52.9921 75.7527 52.9762 75.8496C52.9602 75.9457 52.8727 75.981 52.7818 75.9288Z" fill="#C3CED8"/>
<path d="M52.5243 76.1631L51.2663 75.4359C51.1746 75.3829 51.114 75.2624 51.13 75.1655C51.146 75.0694 51.2335 75.034 51.3244 75.0863L52.5823 75.8134C52.674 75.8665 52.7346 75.987 52.7186 76.0839C52.7027 76.18 52.6151 76.2154 52.5243 76.1631Z" fill="#DAE1E5"/>
<path d="M52.1787 76.4992L51.45 76.0779C51.3221 76.0038 51.2363 75.8344 51.259 75.6996C51.2817 75.5648 51.4037 75.5151 51.5316 75.5892L52.2603 76.0105C52.3882 76.0847 52.4741 76.254 52.4513 76.3889C52.4286 76.5237 52.3066 76.5734 52.1787 76.4992Z" fill="#C3CED8"/>
<path d="M51.7669 76.5676C51.6575 76.5044 51.5843 76.3586 51.6037 76.2432L51.6155 76.1732L52.0126 76.4033L52.0008 76.4732C51.9815 76.5886 51.8772 76.6316 51.7669 76.5676Z" fill="#313133"/>
<path d="M51.6131 78.0077L51.6098 78.006C51.5837 77.9917 51.5576 77.9765 51.5324 77.9622C51.4995 77.9428 51.4777 77.899 51.4844 77.8644L51.5879 77.2948C51.5938 77.2611 51.6249 77.2493 51.6569 77.2679C51.6569 77.2679 51.6569 77.2679 51.6577 77.2679C51.6897 77.2864 51.7116 77.3277 51.7065 77.3622L51.614 78.0077H51.6131ZM53.7218 78.5326L53.54 77.8779C53.5291 77.8392 53.5459 77.808 53.5762 77.8071C53.5771 77.8071 53.5788 77.8071 53.5796 77.8071C53.6099 77.8063 53.6444 77.8358 53.6562 77.8745L53.8547 78.5284C53.8665 78.568 53.8514 78.6017 53.8194 78.6026C53.8127 78.6026 53.8051 78.6026 53.7984 78.6026C53.7672 78.6034 53.7319 78.5714 53.721 78.5318L53.7218 78.5326ZM49.4851 76.1194C49.4792 76.1118 49.4733 76.1042 49.4675 76.0966C49.4422 76.0629 49.4388 76.0183 49.4607 75.998L49.8225 75.6669C49.8436 75.6475 49.8806 75.6585 49.9058 75.6913C49.9067 75.693 49.9084 75.6939 49.9092 75.6955C49.9345 75.7284 49.9378 75.7714 49.9176 75.7916L49.5701 76.1413C49.5491 76.1624 49.5104 76.1522 49.4851 76.1185V76.1194ZM55.5789 77.8257L55.1615 77.2611C55.1371 77.2274 55.1346 77.1853 55.1556 77.1651C55.1565 77.1642 55.1573 77.1634 55.1581 77.1625C55.1792 77.1423 55.2162 77.1524 55.2414 77.1844L55.6714 77.738C55.6975 77.7717 55.7017 77.8164 55.6798 77.8366C55.6748 77.8417 55.6697 77.8459 55.6655 77.851C55.6437 77.8712 55.6049 77.8594 55.5797 77.8257H55.5789ZM48.1699 73.5351C48.1674 73.5258 48.1649 73.5174 48.1624 73.5081C48.1506 73.4685 48.1683 73.4357 48.1994 73.4357L48.7211 73.4306C48.7522 73.4306 48.785 73.4609 48.7968 73.4997C48.7968 73.5014 48.7968 73.5022 48.7977 73.5039C48.8086 73.5427 48.7943 73.5747 48.7632 73.5764L48.2474 73.6042C48.2162 73.6059 48.1809 73.5747 48.1691 73.5351H48.1699ZM56.5583 75.9323L56.0156 75.6088C55.9836 75.5894 55.9626 75.5472 55.9685 75.5135C55.9718 75.4916 55.9752 75.4697 55.9785 75.4478L55.9811 75.4318L56.645 75.8026L56.6424 75.8186C56.6382 75.8481 56.6332 75.8767 56.629 75.9054C56.6231 75.9399 56.5911 75.9517 56.5583 75.9323ZM48.6151 71.3468L47.9512 70.9761V70.9685C47.9562 70.9424 47.9604 70.9162 47.9646 70.8901C47.9705 70.8556 48.0025 70.8429 48.0353 70.8631L48.578 71.185C48.61 71.2044 48.6311 71.2465 48.6252 71.2802C48.6218 71.2996 48.6193 71.319 48.6159 71.3392V71.3468H48.6151ZM55.7943 73.2789C55.7943 73.2789 55.7934 73.2756 55.7926 73.2747C55.7816 73.236 55.796 73.2039 55.8262 73.2022L56.3412 73.1736C56.3723 73.1719 56.4077 73.2031 56.4195 73.2427C56.422 73.2511 56.4245 73.2604 56.427 73.2688C56.4388 73.3084 56.422 73.3413 56.39 73.3413L55.8683 73.348C55.8372 73.348 55.8044 73.3177 55.7926 73.2789H55.7943ZM49.348 69.6068L48.918 69.0541C48.8919 69.0204 48.8877 68.9757 48.9096 68.9555C48.9146 68.9504 48.9188 68.9462 48.9239 68.9411C48.9458 68.9209 48.9845 68.9319 49.0097 68.9664L49.4279 69.531C49.4523 69.5647 49.4557 69.6068 49.4346 69.627C49.4338 69.6279 49.433 69.6287 49.4321 69.6296C49.4111 69.6498 49.3741 69.6405 49.3488 69.6077L49.348 69.6068ZM54.6819 71.089C54.6819 71.089 54.6794 71.0856 54.6785 71.0839C54.6533 71.051 54.6491 71.0081 54.6701 70.987L55.0168 70.6365C55.0378 70.6154 55.0765 70.6255 55.1018 70.6592C55.1077 70.6668 55.1135 70.6744 55.1186 70.682C55.1438 70.7157 55.1472 70.7603 55.1253 70.7806L54.7652 71.1134C54.7441 71.1328 54.7071 71.1218 54.6819 71.089ZM50.9307 68.9133L50.7313 68.2595C50.7195 68.2199 50.7347 68.1862 50.7658 68.1853C50.7725 68.1853 50.7793 68.1853 50.786 68.1853C50.8171 68.1845 50.8525 68.2165 50.8634 68.2561L51.046 68.9108C51.0569 68.9496 51.041 68.9807 51.0098 68.9816C51.0081 68.9816 51.0073 68.9816 51.0056 68.9816C50.9753 68.9824 50.9408 68.9529 50.929 68.9142L50.9307 68.9133ZM52.9998 69.4897C52.9939 69.5234 52.9628 69.5352 52.9308 69.5166C52.9132 69.5065 52.8963 69.4973 52.8787 69.4872L52.8686 69.4821L52.9712 68.776L52.9838 68.7827C53.0074 68.7954 53.0301 68.8089 53.0537 68.8223C53.0865 68.8409 53.1084 68.8855 53.1025 68.9201L52.9998 69.4905V69.4897Z" fill="#FFD073"/>
<path d="M94.9643 90.4792L82.4302 97.7257C82.2695 97.8184 82.1155 97.7568 82.0877 97.5866L79.5432 82.3732C79.5146 82.2039 79.6223 81.9907 79.783 81.8971L92.3171 74.6507C92.4779 74.558 92.6318 74.6195 92.6596 74.7897L95.2041 90.0031C95.2327 90.1725 95.125 90.3856 94.9643 90.4792Z" fill="white"/>
<path d="M89.287 78.5107L80.9071 83.3558C80.706 83.4721 80.5141 83.3945 80.4788 83.1822C80.4434 82.9699 80.5781 82.7036 80.7792 82.5873L89.1591 77.7423C89.3602 77.626 89.5521 77.7035 89.5874 77.9159C89.6227 78.1282 89.4881 78.3945 89.287 78.5107Z" fill="#CACACA"/>
<path d="M92.1587 78.9564L81.2284 85.276C81.0273 85.3923 80.8354 85.3148 80.8001 85.1024C80.7647 84.8901 80.8994 84.6238 81.1005 84.5076L92.0308 78.188C92.2319 78.0717 92.4238 78.1492 92.4591 78.3615C92.4944 78.5739 92.3598 78.8401 92.1587 78.9564Z" fill="#E7EEF2"/>
<path d="M90.2295 81.7573L81.4852 86.813C81.2841 86.9293 81.0922 86.8518 81.0569 86.6394C81.0216 86.4271 81.1562 86.1608 81.3573 86.0445L90.1016 80.9889C90.3027 80.8726 90.4945 80.9501 90.5299 81.1624C90.5652 81.3748 90.4306 81.641 90.2295 81.7573Z" fill="#E7EEF2"/>
<path d="M92.0211 82.9125L82.9124 88.1788C82.7113 88.2951 82.5195 88.2176 82.4841 88.0052C82.4488 87.7929 82.5834 87.5266 82.7845 87.4103L91.8932 82.144C92.0943 82.0277 92.2861 82.1052 92.3215 82.3176C92.3568 82.5299 92.2222 82.7962 92.0211 82.9125Z" fill="#E7EEF2"/>
<path d="M91.1849 85.0806L83.1693 89.7149C82.9682 89.8312 82.7763 89.7537 82.741 89.5414C82.7056 89.329 82.8403 89.0628 83.0414 88.9465L91.057 84.3121C91.2581 84.1958 91.4499 84.2733 91.4853 84.4857C91.5206 84.698 91.386 84.9643 91.1849 85.0806Z" fill="#E7EEF2"/>
<path d="M93.2639 85.5642L83.4266 91.2518C83.2255 91.3681 83.0336 91.2906 82.9983 91.0783C82.963 90.8659 83.0976 90.5997 83.2987 90.4834L93.136 84.7957C93.3371 84.6795 93.529 84.757 93.5643 84.9693C93.5997 85.1817 93.465 85.4479 93.2639 85.5642Z" fill="#E7EEF2"/>
<path d="M93.5208 87.1011L83.6834 92.7887C83.4823 92.905 83.2905 92.8275 83.2551 92.6151C83.2198 92.4028 83.3544 92.1365 83.5555 92.0203L93.3929 86.3326C93.594 86.2163 93.7858 86.2938 93.8212 86.5062C93.8565 86.7185 93.7219 86.9848 93.5208 87.1011Z" fill="#E7EEF2"/>
<path d="M82.0316 88.5875C82.1665 88.3641 82.1514 88.1076 81.9979 88.0147C81.8444 87.9217 81.6106 88.0275 81.4757 88.2509C81.3408 88.4743 81.3559 88.7307 81.5094 88.8237C81.6629 88.9166 81.8967 88.8109 82.0316 88.5875Z" fill="#E7EEF2"/>
<path d="M82.2884 90.124C82.4233 89.9006 82.4082 89.6441 82.2547 89.5512C82.1012 89.4582 81.8674 89.564 81.7325 89.7874C81.5976 90.0108 81.6127 90.2672 81.7662 90.3602C81.9197 90.4531 82.1535 90.3474 82.2884 90.124Z" fill="#E7EEF2"/>
<path d="M82.5457 91.6607C82.6806 91.4373 82.6655 91.1809 82.512 91.0879C82.3585 90.995 82.1248 91.1007 81.9899 91.3241C81.855 91.5475 81.87 91.804 82.0235 91.8969C82.177 91.9899 82.4108 91.8841 82.5457 91.6607Z" fill="#E7EEF2"/>
<path d="M82.8026 93.1967C82.9375 92.9733 82.9224 92.7169 82.7689 92.6239C82.6154 92.531 82.3816 92.6367 82.2467 92.8601C82.1118 93.0835 82.1269 93.34 82.2804 93.4329C82.4339 93.5259 82.6677 93.4201 82.8026 93.1967Z" fill="#E7EEF2"/>
<path d="M83.8297 95.4593C84.0995 95.0124 84.0694 94.4995 83.7624 94.3136C83.4554 94.1278 82.9878 94.3393 82.718 94.7861C82.4482 95.2329 82.4784 95.7458 82.7854 95.9317C83.0924 96.1176 83.5599 95.9061 83.8297 95.4593Z" fill="#CD6C7E"/>
<path d="M84.923 94.8277C85.1928 94.3809 85.1626 93.8679 84.8556 93.6821C84.5486 93.4962 84.0811 93.7077 83.8113 94.1545C83.5415 94.6013 83.5716 95.1142 83.8786 95.3001C84.1856 95.486 84.6532 95.2745 84.923 94.8277Z" fill="#B4C6DF"/>
<path d="M86.0163 94.1951C86.2861 93.7483 86.2559 93.2354 85.9489 93.0495C85.6419 92.8636 85.1743 93.0751 84.9045 93.5219C84.6347 93.9687 84.6649 94.4816 84.9719 94.6675C85.2789 94.8534 85.7465 94.6419 86.0163 94.1951Z" fill="#C5A361"/>
<path d="M115.544 86.668L99.0263 77.1186C98.8925 77.0411 98.8025 76.8633 98.826 76.7218L101.096 63.1481L118.099 72.9789L115.829 86.5525C115.806 86.6941 115.678 86.7455 115.543 86.668H115.544Z" fill="white"/>
<path d="M118.099 72.9781L101.096 63.1473L101.311 61.8665C101.334 61.7249 101.462 61.6735 101.597 61.7511L118.114 71.3004C118.248 71.3779 118.338 71.5557 118.315 71.6973L118.1 72.9781H118.099Z" fill="#CACACA"/>
<path d="M102.115 63.0784C102.217 63.0165 102.227 62.8456 102.137 62.6967C102.047 62.5478 101.892 62.4772 101.79 62.5391C101.687 62.601 101.677 62.7719 101.767 62.9208C101.857 63.0697 102.013 63.1403 102.115 63.0784Z" fill="white"/>
<path d="M102.845 63.4996C102.947 63.4377 102.957 63.2668 102.867 63.1178C102.777 62.9689 102.621 62.8983 102.519 62.9602C102.417 63.0221 102.407 63.193 102.497 63.3419C102.587 63.4909 102.743 63.5614 102.845 63.4996Z" fill="white"/>
<path d="M103.574 63.9202C103.676 63.8583 103.686 63.6874 103.596 63.5385C103.506 63.3896 103.351 63.319 103.249 63.3809C103.146 63.4428 103.136 63.6137 103.226 63.7626C103.316 63.9115 103.472 63.9821 103.574 63.9202Z" fill="white"/>
<path d="M103.963 69.0186L102.02 67.8954L102.362 65.8462L104.305 66.9694L103.963 69.0186Z" fill="white" stroke="#DAE1E5" stroke-width="0.93" stroke-linecap="round" stroke-linejoin="round"/>
<path d="M105.907 70.1418L103.963 69.0186L104.305 66.9694L106.249 68.0934L105.907 70.1418Z" fill="white" stroke="#DAE1E5" stroke-width="0.93" stroke-linecap="round" stroke-linejoin="round"/>
<path d="M107.85 71.2658L105.907 70.1418L106.249 68.0934L108.192 69.2166L107.85 71.2658Z" fill="#5B5B72" stroke="#DAE1E5" stroke-width="0.93" stroke-linecap="round" stroke-linejoin="round"/>
<path d="M109.793 72.3891L107.85 71.2659L108.192 69.2167L110.136 70.3399L109.793 72.3891Z" fill="white" stroke="#DAE1E5" stroke-width="0.93" stroke-linecap="round" stroke-linejoin="round"/>
<path d="M111.736 73.5123L109.792 72.3891L110.136 70.3398L112.079 71.4639L111.736 73.5123Z" fill="white" stroke="#DAE1E5" stroke-width="0.93" stroke-linecap="round" stroke-linejoin="round"/>
<path d="M113.679 74.6363L111.736 73.5123L112.079 71.4639L114.022 72.5871L113.679 74.6363Z" fill="white" stroke="#DAE1E5" stroke-width="0.93" stroke-linecap="round" stroke-linejoin="round"/>
<path d="M115.623 75.7596L113.679 74.6364L114.022 72.5872L115.965 73.7104L115.623 75.7596Z" fill="#B4C6DF" stroke="#DAE1E5" stroke-width="0.93" stroke-linecap="round" stroke-linejoin="round"/>
<path d="M103.621 71.067L101.678 69.9438L102.02 67.8954L103.963 69.0186L103.621 71.067Z" fill="#CD6C7E" stroke="#DAE1E5" stroke-width="0.93" stroke-linecap="round" stroke-linejoin="round"/>
<path d="M105.564 72.1911L103.621 71.0671L103.963 69.0187L105.907 70.1419L105.564 72.1911Z" fill="white" stroke="#DAE1E5" stroke-width="0.93" stroke-linecap="round" stroke-linejoin="round"/>
<path d="M107.507 73.3143L105.563 72.1911L105.907 70.1418L107.85 71.2659L107.507 73.3143Z" fill="white" stroke="#DAE1E5" stroke-width="0.93" stroke-linecap="round" stroke-linejoin="round"/>
<path d="M109.45 74.4375L107.507 73.3143L107.85 71.2659L109.793 72.3891L109.45 74.4375Z" fill="white" stroke="#DAE1E5" stroke-width="0.93" stroke-linecap="round" stroke-linejoin="round"/>
<path d="M111.394 75.5615L109.45 74.4374L109.793 72.389L111.736 73.5122L111.394 75.5615Z" fill="white" stroke="#DAE1E5" stroke-width="0.93" stroke-linecap="round" stroke-linejoin="round"/>
<path d="M113.337 76.6848L111.394 75.5616L111.737 73.5123L113.679 74.6364L113.337 76.6848Z" fill="white" stroke="#DAE1E5" stroke-width="0.93" stroke-linecap="round" stroke-linejoin="round"/>
<path d="M115.28 77.808L113.337 76.6847L113.679 74.6364L115.623 75.7596L115.28 77.808Z" fill="white" stroke="#DAE1E5" stroke-width="0.93" stroke-linecap="round" stroke-linejoin="round"/>
<path d="M103.278 73.1163L101.334 71.9931L101.678 69.9438L103.621 71.067L103.278 73.1163Z" fill="white" stroke="#DAE1E5" stroke-width="0.93" stroke-linecap="round" stroke-linejoin="round"/>
<path d="M105.221 74.2395L103.278 73.1163L103.621 71.067L105.564 72.1911L105.221 74.2395Z" fill="white" stroke="#DAE1E5" stroke-width="0.93" stroke-linecap="round" stroke-linejoin="round"/>
<path d="M107.165 75.3635L105.221 74.2394L105.564 72.191L107.507 73.3142L107.165 75.3635Z" fill="white" stroke="#DAE1E5" stroke-width="0.93" stroke-linecap="round" stroke-linejoin="round"/>
<path d="M109.107 76.4868L107.165 75.3636L107.507 73.3143L109.45 74.4375L109.107 76.4868Z" fill="#FFD073" stroke="#DAE1E5" stroke-width="0.93" stroke-linecap="round" stroke-linejoin="round"/>
<path d="M111.05 77.6099L109.107 76.4867L109.45 74.4375L111.394 75.5616L111.05 77.6099Z" fill="white" stroke="#DAE1E5" stroke-width="0.93" stroke-linecap="round" stroke-linejoin="round"/>
<path d="M112.994 78.734L111.05 77.6099L111.394 75.5615L113.336 76.6847L112.994 78.734Z" fill="white" stroke="#DAE1E5" stroke-width="0.93" stroke-linecap="round" stroke-linejoin="round"/>
<path d="M114.937 79.8571L112.994 78.7339L113.337 76.6847L115.28 77.8079L114.937 79.8571Z" fill="white" stroke="#DAE1E5" stroke-width="0.93" stroke-linecap="round" stroke-linejoin="round"/>
<path d="M102.935 75.1655L100.992 74.0414L101.334 71.993L103.278 73.1162L102.935 75.1655Z" fill="white" stroke="#DAE1E5" stroke-width="0.93" stroke-linecap="round" stroke-linejoin="round"/>
<path d="M104.878 76.2887L102.936 75.1655L103.278 73.1162L105.221 74.2394L104.878 76.2887Z" fill="#B4C6DF" stroke="#DAE1E5" stroke-width="0.93" stroke-linecap="round" stroke-linejoin="round"/>
<path d="M106.821 77.4119L104.878 76.2887L105.221 74.2395L107.165 75.3636L106.821 77.4119Z" fill="white" stroke="#DAE1E5" stroke-width="0.93" stroke-linecap="round" stroke-linejoin="round"/>
<path d="M108.765 78.536L106.821 77.4119L107.165 75.3635L109.107 76.4867L108.765 78.536Z" fill="white" stroke="#DAE1E5" stroke-width="0.93" stroke-linecap="round" stroke-linejoin="round"/>
<path d="M110.708 79.6591L108.765 78.5359L109.108 76.4867L111.051 77.6099L110.708 79.6591Z" fill="white" stroke="#DAE1E5" stroke-width="0.93" stroke-linecap="round" stroke-linejoin="round"/>
<path d="M112.652 80.7824L110.708 79.6592L111.05 77.61L112.994 78.734L112.652 80.7824Z" fill="white" stroke="#DAE1E5" stroke-width="0.93" stroke-linecap="round" stroke-linejoin="round"/>
<path d="M114.595 81.9065L112.652 80.7824L112.994 78.734L114.937 79.8572L114.595 81.9065Z" fill="#FFD073" stroke="#DAE1E5" stroke-width="0.93" stroke-linecap="round" stroke-linejoin="round"/>
<path d="M102.592 77.2139L100.649 76.0907L100.992 74.0415L102.936 75.1655L102.592 77.2139Z" fill="white" stroke="#DAE1E5" stroke-width="0.93" stroke-linecap="round" stroke-linejoin="round"/>
<path d="M104.536 78.3371L102.592 77.2139L102.936 75.1655L104.878 76.2887L104.536 78.3371Z" fill="white" stroke="#DAE1E5" stroke-width="0.93" stroke-linecap="round" stroke-linejoin="round"/>
<path d="M106.479 79.4611L104.536 78.3371L104.879 76.2887L106.821 77.4119L106.479 79.4611Z" fill="white" stroke="#DAE1E5" stroke-width="0.93" stroke-linecap="round" stroke-linejoin="round"/>
<path d="M108.423 80.5843L106.479 79.4611L106.821 77.4119L108.765 78.5359L108.423 80.5843Z" fill="white" stroke="#DAE1E5" stroke-width="0.93" stroke-linecap="round" stroke-linejoin="round"/>
<path d="M110.366 81.7076L108.423 80.5844L108.765 78.536L110.708 79.6592L110.366 81.7076Z" fill="#5B5B72" stroke="#DAE1E5" stroke-width="0.93" stroke-linecap="round" stroke-linejoin="round"/>
<path d="M112.309 82.8316L110.366 81.7076L110.708 79.6592L112.652 80.7824L112.309 82.8316Z" fill="white" stroke="#DAE1E5" stroke-width="0.93" stroke-linecap="round" stroke-linejoin="round"/>
<path d="M114.252 83.9548L112.309 82.8316L112.652 80.7823L114.595 81.9064L114.252 83.9548Z" fill="white" stroke="#DAE1E5" stroke-width="0.93" stroke-linecap="round" stroke-linejoin="round"/>
<path d="M82.2344 66.6332L74.8743 62.378C74.7136 62.2853 74.6059 62.0721 74.6345 61.9019L76.3948 51.3759C76.4234 51.2066 76.5765 51.1442 76.7373 51.2369L84.0974 55.4921C84.2581 55.5848 84.3658 55.798 84.3372 55.9682L82.5769 66.4941C82.5483 66.6635 82.3951 66.7259 82.2344 66.6332Z" fill="white"/>
<path d="M82.4878 56.879L79.4628 55.1306C79.2617 55.0143 79.127 54.7481 79.1624 54.5357C79.1977 54.3234 79.3896 54.2459 79.5907 54.3621L82.6157 56.1106C82.8168 56.2269 82.9514 56.4931 82.9161 56.7055C82.8807 56.9178 82.6889 56.9953 82.4878 56.879Z" fill="#E7EEF2"/>
<path d="M78.0053 54.2872L77.641 54.0765C77.4399 53.9603 77.3053 53.694 77.3406 53.4816C77.3759 53.2693 77.5678 53.1918 77.7689 53.3081L78.1332 53.5187C78.3343 53.635 78.469 53.9013 78.4336 54.1136C78.3983 54.3259 78.2064 54.4035 78.0053 54.2872Z" fill="#5B5B72"/>
<path d="M77.6845 56.2083L77.3202 55.9977C77.1191 55.8814 76.9845 55.6151 77.0198 55.4028C77.0551 55.1904 77.247 55.1129 77.4481 55.2292L77.8124 55.4399C78.0135 55.5561 78.1482 55.8224 78.1128 56.0347C78.0775 56.2471 77.8856 56.3246 77.6845 56.2083Z" fill="#CD6C7E"/>
<path d="M77.3632 58.1295L76.9989 57.9188C76.7978 57.8025 76.6632 57.5363 76.6985 57.3239C76.7338 57.1116 76.9257 57.0341 77.1268 57.1504L77.4911 57.361C77.6922 57.4773 77.8269 57.7436 77.7915 57.9559C77.7562 58.1682 77.5643 58.2458 77.3632 58.1295Z" fill="#B4C6DF"/>
<path d="M77.042 60.0498L76.6776 59.8391C76.4765 59.7228 76.3419 59.4566 76.3772 59.2442C76.4126 59.0319 76.6044 58.9544 76.8055 59.0706L77.1699 59.2813C77.371 59.3976 77.5056 59.6638 77.4703 59.8762C77.4349 60.0885 77.2431 60.166 77.042 60.0498Z" fill="#C5A361"/>
<path d="M76.7207 61.971L76.3563 61.7604C76.1552 61.6441 76.0206 61.3778 76.0559 61.1655C76.0913 60.9531 76.2831 60.8756 76.4842 60.9919L76.8486 61.2026C77.0497 61.3188 77.1843 61.5851 77.149 61.7974C77.1136 62.0098 76.9218 62.0873 76.7207 61.971Z" fill="#B4C6DF"/>
<path d="M80.7087 57.9576L79.142 57.0518C78.9409 56.9355 78.8062 56.6692 78.8416 56.4569C78.8769 56.2445 79.0688 56.167 79.2699 56.2833L80.8366 57.1891C81.0377 57.3054 81.1724 57.5716 81.137 57.784C81.1017 57.9963 80.9098 58.0738 80.7087 57.9576Z" fill="#E7EEF2"/>
<path d="M81.4813 60.5099L78.8207 58.9722C78.6196 58.8559 78.4849 58.5896 78.5203 58.3773C78.5556 58.1649 78.7475 58.0874 78.9486 58.2037L81.6092 59.7415C81.8103 59.8578 81.945 60.124 81.9096 60.3364C81.8743 60.5487 81.6824 60.6262 81.4813 60.5099Z" fill="#E7EEF2"/>
<path d="M81.8887 62.8524L78.4994 60.8933C78.2983 60.777 78.1637 60.5108 78.199 60.2984C78.2343 60.0861 78.4262 60.0086 78.6273 60.1248L82.0166 62.0839C82.2177 62.2002 82.3524 62.4665 82.317 62.6788C82.2817 62.8911 82.0898 62.9687 81.8887 62.8524Z" fill="#E7EEF2"/>
<path d="M79.0165 63.299L78.1776 62.8144C77.9765 62.6982 77.8419 62.4319 77.8772 62.2196C77.9126 62.0072 78.1044 61.9297 78.3055 62.046L79.1444 62.5305C79.3455 62.6468 79.4802 62.913 79.4448 63.1254C79.4095 63.3377 79.2176 63.4152 79.0165 63.299Z" fill="#E7EEF2"/>
<path d="M52.6128 32.4499L45.2527 28.1947C45.092 28.102 44.9843 27.8889 45.0129 27.7187L46.7732 17.1927C46.8018 17.0233 46.955 16.961 47.1157 17.0537L54.4758 21.3089C54.6365 21.4016 54.7442 21.6148 54.7156 21.785L52.9553 32.3109C52.9267 32.4803 52.7735 32.5426 52.6128 32.4499Z" fill="white"/>
<path d="M52.8652 22.695L49.8402 20.9465C49.6391 20.8302 49.5045 20.564 49.5398 20.3516C49.5752 20.1393 49.767 20.0618 49.9681 20.1781L52.9931 21.9265C53.1942 22.0428 53.3288 22.309 53.2935 22.5214C53.2582 22.7337 53.0663 22.8112 52.8652 22.695Z" fill="#E7EEF2"/>
<path d="M48.3838 20.104L48.0194 19.8933C47.8183 19.777 47.6837 19.5108 47.719 19.2984C47.7544 19.0861 47.9462 19.0086 48.1473 19.1248L48.5117 19.3355C48.7128 19.4518 48.8474 19.718 48.812 19.9304C48.7767 20.1427 48.5849 20.2202 48.3838 20.104Z" fill="#B4C6DF"/>
<path d="M48.0625 22.0251L47.6981 21.8144C47.497 21.6982 47.3624 21.4319 47.3977 21.2196C47.4331 21.0072 47.6249 20.9297 47.826 21.046L48.1904 21.2566C48.3915 21.3729 48.5261 21.6392 48.4908 21.8515C48.4554 22.0639 48.2636 22.1414 48.0625 22.0251Z" fill="#C5A361"/>
<path d="M47.7407 23.9454L47.3763 23.7347C47.1752 23.6185 47.0406 23.3522 47.0759 23.1398C47.1113 22.9275 47.3031 22.85 47.5042 22.9663L47.8686 23.1769C48.0697 23.2932 48.2043 23.5595 48.169 23.7718C48.1336 23.9841 47.9418 24.0617 47.7407 23.9454Z" fill="#5B5B72"/>
<path d="M47.4194 25.8665L47.055 25.6559C46.8539 25.5396 46.7193 25.2733 46.7547 25.061C46.79 24.8487 46.9818 24.7711 47.1829 24.8874L47.5473 25.0981C47.7484 25.2143 47.883 25.4806 47.8477 25.693C47.8124 25.9053 47.6205 25.9828 47.4194 25.8665Z" fill="#CD6C7E"/>
<path d="M47.0981 27.7878L46.7338 27.5771C46.5327 27.4609 46.398 27.1946 46.4334 26.9823C46.4687 26.7699 46.6606 26.6924 46.8617 26.8087L47.226 27.0193C47.4271 27.1356 47.5617 27.4019 47.5264 27.6142C47.4911 27.8266 47.2992 27.9041 47.0981 27.7878Z" fill="#C5A361"/>
<path d="M51.0872 23.7735L49.5204 22.8677C49.3193 22.7514 49.1846 22.4851 49.22 22.2728C49.2553 22.0604 49.4472 21.9829 49.6483 22.0992L51.215 23.005C51.4162 23.1213 51.5508 23.3876 51.5154 23.5999C51.4801 23.8122 51.2883 23.8898 51.0872 23.7735Z" fill="#E7EEF2"/>
<path d="M51.8588 26.3267L49.1981 24.7889C48.997 24.6727 48.8624 24.4064 48.8977 24.194C48.9331 23.9817 49.1249 23.9042 49.326 24.0205L51.9867 25.5582C52.1878 25.6745 52.3224 25.9408 52.2871 26.1531C52.2517 26.3655 52.0599 26.443 51.8588 26.3267Z" fill="#E7EEF2"/>
<path d="M52.2662 28.6683L48.8768 26.7092C48.6757 26.5929 48.5411 26.3267 48.5764 26.1143C48.6118 25.902 48.8036 25.8245 49.0047 25.9408L52.3941 27.8998C52.5952 28.0161 52.7298 28.2824 52.6945 28.4947C52.6591 28.7071 52.4673 28.7846 52.2662 28.6683Z" fill="#E7EEF2"/>
<path d="M49.3945 29.1149L48.5555 28.6304C48.3544 28.5141 48.2198 28.2478 48.2551 28.0355C48.2905 27.8231 48.4823 27.7456 48.6834 27.8619L49.5224 28.3464C49.7235 28.4627 49.8581 28.729 49.8228 28.9413C49.7874 29.1536 49.5956 29.2311 49.3945 29.1149Z" fill="#E7EEF2"/>
</g>
<defs>
<clipPath id="clip0_1013_8898">
<rect width="120" height="117.966" fill="white"/>
</clipPath>
</defs>
</svg>
