<svg width="501" height="99" viewBox="0 0 501 99" fill="none" xmlns="http://www.w3.org/2000/svg">
<path d="M381.782 60.9915L364.491 78.1197H348.922L373.469 20.2896H374.005L398.553 78.071H388.341L381.782 60.9915ZM381.782 60.9915L373.323 39.8856L361.114 67.9727L381.782 60.9915Z" fill="#111111"/>
<path d="M215.754 60.9915L198.447 78.1197H182.878L207.425 20.2896H207.961L232.509 78.071H222.297L215.754 60.9915ZM215.754 60.9915L207.279 39.8856L195.07 67.9727L215.754 60.9915Z" fill="#111111"/>
<path d="M410.534 51.1372C410.534 50.8775 410.534 50.6015 410.534 50.3417C410.494 46.862 411.361 43.4318 413.051 40.3895C414.639 37.4781 416.955 35.0281 419.772 33.2784C422.497 31.5541 425.656 30.6417 428.88 30.6483C433.416 30.7178 437.815 32.2052 441.463 34.9019L444.969 26.5895C442.662 25.2066 440.191 24.1159 437.615 23.3424C434.685 22.4479 431.635 22.0098 428.572 22.0436C423.616 21.9618 418.731 23.2362 414.447 25.729C410.303 28.1691 406.928 31.7244 404.706 35.9897C401.923 41.6093 400.797 47.9049 401.459 54.1408L410.534 51.1372Z" fill="#111111"/>
<path d="M442.145 65.846C440.535 67.2125 438.693 68.2793 436.706 68.9956C434.369 69.8358 431.9 70.2483 429.417 70.2133C425.929 70.288 422.487 69.4065 419.464 67.6643C416.623 65.9825 414.323 63.52 412.84 60.5695C411.487 57.881 410.713 54.9386 410.567 51.9323L402.742 59.774L402.563 59.5954C403.114 61.4132 403.848 63.1703 404.755 64.8394C407.058 69.0709 410.493 72.5785 414.675 74.9702C419.261 77.5588 424.461 78.8602 429.725 78.7368C432.936 78.7657 436.126 78.2158 439.142 77.1133C441.52 76.3318 443.786 75.2401 445.879 73.8662L442.145 65.846Z" fill="#111111"/>
<path d="M470.573 52.5172L466.692 56.3325V78.1202H457.698V22.628H466.692V43.8962L466.465 46.7212L467.683 44.9678L486.191 25.2094L493.724 22.628H500.007L477.067 46.8673V46.8835L470.573 52.5172Z" fill="#111111"/>
<path d="M478.933 49.3178L472.537 55.1463L489.551 78.1192H500.835L478.933 49.3178Z" fill="#111111"/>
<path d="M327.523 46.0393H303.268V22.628H294.354V78.1202H303.268V54.4979H327.523V46.0393Z" fill="#111111"/>
<path d="M330.559 22.628V41.396H330.575V59.2873H330.559V78.1202H339.472V22.628H330.559Z" fill="#111111"/>
<path d="M158.98 35.8924V78.1204H167.828V31.3628L158.98 35.8924Z" fill="#111111"/>
<path d="M145.034 22.628V31.1677H168.218H168.202H182.148V22.628H145.034Z" fill="#111111"/>
<path d="M247.689 35.8924V78.1204H256.537V31.3628L247.689 35.8924Z" fill="#111111"/>
<path d="M233.743 22.628V31.1677H256.927H270.873V22.628H233.743Z" fill="#111111"/>
<path d="M109.898 49.1479C111.085 49.8073 112.453 50.4503 113.986 51.1097L118.503 43.2954C117.111 42.6414 115.772 41.8807 114.497 41.0204C113.596 40.4584 112.852 39.6763 112.336 38.7477C111.819 37.8191 111.548 36.7744 111.546 35.712C111.508 34.7301 111.708 33.7535 112.13 32.8661C112.552 31.9788 113.183 31.2072 113.97 30.6179C115.902 29.2851 118.221 28.63 120.564 28.755C125.112 28.977 129.542 30.2766 133.489 32.5467L136.902 25.6556C134.46 24.0986 131.813 22.889 129.038 22.0617C125.854 21.1549 122.555 20.7217 119.245 20.7759C114.72 20.7665 110.341 22.3743 106.897 25.3094C105.353 26.7072 104.133 28.4263 103.324 30.346C102.515 32.2656 102.137 34.3392 102.215 36.4209C102.107 39.2161 102.911 41.9707 104.507 44.2681C105.914 46.279 107.757 47.9469 109.898 49.1479V49.1479Z" fill="#111111"/>
<path d="M135.154 53.7478C133.937 51.6643 132.242 49.901 130.208 48.6042C128.172 47.3513 126.012 46.3127 123.762 45.5049L119.278 53.2697C121.364 54.0876 123.323 55.1977 125.097 56.5669C125.919 57.2101 126.581 58.034 127.033 58.9746C127.485 59.9152 127.714 60.9473 127.702 61.9907C127.777 63.187 127.53 64.3816 126.984 65.4491C126.439 66.5166 125.616 67.4176 124.603 68.0575C122.442 69.3975 119.94 70.0845 117.398 70.0358C114.92 69.9867 112.47 69.5012 110.161 68.6015C107.756 67.7848 105.484 66.6183 103.418 65.1395L99.3958 72.1789C102.103 74.065 105.09 75.5116 108.249 76.4652C111.498 77.542 114.898 78.0983 118.322 78.1138C121.799 78.1995 125.247 77.4534 128.378 75.9377C131.04 74.6349 133.281 72.6061 134.84 70.0852C136.349 67.6452 137.132 64.8263 137.099 61.9577C137.2 59.096 136.528 56.2598 135.154 53.7478Z" fill="#111111"/>
<path d="M25.3856 24.7879L99.3958 0.223145L50.115 49.5173L25.3856 24.7879Z" fill="url(#paint0_linear)"/>
<path d="M74.8452 74.2466L0.834946 98.8113L50.1157 49.5172L74.8452 74.2466Z" fill="url(#paint1_linear)"/>
<defs>
<linearGradient id="paint0_linear" x1="67.6858" y1="0.223145" x2="60.919" y2="51.1404" gradientUnits="userSpaceOnUse">
<stop stop-color="#29B1EB"/>
<stop offset="0.484375" stop-color="#2086E6"/>
<stop offset="0.987201" stop-color="#0148B1"/>
</linearGradient>
<linearGradient id="paint1_linear" x1="24.9919" y1="98.7837" x2="37.2763" y2="48.7058" gradientUnits="userSpaceOnUse">
<stop stop-color="#29B1EB"/>
<stop offset="0.484375" stop-color="#2086E6"/>
<stop offset="0.987201" stop-color="#0148B1"/>
</linearGradient>
</defs>
</svg>
